<?xml version="1.0" encoding="UTF-8" standalone="no"?>
<svg
   xmlns:dc="http://purl.org/dc/elements/1.1/"
   xmlns:cc="http://creativecommons.org/ns#"
   xmlns:rdf="http://www.w3.org/1999/02/22-rdf-syntax-ns#"
   xmlns:svg="http://www.w3.org/2000/svg"
   xmlns="http://www.w3.org/2000/svg"
   xmlns:sodipodi="http://sodipodi.sourceforge.net/DTD/sodipodi-0.dtd"
   xmlns:inkscape="http://www.inkscape.org/namespaces/inkscape"
   width="800"
   height="800"
   version="1.1"
   id="svg26"
   sodipodi:docname="404.svg"
   inkscape:version="1.0.2 (e86c870879, 2021-01-15)">
  <metadata
     id="metadata32">
    <rdf:RDF>
      <cc:Work
         rdf:about="">
        <dc:format>image/svg+xml</dc:format>
        <dc:type
           rdf:resource="http://purl.org/dc/dcmitype/StillImage" />
      </cc:Work>
    </rdf:RDF>
  </metadata>
  <defs
     id="defs30">
    <inkscape:path-effect
       effect="fillet_chamfer"
       id="path-effect37"
       is_visible="true"
       lpeversion="1"
       satellites_param="F,0,0,1,0,32,0,1 @ F,0,0,1,0,32,0,1 @ F,0,0,1,0,32,0,1 @ F,0,0,1,0,32,0,1 @ F,0,0,1,0,32,0,1 @ F,0,0,1,0,32,0,1 @ F,0,0,1,0,32,0,1 @ F,0,0,1,0,32,0,1 @ F,0,0,1,0,32,0,1 @ F,0,0,1,0,32,0,1 @ F,0,0,1,0,32,0,1 @ F,0,0,1,0,32,0,1"
       unit="px"
       method="auto"
       mode="F"
       radius="32"
       chamfer_steps="1"
       flexible="false"
       use_knot_distance="true"
       apply_no_radius="true"
       apply_with_radius="true"
       only_selected="false"
       hide_knots="false" />
    <inkscape:path-effect
       effect="fillet_chamfer"
       id="path-effect861"
       is_visible="true"
       lpeversion="1"
       satellites_param="F,0,0,1,0,29.605263,0,1 @ F,0,0,1,0,17.430785,0,1 @ F,0,1,1,0,17.430785,0,1 @ F,0,0,1,0,24.061891,0,1 @ F,0,0,1,0,30.1596,0,1 @ F,0,0,1,0,30.1596,0,1 @ F,0,0,1,0,29.480385,0,1 @ F,0,0,1,0,31.338328,0,1 @ F,0,0,1,0,29.897661,0,1 @ F,0,0,1,0,29.897661,0,1 @ F,0,0,1,0,9.4755117,0,1 @ F,0,0,1,0,24.378655,0,1"
       unit="px"
       method="auto"
       mode="F"
       radius="0"
       chamfer_steps="1"
       flexible="false"
       use_knot_distance="true"
       apply_no_radius="true"
       apply_with_radius="true"
       only_selected="false"
       hide_knots="false" />
  </defs>
  <sodipodi:namedview
     pagecolor="#ffffff"
     bordercolor="#666666"
     borderopacity="1"
     objecttolerance="10"
     gridtolerance="10"
     guidetolerance="10"
     inkscape:pageopacity="0"
     inkscape:pageshadow="2"
     inkscape:window-width="640"
     inkscape:window-height="480"
     id="namedview28"
     showgrid="true"
     inkscape:current-layer="g24"
     inkscape:document-rotation="0">
    <inkscape:grid
       type="xygrid"
       id="grid28" />
  </sodipodi:namedview>
  <g
     transform="translate(0 -322.52)"
     id="g24">
    <path
       id="rect30"
       style="fill:#f8e45c;stop-color:#000000"
       d="m 110,954.52 a 30.066593,30.066593 41.185925 0 0 32,28 h 36 a 32,32 45 0 1 32,32 30.066593,30.066593 138.81407 0 1 -32,28 H 62 a 32,32 135 0 0 -32,32 30.066593,30.066593 41.185925 0 0 32,28 h 496 a 32,32 135 0 0 32,-32 30.066593,30.066593 138.81407 0 1 32,-28 h 116 a 32,32 135 0 0 32,-32 30.066593,30.066593 41.185925 0 0 -32,-28 h -36 a 32,32 45 0 1 -32,-32 30.066593,30.066593 41.185925 0 0 -32,-28 H 142 a 32,32 135 0 0 -32,32 z"
       inkscape:path-effect="#path-effect37"
       inkscape:original-d="m 110,922.52 v 60 h 100 v 60 H 30 v 60 h 560 v -60 h 180 v -60 H 670 v -60 z" />
    <g
       transform="matrix(1.53139 0 0 1.53139 -1294.741 525.79)"
       id="g18">
      <path
         style="marker:none"
         d="M1084 65.616a27.16 27.16 0 00-27.063 24.9l-16 192A27.16 27.16 0 001068 311.93h96a27.16 27.16 0 0027.063-29.412l-16-192a27.16 27.16 0 00-27.063-24.9h-32z"
         fill-opacity=".102"
         id="path10" />
      <path
         d="M1084 61.125a27.16 27.16 0 00-27.063 24.9l-16 192A27.16 27.16 0 001068 307.438h96a27.16 27.16 0 0027.063-29.413l-16-192a27.16 27.16 0 00-27.063-24.9h-32z"
         fill="#deddda"
         id="path12" />
      <rect
         ry="32"
         rx="32"
         y="-104"
         x="908"
         height="352"
         width="416"
         style="marker:none"
         fill="#f6f5f4"
         id="rect14" />
      <path
         style="marker:none"
         d="m 936.534,-104.80832 h 358.932 a 28.795,28.795 0 0 1 28.859,28.858994 V 188.78068 H 907.675 V -75.948326 a 28.795,28.795 0 0 1 28.859,-28.858994 z"
         fill="#241f31"
         id="path16" />
    </g>
    <path
       style="marker:none"
       d="M446.112 591.108a42.172 42.172 0 0159.64 0M318.312 591.108a42.172 42.172 0 0159.64 0"
       fill="none"
       stroke="#fff"
       stroke-width="14.665"
       stroke-linecap="round"
       id="path20" />
    <circle
       style="marker:none"
       cx="411.169"
       cy="696.87"
       r="19.421"
       fill="none"
       stroke="#fff"
       stroke-width="14.665"
       stroke-linecap="round"
       id="circle22" />
  </g>
</svg>
