<?xml version="1.0" encoding="UTF-8" standalone="no"?>
<!-- Created with Inkscape (http://www.inkscape.org/) -->

<svg
   xmlns:dc="http://purl.org/dc/elements/1.1/"
   xmlns:cc="http://creativecommons.org/ns#"
   xmlns:rdf="http://www.w3.org/1999/02/22-rdf-syntax-ns#"
   xmlns:svg="http://www.w3.org/2000/svg"
   xmlns="http://www.w3.org/2000/svg"
   xmlns:xlink="http://www.w3.org/1999/xlink"
   xmlns:sodipodi="http://sodipodi.sourceforge.net/DTD/sodipodi-0.dtd"
   xmlns:inkscape="http://www.inkscape.org/namespaces/inkscape"
   width="600"
   height="400"
   id="svg9444"
   version="1.1"
   inkscape:version="0.48.4 r9939"
   sodipodi:docname="adwaita-314.svg">
  <defs
     id="defs9446">
    <linearGradient
       inkscape:collect="always"
       xlink:href="#linearGradient54928-8"
       id="linearGradient55268-5"
       gradientUnits="userSpaceOnUse"
       gradientTransform="matrix(1.5918367,0,0,0.85714285,-256.56122,59.071426)"
       x1="479"
       y1="392"
       x2="479"
       y2="380" />
    <linearGradient
       id="linearGradient54928-8"
       inkscape:collect="always">
      <stop
         id="stop54930-4"
         offset="0"
         style="stop-color:#fefefe;stop-opacity:1" />
      <stop
         id="stop54932-9"
         offset="1"
         style="stop-color:#f1f1f1;stop-opacity:1" />
    </linearGradient>
    <linearGradient
       inkscape:collect="always"
       xlink:href="#linearGradient54975-2"
       id="linearGradient55270-4"
       gradientUnits="userSpaceOnUse"
       gradientTransform="matrix(1.5918367,0,0,0.85714285,-256.56122,59.071426)"
       x1="479"
       y1="392"
       x2="479"
       y2="378.96838" />
    <linearGradient
       inkscape:collect="always"
       id="linearGradient54975-2">
      <stop
         style="stop-color:#fefefe;stop-opacity:1"
         offset="0"
         id="stop54977-3" />
      <stop
         id="stop54981-5"
         offset="0.84817392"
         style="stop-color:#f2f2f2;stop-opacity:1;" />
      <stop
         style="stop-color:#d2d2d2;stop-opacity:1"
         offset="1"
         id="stop54979-8" />
    </linearGradient>
    <inkscape:path-effect
       effect="spiro"
       id="path-effect12286-6"
       is_visible="true" />
    <inkscape:path-effect
       is_visible="true"
       id="path-effect12290-3"
       effect="spiro" />
    <linearGradient
       inkscape:collect="always"
       xlink:href="#linearGradient54928-8"
       id="linearGradient55206-9"
       gradientUnits="userSpaceOnUse"
       gradientTransform="matrix(1.5918367,0,0,0.85714285,-256.56122,59.071426)"
       x1="479"
       y1="392"
       x2="479"
       y2="380" />
    <linearGradient
       inkscape:collect="always"
       xlink:href="#linearGradient54975-2"
       id="linearGradient55208-5"
       gradientUnits="userSpaceOnUse"
       gradientTransform="matrix(1.5918367,0,0,0.85714285,-256.56122,59.071426)"
       x1="479"
       y1="392"
       x2="479"
       y2="378.96838" />
    <linearGradient
       inkscape:collect="always"
       xlink:href="#linearGradient54928-8"
       id="linearGradient55030-2"
       gradientUnits="userSpaceOnUse"
       gradientTransform="matrix(1.5918367,0,0,0.85714285,-256.56122,59.071426)"
       x1="479"
       y1="392"
       x2="479"
       y2="380" />
    <linearGradient
       inkscape:collect="always"
       xlink:href="#linearGradient54975-2"
       id="linearGradient55032-1"
       gradientUnits="userSpaceOnUse"
       gradientTransform="matrix(1.5918367,0,0,0.85714285,-256.56122,59.071426)"
       x1="479"
       y1="392"
       x2="479"
       y2="378.96838" />
    <linearGradient
       inkscape:collect="always"
       xlink:href="#linearGradient3808-0-8"
       id="linearGradient60544-2"
       gradientUnits="userSpaceOnUse"
       gradientTransform="matrix(2.5189873,0,0,1.0322581,-583.68348,400.69357)"
       x1="589"
       y1="37.753166"
       x2="589"
       y2="9.7479591" />
    <linearGradient
       inkscape:collect="always"
       id="linearGradient3808-0-8">
      <stop
         style="stop-color:#538ac5;stop-opacity:1"
         offset="0"
         id="stop3810-8-8" />
      <stop
         style="stop-color:#86add6;stop-opacity:1"
         offset="1"
         id="stop3812-7-4" />
    </linearGradient>
    <inkscape:path-effect
       is_visible="true"
       id="path-effect12290-3-2"
       effect="spiro" />
  </defs>
  <sodipodi:namedview
     id="base"
     pagecolor="#ffffff"
     bordercolor="#666666"
     borderopacity="1.0"
     inkscape:pageopacity="0.0"
     inkscape:pageshadow="2"
     inkscape:zoom="1"
     inkscape:cx="227.84387"
     inkscape:cy="257.70035"
     inkscape:document-units="px"
     inkscape:current-layer="layer1"
     showgrid="false"
     borderlayer="true"
     inkscape:showpageshadow="false"
     inkscape:snap-nodes="false"
     inkscape:snap-bbox="true"
     inkscape:window-width="1279"
     inkscape:window-height="1400"
     inkscape:window-x="3839"
     inkscape:window-y="0"
     inkscape:window-maximized="0">
    <inkscape:grid
       type="xygrid"
       id="grid10479"
       empspacing="5"
       visible="true"
       enabled="true"
       snapvisiblegridlinesonly="true" />
  </sodipodi:namedview>
  <metadata
     id="metadata9449">
    <rdf:RDF>
      <cc:Work
         rdf:about="">
        <dc:format>image/svg+xml</dc:format>
        <dc:type
           rdf:resource="http://purl.org/dc/dcmitype/StillImage" />
        <dc:title />
      </cc:Work>
    </rdf:RDF>
  </metadata>
  <g
     inkscape:label="Layer 1"
     inkscape:groupmode="layer"
     id="layer1"
     transform="translate(0,-652.36218)">
    <g
       id="g10230"
       transform="translate(15,-73)">
      <g
         style="font-size:48px;font-style:normal;font-variant:normal;font-weight:normal;font-stretch:normal;text-indent:0;text-align:center;text-decoration:none;line-height:125%;letter-spacing:0px;word-spacing:0px;text-transform:none;direction:ltr;block-progression:tb;writing-mode:lr-tb;text-anchor:middle;baseline-shift:baseline;color:#000000;fill:#000000;fill-opacity:1;fill-rule:nonzero;stroke:none;stroke-width:1;marker:none;visibility:visible;display:inline;overflow:visible;enable-background:accumulate;font-family:Cantarell;-inkscape-font-specification:Cantarell"
         id="text9452"
         transform="translate(93,0)">
        <path
           d="m 67.554335,820.04968 -11.376,-33.312 -4.896,0 -11.328,33.312 4.128,0 3.168,-9.696 12.672,0 3.168,9.696 4.464,0 m -13.968,-29.088 5.184,15.888 -10.368,0 5.184,-15.888"
           style="letter-spacing:15.71430492;marker:none;font-family:Cantarell;-inkscape-font-specification:Cantarell"
           id="path10580"
           inkscape:connector-curvature="0" />
        <path
           d="m 92.166641,816.54568 0,-26.256 7.44,0 c 5.759999,0 8.447999,2.68801 10.127999,6.24 0.96,2.016 1.44,4.32001 1.44,6.912 0,2.592 -0.336,4.992 -1.296,7.008 -1.68,3.552 -4.56,6.096 -10.271999,6.096 l -7.44,0 m 7.728,3.504 c 6.815989,0 11.327999,-2.976 13.727999,-7.68 1.296,-2.54399 1.92,-5.568 1.92,-8.928 0,-3.35999 -0.624,-6.384 -1.92,-8.928 -2.4,-4.70399 -6.91201,-7.728 -13.727999,-7.728 l -11.712,0 0,33.264 11.712,0"
           style="letter-spacing:15.71430492;marker:none;font-family:Cantarell;-inkscape-font-specification:Cantarell"
           id="path10582"
           inkscape:connector-curvature="0" />
        <path
           d="m 134.42195,786.73768 10.464,33.312 4.224,0 8.16,-27.84 8.784,27.84 4.224,0 9.984,-33.312 -3.936,0 -8.16,27.984 -8.64,-27.984 -4.032,0 -8.4,27.984 -8.4,-27.984 -4.272,0"
           style="letter-spacing:15.71430492;marker:none;font-family:Cantarell;-inkscape-font-specification:Cantarell"
           id="path10584"
           inkscape:connector-curvature="0" />
        <path
           d="m 224.8535,820.04968 -11.376,-33.312 -4.896,0 -11.328,33.312 4.128,0 3.168,-9.696 12.672,0 3.168,9.696 4.464,0 m -13.968,-29.088 5.184,15.888 -10.368,0 5.184,-15.888"
           style="letter-spacing:15.71430492;marker:none;font-family:Cantarell;-inkscape-font-specification:Cantarell"
           id="path10586"
           inkscape:connector-curvature="0" />
        <path
           d="m 246.20181,786.73768 0,33.312 3.984,0 0,-33.312 -3.984,0"
           style="letter-spacing:15.71430492;marker:none;font-family:Cantarell;-inkscape-font-specification:Cantarell"
           id="path10588"
           inkscape:connector-curvature="0" />
        <path
           d="m 271.18985,786.73768 0,3.504 11.088,0 0,29.808 3.984,0 0,-29.808 11.136,0 0,-3.504 -26.208,0"
           style="letter-spacing:15.71430492;marker:none;font-family:Cantarell;-inkscape-font-specification:Cantarell"
           id="path10590"
           inkscape:connector-curvature="0" />
        <path
           d="m 342.02766,820.04968 -11.376,-33.312 -4.896,0 -11.328,33.312 4.128,0 3.168,-9.696 12.672,0 3.168,9.696 4.464,0 m -13.968,-29.088 5.184,15.888 -10.368,0 5.184,-15.888"
           style="letter-spacing:15.71430492;marker:none;font-family:Cantarell;-inkscape-font-specification:Cantarell"
           id="path10592"
           inkscape:connector-curvature="0" />
      </g>
      <rect
         y="806.42267"
         x="130.81802"
         height="3.8789976"
         width="22"
         id="rect9456"
         style="color:#000000;fill:#3465a4;fill-opacity:1;fill-rule:nonzero;stroke:none;stroke-width:1.00000012;marker:none;visibility:visible;display:inline;overflow:visible;enable-background:accumulate" />
      <rect
         style="color:#000000;fill:#3465a4;fill-opacity:1;fill-rule:nonzero;stroke:none;stroke-width:1.00000012;marker:none;visibility:visible;display:inline;overflow:visible;enable-background:accumulate"
         id="rect10575"
         width="22"
         height="3.8789976"
         x="288.23224"
         y="806.42267" />
      <rect
         y="806.42267"
         x="405.46967"
         height="3.8789976"
         width="22"
         id="rect10577"
         style="color:#000000;fill:#3465a4;fill-opacity:1;fill-rule:nonzero;stroke:none;stroke-width:1.00000012;marker:none;visibility:visible;display:inline;overflow:visible;enable-background:accumulate" />
    </g>
    <g
       transform="matrix(2,0,0,2,-724.99995,23.36218)"
       id="g55150">
      <path
         transform="translate(0,1)"
         d="m 437.3125,383.5 c -2.10737,0 -3.8125,1.70513 -3.8125,3.8125 l 0,22.375 c 0,2.10737 1.70513,3.8125 3.8125,3.8125 l 148.375,0 c 2.10737,0 3.8125,-1.70513 3.8125,-3.8125 l 0,-22.375 c 0,-2.10737 -1.70513,-3.8125 -3.8125,-3.8125 l -148.375,0 z"
         id="path55154"
         style="color:#000000;fill:url(#linearGradient55206-9);fill-opacity:1;fill-rule:nonzero;stroke:#ffffff;stroke-width:0.99999994;stroke-miterlimit:4;stroke-opacity:1;stroke-dasharray:none;marker:none;visibility:visible;display:inline;overflow:visible;enable-background:new"
         xlink:href="#rect54898"
         inkscape:original="M 437.3125 383.5 C 435.20513 383.5 433.5 385.20513 433.5 387.3125 L 433.5 409.6875 C 433.5 411.79487 435.20513 413.5 437.3125 413.5 L 585.6875 413.5 C 587.79487 413.5 589.5 411.79487 589.5 409.6875 L 589.5 387.3125 C 589.5 385.20513 587.79487 383.5 585.6875 383.5 L 437.3125 383.5 z "
         inkscape:radius="0"
         sodipodi:type="inkscape:offset" />
      <rect
         ry="3.8039246"
         rx="3.8039246"
         y="383.5"
         x="433.5"
         height="30"
         width="156"
         id="rect55156"
         style="color:#000000;fill:url(#linearGradient55208-5);fill-opacity:1;fill-rule:nonzero;stroke:#babdb6;stroke-width:0.99999994;stroke-miterlimit:4;stroke-opacity:1;stroke-dasharray:none;marker:none;visibility:visible;display:inline;overflow:visible;enable-background:new" />
      <g
         style="font-size:14px;font-style:normal;font-variant:normal;font-weight:normal;font-stretch:normal;text-align:start;line-height:125%;letter-spacing:0px;word-spacing:0px;writing-mode:lr-tb;text-anchor:start;fill:#000000;fill-opacity:1;stroke:none;display:inline;enable-background:new;font-family:Cantarell;-inkscape-font-specification:Cantarell"
         id="text55158">
        <path
           d="m 446.23348,404.126 c 1.94599,0 3.094,-0.756 3.71,-1.372 l 0,-3.878 -3.85,0 0,0.952 2.758,0 0,2.562 c -0.546,0.448 -1.44201,0.714 -2.184,0.714 -0.812,0 -1.38601,-0.168 -1.988,-0.518 -1.064,-0.616 -1.848,-1.848 -1.848,-3.458 0,-1.484 0.532,-2.618 1.68,-3.374 0.574,-0.378 1.232,-0.574 1.946,-0.574 0.82599,0 1.932,0.322 2.618,0.686 l 0.462,-0.868 c -0.938,-0.518 -1.90401,-0.826 -3.192,-0.826 -0.91,0 -1.72201,0.21 -2.45,0.644 -1.33,0.784 -2.338,2.366 -2.338,4.41 0,2.814 2.058,4.9 4.676,4.9"
           style=""
           id="path6226" />
        <path
           d="m 454.01726,404.126 c 0.476,0 0.966,-0.084 1.484,-0.252 l 0,-0.854 c -0.364,0.098 -0.742,0.154 -1.148,0.154 -0.868,0 -1.064,-0.462 -1.064,-1.358 l 0,-3.626 2.212,0 0,-0.952 -2.212,0 0,-1.736 -1.162,0.056 0,1.68 -1.134,0 0,0.952 1.134,0 0,3.71 c 0,1.428 0.49,2.226 1.89,2.226"
           style=""
           id="path6228" />
        <path
           d="m 457.0406,394.62 0,9.38 1.162,0 0,-9.38 -1.162,0 m 4.256,2.632 -2.982,3.01 3.052,3.738 1.4,0 -3.08,-3.738 2.94,-3.01 -1.33,0"
           style=""
           id="path6230" />
      </g>
      <path
         sodipodi:nodetypes="ccsccccccccccc"
         style="font-size:medium;font-style:normal;font-variant:normal;font-weight:normal;font-stretch:normal;text-indent:0;text-align:start;text-decoration:none;line-height:normal;letter-spacing:normal;word-spacing:normal;text-transform:none;direction:ltr;block-progression:tb;writing-mode:lr-tb;text-anchor:start;color:#bebebe;fill:#888a85;fill-opacity:1;fill-rule:nonzero;stroke:none;stroke-width:1;marker:none;visibility:visible;display:inline;overflow:visible;enable-background:accumulate;font-family:Andale Mono;-inkscape-font-specification:Andale Mono"
         id="path10839-9-9-8-6"
         inkscape:connector-curvature="0"
         d="m 570,397.00314 0,1 c -1.2e-4,0.0104 -4.6e-4,0.0208 0,0.0313 0.0112,0.25495 0.12858,0.50987 0.3125,0.6875 l 4.21875,4.28125 4.1875,-4.28125 C 578.90694,398.53373 579,398.26843 579,398.00314 l 0,-1 -1,0 c -0.26529,0 -0.53058,0.0931 -0.71875,0.28125 l -2.75,2.8125 -2.78125,-2.8125 c -0.19463,-0.21074 -0.46925,-0.30316 -0.75,-0.28125 z" />
    </g>
    <g
       id="g55212"
       transform="matrix(2,0,0,2,-724.99995,103.36218)">
      <rect
         ry="5.5539246"
         rx="5.5539241"
         y="387.5"
         x="433.49997"
         height="27"
         width="156.00003"
         id="rect55214"
         style="opacity:0.17283953;color:#000000;fill:none;stroke:#ffffff;stroke-width:1;stroke-miterlimit:4;stroke-opacity:1;stroke-dasharray:none;marker:none;visibility:visible;display:inline;overflow:visible;enable-background:new" />
      <path
         sodipodi:type="inkscape:offset"
         inkscape:radius="0"
         inkscape:original="M 437.3125 383.5 C 435.20513 383.5 433.5 385.20513 433.5 387.3125 L 433.5 409.6875 C 433.5 411.79487 435.20513 413.5 437.3125 413.5 L 585.6875 413.5 C 587.79487 413.5 589.5 411.79487 589.5 409.6875 L 589.5 387.3125 C 589.5 385.20513 587.79487 383.5 585.6875 383.5 L 437.3125 383.5 z "
         xlink:href="#rect54898"
         style="color:#000000;fill:url(#linearGradient55268-5);fill-opacity:1;fill-rule:nonzero;stroke:#ffffff;stroke-width:0.99999994;stroke-miterlimit:4;stroke-opacity:1;stroke-dasharray:none;marker:none;visibility:visible;display:inline;overflow:visible;enable-background:new"
         id="path55216"
         d="m 437.3125,383.5 c -2.10737,0 -3.8125,1.70513 -3.8125,3.8125 l 0,22.375 c 0,2.10737 1.70513,3.8125 3.8125,3.8125 l 148.375,0 c 2.10737,0 3.8125,-1.70513 3.8125,-3.8125 l 0,-22.375 c 0,-2.10737 -1.70513,-3.8125 -3.8125,-3.8125 l -148.375,0 z"
         transform="translate(0,1)" />
      <rect
         style="color:#000000;fill:url(#linearGradient55270-4);fill-opacity:1;fill-rule:nonzero;stroke:#babdb6;stroke-width:0.99999994;stroke-miterlimit:4;stroke-opacity:1;stroke-dasharray:none;marker:none;visibility:visible;display:inline;overflow:visible;enable-background:new"
         id="rect55218"
         width="156"
         height="30"
         x="433.5"
         y="383.5"
         rx="3.8039246"
         ry="3.8039246" />
      <g
         style="font-size:14px;font-style:normal;font-variant:normal;font-weight:normal;font-stretch:normal;text-align:start;line-height:125%;letter-spacing:0px;word-spacing:0px;writing-mode:lr-tb;text-anchor:start;fill:#000000;fill-opacity:1;stroke:none;display:inline;enable-background:new;font-family:Cantarell;-inkscape-font-specification:Cantarell"
         id="text55220">
        <path
           d="m 447.28348,401.27 c 0,0.574 -0.252,1.022 -0.756,1.386 -0.504,0.364 -1.03601,0.462 -1.652,0.462 -0.756,0 -1.70801,-0.294 -2.548,-0.574 l -0.336,1.008 c 0.85399,0.308 1.834,0.644 2.954,0.644 0.95199,0 1.75,-0.182 2.464,-0.784 0.71399,-0.602 1.036,-1.274 1.036,-2.254 0,-1.316 -0.92401,-2.142 -1.918,-2.408 0.74199,-0.364 1.47,-1.19 1.47,-2.282 0,-1.456 -1.12001,-2.296 -2.94,-2.296 -0.868,0 -1.77801,0.238 -2.716,0.7 l 0.378,0.924 c 0.82599,-0.378 1.554,-0.602 2.17,-0.602 1.35799,0 1.946,0.462 1.946,1.414 0,0.35 -0.154,0.672 -0.378,0.938 -0.42,0.504 -1.14801,0.742 -2.296,0.784 l 0,0.994 0.14,0 c 1.59599,0 2.982,0.56 2.982,1.946"
           style=""
           id="path6217" />
        <path
           d="m 450.90619,402.558 0,1.442 1.428,0 0,-1.442 -1.428,0"
           style=""
           id="path6219" />
        <path
           d="m 458.77901,394.284 -1.33,0 -2.086,0.91 0.42,0.952 1.89,-0.77 0,7.602 -2.422,0 0,1.022 5.782,0 0,-1.022 -2.254,0 0,-8.694"
           style=""
           id="path6221" />
        <path
           d="m 468.96773,394.284 -1.68,0 -4.116,6.58 0,0.812 4.69,0 0,2.324 1.106,0 0,-2.324 1.666,0 0,-1.022 -1.666,0 0,-6.37 m -1.106,6.37 -3.304,0 3.304,-5.278 0,5.278"
           style=""
           id="path6223" />
      </g>
      <g
         inkscape:label="list-remove"
         id="g55224"
         transform="translate(518,115)"
         style="display:inline">
        <rect
           style="color:#bebebe;fill:none;stroke:none;stroke-width:1;marker:none;visibility:visible;display:inline;overflow:visible"
           id="rect55226"
           width="16"
           height="16"
           x="20"
           y="276"
           inkscape:label="a" />
        <rect
           style="color:#bebebe;fill:#888a85;fill-opacity:1;stroke:none;stroke-width:1;marker:none;visibility:visible;display:inline;overflow:visible"
           id="rect55228"
           width="9.9996014"
           height="2.0002136"
           x="23.000198"
           y="282.99979"
           inkscape:label="a" />
      </g>
      <g
         style="display:inline"
         transform="translate(547,115)"
         id="g55230"
         inkscape:label="list-add">
        <rect
           inkscape:label="a"
           y="276"
           x="20"
           height="16"
           width="16"
           id="rect55232"
           style="color:#bebebe;fill:none;stroke:none;stroke-width:1;marker:none;visibility:visible;display:inline;overflow:visible" />
        <path
           style="color:#bebebe;fill:#888a85;fill-opacity:1;fill-rule:nonzero;stroke:none;stroke-width:1;marker:none;visibility:visible;display:inline;overflow:visible;enable-background:accumulate"
           d="m -174,512 0,4 -4,0 0,2 4,0 0,4 2,0 0,-4 4,0 0,-2 -4,0 0,-4 -2,0 z"
           transform="translate(201,-233)"
           id="path55234"
           inkscape:connector-curvature="0" />
      </g>
      <path
         style="opacity:0.3;color:#000000;fill:none;stroke:#babdb6;stroke-width:1;stroke-linecap:square;stroke-linejoin:miter;stroke-miterlimit:4;stroke-opacity:1;stroke-dasharray:none;stroke-dashoffset:0;marker:none;visibility:visible;display:inline;overflow:visible;enable-background:accumulate"
         d="m 560.5,384.50002 0,28.75"
         id="path55236"
         inkscape:path-effect="#path-effect12286-6"
         inkscape:original-d="m 560.5,384.50002 0,28.75"
         inkscape:connector-curvature="0" />
      <path
         inkscape:connector-curvature="0"
         inkscape:original-d="m 531.5,384.50002 0,28.75"
         inkscape:path-effect="#path-effect12290-3"
         id="path55238"
         d="m 531.5,384.50002 0,28.75"
         style="opacity:0.3;fill:none;stroke:#babdb6;stroke-width:1;stroke-linecap:square;stroke-linejoin:miter;stroke-miterlimit:4;stroke-opacity:1;stroke-dasharray:none" />
    </g>
    <g
       id="g60190"
       transform="matrix(2,0,0,2,-1459,131.36218)">
      <rect
         inkscape:export-ydpi="90"
         inkscape:export-xdpi="90"
         inkscape:export-filename="/home/lapo.fedora/SparkleShare/gnome-mockups/content selection/content-selection.png"
         ry="3"
         rx="3"
         y="412.49115"
         x="801.21948"
         height="30.00885"
         width="79"
         id="rect2995-6-5-6"
         style="opacity:0.4;color:#000000;fill:none;stroke:#ffffff;stroke-width:1;stroke-linecap:butt;stroke-linejoin:miter;stroke-miterlimit:4;stroke-opacity:1;stroke-dasharray:none;stroke-dashoffset:0;marker:none;visibility:visible;display:inline;overflow:visible;enable-background:accumulate" />
      <path
         sodipodi:type="inkscape:offset"
         inkscape:radius="0"
         inkscape:original="M 803.5 410.5 C 801.838 410.5 800.5 411.838 800.5 413.5 L 800.5 439.5 C 800.5 441.162 801.838 442.5 803.5 442.5 L 953.5625 442.5 C 955.2245 442.5 956.5625 441.162 956.5625 439.5 L 956.5625 413.5 C 956.5625 411.838 955.2245 410.5 953.5625 410.5 L 803.5 410.5 z "
         xlink:href="#rect2995-9-8"
         style="opacity:0.4;color:#000000;fill:none;stroke:#ffffff;stroke-width:1;stroke-linecap:butt;stroke-linejoin:miter;stroke-miterlimit:4;stroke-opacity:1;stroke-dasharray:none;stroke-dashoffset:0;marker:none;visibility:visible;display:inline;overflow:visible;enable-background:accumulate"
         id="path60542"
         inkscape:href="#rect2995-9-8"
         d="m 803.5,410.5 c -1.662,0 -3,1.338 -3,3 l 0,26 c 0,1.662 1.338,3 3,3 l 150.0625,0 c 1.662,0 3,-1.338 3,-3 l 0,-26 c 0,-1.662 -1.338,-3 -3,-3 l -150.0625,0 z"
         transform="translate(0,1)" />
      <rect
         inkscape:export-ydpi="90"
         inkscape:export-xdpi="90"
         inkscape:export-filename="/home/lapo.fedora/SparkleShare/gnome-mockups/content selection/content-selection.png"
         ry="3"
         rx="2.9999998"
         y="410.5"
         x="800.5"
         height="32"
         width="156.0625"
         id="rect2995-9-8"
         style="color:#000000;fill:url(#linearGradient60544-2);fill-opacity:1;fill-rule:nonzero;stroke:#204a87;stroke-width:1;stroke-linecap:butt;stroke-linejoin:miter;stroke-miterlimit:4;stroke-opacity:1;stroke-dasharray:none;stroke-dashoffset:0;marker:none;visibility:visible;display:inline;overflow:visible;enable-background:accumulate" />
      <path
         transform="translate(0,-1)"
         style="font-size:14.30000019px;font-style:normal;font-variant:normal;font-weight:bold;font-stretch:normal;line-height:125%;letter-spacing:0px;word-spacing:0px;color:#000000;fill:#3465a4;fill-opacity:1;fill-rule:nonzero;stroke:none;marker:none;visibility:visible;display:inline;overflow:visible;enable-background:accumulate;font-family:Cantarell;-inkscape-font-specification:Cantarell Bold"
         d="m 876.84375,422.03125 c -2.4882,0 -2.8125,1.77335 -2.8125,2.53125 l 0,0.5625 -1.15625,0 0,1.3125 1.15625,0 0,5.5625 1.6875,0 0,-5.5625 2.59375,0 0,-1.3125 -2.59375,0 0,-0.625 c 0,-0.6578 0.60175,-1.09375 1.53125,-1.09375 0.4147,0 0.8623,0.11335 1.0625,0.15625 l 0.28125,0.0625 0.28125,-1.21875 -0.25,-0.0937 c -0.8437,-0.2574 -1.40945,-0.28125 -1.78125,-0.28125 z m -21.65625,0.0625 0,9.90625 2.46875,0 c 0.8294,0 1.7188,-0.004 2.5625,-0.21875 2.7599,-0.6578 3.59375,-3.01495 3.59375,-5.03125 0,-2.0449 -1.09135,-4.65625 -5.28125,-4.65625 l -3.34375,0 z m 39.0625,0 0,8.125 c 0,0.9724 0.2914,1.9375 1.75,1.9375 0.7865,0 1.3194,-0.25795 1.5625,-0.34375 l 0,-1.125 c -0.2431,0.0572 -0.5408,0.125 -0.8125,0.125 -0.6721,0 -0.8125,-0.42165 -0.8125,-1.09375 l 0,-7.625 -1.6875,0 z m 4.90625,1.03125 0,2 -1.15625,0 0,1.3125 1.15625,0 0,3.34375 c 0,1.2155 0.3121,2.375 2.5,2.375 0.6578,0 1.4513,-0.1891 1.9375,-0.375 l -0.25,-1.21875 c -0.2717,0.0715 -0.812,0.1875 -1.3125,0.1875 -0.9438,0 -1.15625,-0.4709 -1.15625,-1 l 0,-3.3125 2.40625,0 0,-1.3125 -2.40625,0 0,-2 -1.71875,0 z m -42.21875,0.5625 1.625,0 c 2.2165,0 3.46875,1.1389 3.46875,3.3125 0,0.9295 -0.2516,1.51485 -0.4375,1.84375 -0.8151,1.5015 -2.4132,1.5625 -3.5,1.5625 l -1.15625,0 0,-6.71875 z m 11.28125,1.28125 c -1.6874,0 -3.1875,1.43445 -3.1875,3.59375 0,2.0878 1.16805,3.625 3.65625,3.625 0.9152,0 1.77705,-0.16315 2.40625,-0.40625 l 0,-1.21875 c -0.5863,0.1144 -1.2437,0.28125 -2.1875,0.28125 -1.2298,0 -2.0392,-0.33535 -2.125,-1.59375 l 4.65625,0 0,-0.6875 c 0,-2.1307 -1.05945,-3.59375 -3.21875,-3.59375 z m 13.40625,0 c -1.1869,0 -1.78075,0.29715 -2.28125,0.46875 l 0,1.3125 c 0.6292,-0.2574 1.20555,-0.46875 1.90625,-0.46875 1.4157,0 1.75,0.3899 1.75,1.5625 l -1.34375,0.0625 c -1.8447,0.1144 -2.875,0.829 -2.875,2.1875 0,1.2012 0.90475,2.0625 2.40625,2.0625 0.8294,0 1.48785,-0.25055 2.03125,-0.59375 l 0.1875,0.4375 1.375,0 0,-4.21875 c 0,-1.6159 -0.62515,-2.8125 -3.15625,-2.8125 z m 4.75,0.15625 0,3.9375 c 0,1.2012 0.1119,3.09375 2.5,3.09375 0.9438,0 1.67535,-0.36495 2.21875,-0.59375 l 0.25,0.46875 1.1875,0 0,-6.90625 -1.71875,0 0,5.25 c -0.6149,0.3146 -1.1854,0.375 -1.5,0.375 -1.1011,0 -1.25,-0.89145 -1.25,-1.40625 l 0,-4.21875 -1.6875,0 z m -18.09375,1.1875 c 0.8294,0 1.46875,0.60335 1.46875,1.71875 l -2.9375,0 c 0.0572,-1.1154 0.76805,-1.71875 1.46875,-1.71875 z M 883.0625,429 l 0,1.46875 c -0.3718,0.2288 -0.67695,0.40625 -1.40625,0.40625 -0.715,0 -1.15625,-0.3316 -1.15625,-0.875 0,-0.5434 0.41425,-0.84905 1.34375,-0.90625 L 883.0625,429 z"
         id="path60213" />
      <g
         style="font-size:14.30000019px;font-style:normal;font-variant:normal;font-weight:bold;font-stretch:normal;text-align:center;line-height:125%;letter-spacing:0px;word-spacing:0px;writing-mode:lr-tb;text-anchor:middle;fill:#ffffff;fill-opacity:1;stroke:none;font-family:Cantarell;-inkscape-font-specification:Cantarell Bold"
         id="text3767-1-5">
        <path
           d="m 858.56094,423.70171 c 2.2165,0 3.4606,1.1154 3.4606,3.289 0,0.9295 -0.2574,1.5301 -0.4433,1.859 -0.8151,1.5015 -2.4024,1.5444 -3.4892,1.5444 l -1.144,0 0,-6.6924 1.6159,0 m -0.0286,-1.6159 -3.3462,0 0,9.9242 2.4739,0 c 0.8294,0 1.716,0 2.5597,-0.2145 2.7599,-0.6578 3.6036,-3.0173 3.6036,-5.0336 0,-2.0449 -1.10111,-4.6761 -5.291,-4.6761"
           style=""
           id="path6202" />
        <path
           d="m 868.2331,424.97441 c -1.6874,0 -3.1889,1.4443 -3.1889,3.6036 0,2.0878 1.1583,3.6036 3.6465,3.6036 0.9152,0 1.7875,-0.1716 2.4167,-0.4147 l 0,-1.2155 c -0.5863,0.1144 -1.2441,0.286 -2.1879,0.286 -1.2298,0 -2.0592,-0.3432 -2.145,-1.6016 l 4.6761,0 0,-0.6578 c 0,-2.1307 -1.0582,-3.6036 -3.2175,-3.6036 m 0.0429,1.3442 c 0.8294,0 1.4729,0.6006 1.4729,1.716 l -2.9458,0 c 0.0572,-1.1154 0.7722,-1.716 1.4729,-1.716"
           style=""
           id="path6204" />
        <path
           d="m 874.01745,424.55971 0,0.5577 -1.144,0 0,1.3299 1.144,0 0,5.5627 1.716,0 0,-5.5627 2.5883,0 0,-1.3299 -2.5883,0 0,-0.6149 c 0,-0.6578 0.5863,-1.0868 1.5158,-1.0868 0.4147,0 0.8723,0.1001 1.0725,0.143 l 0.286,0.0715 0.2574,-1.2298 -0.2431,-0.0858 c -0.8437,-0.2574 -1.4157,-0.286 -1.7875,-0.286 -2.4882,0 -2.8171,1.7732 -2.8171,2.5311"
           style=""
           id="path6206" />
        <path
           d="m 881.61701,424.97441 c -1.1869,0 -1.7732,0.286 -2.2737,0.4576 l 0,1.3156 c 0.6292,-0.2574 1.2012,-0.4719 1.9019,-0.4719 1.4157,0 1.7446,0.3861 1.7446,1.5587 l -1.3299,0.0715 c -1.8447,0.1144 -2.8743,0.8437 -2.8743,2.2022 0,1.2012 0.9152,2.0449 2.4167,2.0449 0.8294,0 1.4872,-0.2574 2.0306,-0.6006 l 0.1859,0.4576 1.3728,0 0,-4.2328 c 0,-1.6159 -0.6435,-2.8028 -3.1746,-2.8028 m 1.4586,5.5055 c -0.3718,0.2288 -0.7007,0.4004 -1.43,0.4004 -0.715,0 -1.1583,-0.3432 -1.1583,-0.8866 0,-0.5434 0.429,-0.858 1.3585,-0.9152 l 1.2298,-0.0715 0,1.4729"
           style=""
           id="path6208" />
        <path
           d="m 891.33766,432.02431 1.2012,0 0,-6.8926 -1.716,0 0,5.2338 c -0.6149,0.3146 -1.1869,0.3861 -1.5015,0.3861 -1.1011,0 -1.2441,-0.8866 -1.2441,-1.4014 l 0,-4.2185 -1.716,0 0,3.9182 c 0,1.2012 0.1144,3.1031 2.5025,3.1031 0.9438,0 1.7017,-0.3718 2.2451,-0.6006 l 0.2288,0.4719"
           style=""
           id="path6210" />
        <path
           d="m 896.74127,430.80881 c -0.6721,0 -0.8008,-0.4147 -0.8008,-1.0868 l 0,-7.6362 -1.6874,0 0,8.1367 c 0,0.9724 0.3003,1.9305 1.7589,1.9305 0.7865,0 1.3013,-0.2574 1.5444,-0.3432 l 0,-1.1154 c -0.2431,0.0572 -0.5434,0.1144 -0.8151,0.1144"
           style=""
           id="path6212" />
        <path
           d="m 903.60147,431.76691 -0.2574,-1.2155 c -0.2717,0.0715 -0.8151,0.2002 -1.3156,0.2002 -0.9438,0 -1.1583,-0.4719 -1.1583,-1.001 l 0,-3.3033 2.4167,0 0,-1.3299 -2.4167,0 0,-1.9877 -1.716,0 0,1.9877 -1.144,0 0,1.3299 1.144,0 0,3.3462 c 0,1.2155 0.3003,2.3595 2.4882,2.3595 0.6578,0 1.4729,-0.2002 1.9591,-0.3861"
           style=""
           id="path6214" />
      </g>
      <path
         inkscape:export-ydpi="90"
         inkscape:export-xdpi="90"
         inkscape:export-filename="/home/lapo.fedora/SparkleShare/gnome-mockups/content selection/content-selection.png"
         sodipodi:nodetypes="cc"
         inkscape:connector-curvature="0"
         id="path3837-93"
         d="m 804.20957,411.5 149.76838,0"
         style="opacity:0.2;fill:none;stroke:#ffffff;stroke-width:1px;stroke-linecap:round;stroke-linejoin:miter;stroke-opacity:1" />
    </g>
  </g>
</svg>
