<?xml version="1.0" encoding="UTF-8" standalone="no"?>
<svg
   xmlns:dc="http://purl.org/dc/elements/1.1/"
   xmlns:cc="http://creativecommons.org/ns#"
   xmlns:rdf="http://www.w3.org/1999/02/22-rdf-syntax-ns#"
   xmlns:svg="http://www.w3.org/2000/svg"
   xmlns="http://www.w3.org/2000/svg"
   xmlns:xlink="http://www.w3.org/1999/xlink"
   xmlns:sodipodi="http://sodipodi.sourceforge.net/DTD/sodipodi-0.dtd"
   xmlns:inkscape="http://www.inkscape.org/namespaces/inkscape"
   height="16"
   width="16"
   version="1.1"
   id="svg120"
   sodipodi:docname="safari-pinned-tab.svg"
   inkscape:version="1.0.2 (e86c870879, 2021-01-15)"
   inkscape:export-filename="/var/home/jimmac/public_html/blog.jimmac.eu/assets/favicons/mstile-150x150.png"
   inkscape:export-xdpi="80"
   inkscape:export-ydpi="80">
  <metadata
     id="metadata124">
    <rdf:RDF>
      <cc:Work
         rdf:about="">
        <dc:format>image/svg+xml</dc:format>
        <dc:type
           rdf:resource="http://purl.org/dc/dcmitype/StillImage" />
        <dc:title></dc:title>
      </cc:Work>
    </rdf:RDF>
  </metadata>
  <sodipodi:namedview
     pagecolor="#ffffff"
     bordercolor="#666666"
     borderopacity="1"
     objecttolerance="10"
     gridtolerance="10"
     guidetolerance="10"
     inkscape:pageopacity="0"
     inkscape:pageshadow="2"
     inkscape:window-width="640"
     inkscape:window-height="480"
     id="namedview122"
     showgrid="true"
     borderlayer="true"
     inkscape:showpageshadow="false"
     inkscape:snap-nodes="false"
     inkscape:snap-bbox="true"
     inkscape:current-layer="svg120"
     inkscape:document-rotation="0">
    <inkscape:grid
       type="xygrid"
       id="grid574" />
  </sodipodi:namedview>
  <defs
     id="defs24">
    <linearGradient
       id="c">
      <stop
         offset="0"
         stop-color="#fff"
         id="stop2" />
      <stop
         offset=".727"
         stop-color="#fff"
         id="stop4" />
      <stop
         offset="1"
         stop-color="#f6f5f4"
         id="stop6" />
    </linearGradient>
    <linearGradient
       xlink:href="#a"
       id="g"
       gradientUnits="userSpaceOnUse"
       x1="52.953999"
       y1="229.98399"
       x2="39.951"
       y2="223.42599"
       gradientTransform="matrix(-1,0,0,1,1180,257)" />
    <linearGradient
       id="a">
      <stop
         offset="0"
         stop-color="#4b4752"
         id="stop10" />
      <stop
         offset="1"
         stop-color="#4b4752"
         stop-opacity="0"
         id="stop12" />
    </linearGradient>
    <linearGradient
       xlink:href="#b"
       id="i"
       gradientUnits="userSpaceOnUse"
       gradientTransform="matrix(0.8,0,0,1,18.5,0)"
       x1="88.780998"
       y1="232.5"
       x2="94.5"
       y2="232.5" />
    <linearGradient
       id="b">
      <stop
         offset="0"
         stop-color="#3d3846"
         id="stop16" />
      <stop
         offset="1"
         stop-color="#3d3846"
         stop-opacity="0"
         id="stop18" />
    </linearGradient>
    <radialGradient
       xlink:href="#c"
       id="d"
       gradientUnits="userSpaceOnUse"
       gradientTransform="matrix(0.9088,0,0,0.9088,30.459,21.198)"
       cx="334"
       cy="231.209"
       fx="334"
       fy="231.209"
       r="7" />
    <radialGradient
       xlink:href="#c"
       id="e"
       gradientUnits="userSpaceOnUse"
       gradientTransform="matrix(0.9088,0,0,0.9088,30.459,21.198)"
       cx="334"
       cy="231.209"
       fx="334"
       fy="231.209"
       r="7" />
    <clipPath
       clipPathUnits="userSpaceOnUse"
       id="f" />
    <clipPath
       clipPathUnits="userSpaceOnUse"
       id="clipPath1017">
      <ellipse
         style="fill:#86664c;fill-opacity:1;stroke:none;stroke-width:1;stroke-opacity:1;stop-color:#000000"
         id="ellipse1019"
         cx="1116.744"
         cy="498.82642"
         rx="48.640701"
         ry="49.217495" />
    </clipPath>
    <radialGradient
       xlink:href="#c"
       id="d-3"
       gradientUnits="userSpaceOnUse"
       gradientTransform="matrix(0.9088,0,0,0.9088,30.459,21.198)"
       cx="334"
       cy="231.209"
       fx="334"
       fy="231.209"
       r="7" />
    <radialGradient
       xlink:href="#c"
       id="e-3"
       gradientUnits="userSpaceOnUse"
       gradientTransform="matrix(0.9088,0,0,0.9088,30.459,21.198)"
       cx="334"
       cy="231.209"
       fx="334"
       fy="231.209"
       r="7" />
  </defs>
  <g
     id="g1138"
     transform="translate(-29.978936,-94.031402)">
    <path
       style="fill:#ffffff;fill-opacity:1"
       d="m 45,109 h 1 v 1 h -1"
       id="path1650" />
    <path
       style="fill:#000000;fill-opacity:1"
       d="m 44,109 h 1 v 1 h -1"
       id="path1648" />
    <path
       style="fill:#000000;fill-opacity:1"
       d="M 43.25,109.25 44,109 v 1 h -1"
       id="path1646" />
    <path
       style="fill:#000000;fill-opacity:1"
       d="m 42,109 0.75,-0.25 0.5,0.5 L 43,110 h -1"
       id="path1644" />
    <path
       style="fill:#000000;fill-opacity:1"
       d="m 41,109 h 1 v 1 h -1"
       id="path1642" />
    <path
       style="fill:#000000;fill-opacity:1"
       d="m 40,109 h 1 v 1 h -1"
       id="path1640" />
    <path
       style="fill:#000000;fill-opacity:1"
       d="m 39,109 h 1 v 1 h -1"
       id="path1638" />
    <path
       style="fill:#000000;fill-opacity:1"
       d="m 38,109 h 1 v 1 h -1"
       id="path1636" />
    <path
       style="fill:#000000;fill-opacity:1"
       d="m 37,109 h 1 v 1 h -1"
       id="path1634" />
    <path
       style="fill:#000000;fill-opacity:1"
       d="m 35.75,109.25 0.5,-0.5 L 37,109 v 1 h -1"
       id="path1632" />
    <path
       style="fill:#000000;fill-opacity:1"
       d="m 35.25,109.25 h 0.5 L 36,110 h -1"
       id="path1630" />
    <path
       style="fill:#000000;fill-opacity:1"
       d="m 33.75,109.25 0.5,-0.5 h 0.5 l 0.5,0.5 L 35,110 h -1"
       id="path1628" />
    <path
       style="fill:#000000;fill-opacity:1"
       d="m 33.25,109.25 h 0.5 L 34,110 h -1"
       id="path1626" />
    <path
       style="fill:#000000;fill-opacity:1"
       d="m 31.75,109.25 0.5,-0.5 h 0.5 l 0.5,0.5 L 33,110 h -1"
       id="path1624" />
    <path
       style="fill:#000000;fill-opacity:1"
       d="m 31,109 0.75,0.25 L 32,110 h -1"
       id="path1622" />
    <path
       style="fill:#ffffff;fill-opacity:1"
       d="m 30,109 h 1 v 1 h -1"
       id="path1620" />
    <path
       style="fill:#ffffff;fill-opacity:1"
       d="m 45,108 h 1 v 1 h -1"
       id="path1618" />
    <path
       style="fill:#000000;fill-opacity:1"
       d="M 44.25,108.25 45,108 v 1 h -1"
       id="path1616" />
    <path
       style="fill:#000000;fill-opacity:1"
       d="m 43.25,108.25 0.5,-0.5 0.5,0.5 -0.25,0.75 -0.75,0.25 -0.5,-0.5"
       id="path1614" />
    <path
       style="fill:#ffffff;fill-opacity:1"
       d="m 42.25,108.25 0.5,-0.5 0.5,0.5 -0.5,0.5 L 42,109"
       id="path1612" />
    <path
       style="fill:#ffffff;fill-opacity:1"
       d="m 41,108 0.75,-0.25 0.5,0.5 L 42,109 h -1"
       id="path1610" />
    <path
       style="fill:#ffffff;fill-opacity:1"
       d="m 40,108 h 1 v 1 h -1"
       id="path1608" />
    <path
       style="fill:#ffffff;fill-opacity:1"
       d="m 38.75,108.25 0.5,-0.5 L 40,108 v 1 h -1"
       id="path1606" />
    <path
       style="fill:#ffffff;fill-opacity:1"
       d="m 38,108 0.75,0.25 L 39,109 h -1"
       id="path1604" />
    <path
       style="fill:#ffffff;fill-opacity:1"
       d="m 37,108 h 1 v 1 h -1"
       id="path1602" />
    <path
       style="fill:#ffffff;fill-opacity:1"
       d="m 35.75,108.25 0.5,-0.5 L 37,108 v 1 l -0.75,-0.25"
       id="path1600" />
    <path
       style="fill:#000000;fill-opacity:1"
       d="m 35.25,108.25 h 0.5 l 0.5,0.5 -0.5,0.5 h -0.5 l -0.5,-0.5"
       id="path1598" />
    <path
       style="fill:#ffffff;fill-opacity:1"
       d="m 33.75,108.25 0.5,-0.5 h 0.5 l 0.5,0.5 -0.5,0.5 h -0.5"
       id="path1596" />
    <path
       style="fill:#000000;fill-opacity:1"
       d="m 33.25,108.25 h 0.5 l 0.5,0.5 -0.5,0.5 h -0.5 l -0.5,-0.5"
       id="path1594" />
    <path
       style="fill:#ffffff;fill-opacity:1"
       d="m 32.25,108.25 0.5,-0.5 0.5,0.5 -0.5,0.5 h -0.5"
       id="path1592" />
    <path
       style="fill:#000000;fill-opacity:1"
       d="m 31,108 0.75,-0.25 0.5,0.5 v 0.5 l -0.5,0.5 L 31,109"
       id="path1590" />
    <path
       style="fill:#ffffff;fill-opacity:1"
       d="m 30,108 h 1 v 1 h -1"
       id="path1588" />
    <path
       style="fill:#ffffff;fill-opacity:1"
       d="m 45,107 h 1 v 1 h -1"
       id="path1586" />
    <path
       style="fill:#000000;fill-opacity:1"
       d="m 43.75,107.25 0.5,-0.5 L 45,107 v 1 l -0.75,0.25 -0.5,-0.5"
       id="path1584" />
    <path
       style="fill:#ffffff;fill-opacity:1"
       d="m 42.75,107.25 0.5,-0.5 0.5,0.5 v 0.5 l -0.5,0.5 -0.5,-0.5"
       id="path1582" />
    <path
       style="fill:#ffffff;fill-opacity:1"
       d="m 41.75,107.25 0.5,-0.5 0.5,0.5 v 0.5 l -0.5,0.5 -0.5,-0.5"
       id="path1580" />
    <path
       style="fill:#000000;fill-opacity:1"
       d="m 41,107 0.75,0.25 v 0.5 L 41,108"
       id="path1578" />
    <path
       style="fill:#000000;fill-opacity:1"
       d="m 40,107 h 1 v 1 h -1"
       id="path1576" />
    <path
       style="fill:#000000;fill-opacity:1"
       d="m 39,107 h 1 v 1 l -0.75,-0.25"
       id="path1574" />
    <path
       style="fill:#ffffff;fill-opacity:1"
       d="m 37.75,107.25 0.5,-0.5 0.75,0.25 0.25,0.75 -0.5,0.5 L 38,108"
       id="path1572" />
    <path
       style="fill:#ffffff;fill-opacity:1"
       d="m 37,107 0.75,0.25 L 38,108 h -1"
       id="path1570" />
    <path
       style="fill:#ffffff;fill-opacity:1"
       d="m 36,107 h 1 v 1 l -0.75,-0.25"
       id="path1568" />
    <path
       style="fill:#ffffff;fill-opacity:1"
       d="m 34.75,107.25 0.5,-0.5 0.75,0.25 0.25,0.75 -0.5,0.5 h -0.5 l -0.5,-0.5"
       id="path1566" />
    <path
       style="fill:#000000;fill-opacity:1"
       d="m 34,107 0.75,0.25 v 0.5 h -0.5"
       id="path1564" />
    <path
       style="fill:#ffffff;fill-opacity:1"
       d="M 33.25,107.25 34,107 l 0.25,0.75 -0.5,0.5 h -0.5 l -0.5,-0.5"
       id="path1562" />
    <path
       style="fill:#000000;fill-opacity:1"
       d="m 32,107 0.75,-0.25 0.5,0.5 -0.5,0.5 -0.5,0.5 -0.5,-0.5"
       id="path1560" />
    <path
       style="fill:#000000;fill-opacity:1"
       d="m 31,107 h 1 L 31.75,107.75 31,108"
       id="path1558" />
    <path
       style="fill:#ffffff;fill-opacity:1"
       d="m 30,107 h 1 v 1 h -1"
       id="path1556" />
    <path
       style="fill:#ffffff;fill-opacity:1"
       d="m 45,106 h 1 v 1 h -1"
       id="path1554" />
    <path
       style="fill:#000000;fill-opacity:1"
       d="m 44,106 h 1 v 1 l -0.75,-0.25"
       id="path1552" />
    <path
       style="fill:#000000;fill-opacity:1"
       d="m 43,106 h 1 l 0.25,0.75 -0.5,0.5 -0.5,-0.5"
       id="path1550" />
    <path
       style="fill:#ffffff;fill-opacity:1"
       d="M 42.25,106.25 43,106 l 0.25,0.75 -0.5,0.5 -0.5,-0.5"
       id="path1548" />
    <path
       style="fill:#ffffff;fill-opacity:1"
       d="m 41,106 0.75,-0.25 0.5,0.5 v 0.5 l -0.5,0.5 L 41,107"
       id="path1546" />
    <path
       style="fill:#ffffff;fill-opacity:1"
       d="m 40,106 h 1 v 1 h -1"
       id="path1544" />
    <path
       style="fill:#ffffff;fill-opacity:1"
       d="M 39.25,106.25 40,106 v 1 h -1"
       id="path1542" />
    <path
       style="fill:#000000;fill-opacity:1"
       d="m 38,106 0.75,-0.25 0.5,0.5 L 39,107 38.25,106.75"
       id="path1540" />
    <path
       style="fill:#ffffff;fill-opacity:1"
       d="m 37,106 h 1 l 0.25,0.75 -0.5,0.5 L 37,107"
       id="path1538" />
    <path
       style="fill:#ffffff;fill-opacity:1"
       d="m 36,106 h 1 v 1 h -1"
       id="path1536" />
    <path
       style="fill:#ffffff;fill-opacity:1"
       d="m 35,106 h 1 v 1 l -0.75,-0.25"
       id="path1534" />
    <path
       style="fill:#ffffff;fill-opacity:1"
       d="m 33.75,106.25 0.5,-0.5 0.75,0.25 0.25,0.75 -0.5,0.5 L 34,107"
       id="path1532" />
    <path
       style="fill:#000000;fill-opacity:1"
       d="m 33,106 0.75,0.25 0.25,0.75 -0.75,0.25 -0.5,-0.5"
       id="path1530" />
    <path
       style="fill:#000000;fill-opacity:1"
       d="m 32,106 h 1 L 32.75,106.75 32,107"
       id="path1528" />
    <path
       style="fill:#000000;fill-opacity:1"
       d="M 31.25,106.25 32,106 v 1 h -1"
       id="path1526" />
    <path
       style="fill:#ffffff;fill-opacity:1"
       d="m 30,106 0.75,-0.25 0.5,0.5 L 31,107 h -1"
       id="path1524" />
    <path
       style="fill:#ffffff;fill-opacity:1"
       d="M 45.25,105.25 46,105 v 1 h -1"
       id="path1522" />
    <path
       style="fill:#000000;fill-opacity:1"
       d="m 44,105 0.75,-0.25 0.5,0.5 L 45,106 h -1"
       id="path1520" />
    <path
       style="fill:#000000;fill-opacity:1"
       d="m 42.75,105.25 0.5,-0.5 L 44,105 v 1 h -1"
       id="path1518" />
    <path
       style="fill:#ffffff;fill-opacity:1"
       d="m 42.25,105.25 h 0.5 L 43,106 l -0.75,0.25 -0.5,-0.5"
       id="path1516" />
    <path
       style="fill:#000000;fill-opacity:1"
       d="m 41,105 0.75,-0.25 0.5,0.5 -0.5,0.5 L 41,106"
       id="path1514" />
    <path
       style="fill:#000000;fill-opacity:1"
       d="m 40,105 h 1 v 1 h -1"
       id="path1512" />
    <path
       style="fill:#000000;fill-opacity:1"
       d="m 39,105 h 1 v 1 l -0.75,0.25 -0.5,-0.5"
       id="path1510" />
    <path
       style="fill:#000000;fill-opacity:1"
       d="m 37.75,105.25 0.5,-0.5 L 39,105 38.75,105.75 38,106"
       id="path1508" />
    <path
       style="fill:#ffffff;fill-opacity:1"
       d="m 37,105 0.75,0.25 L 38,106 h -1"
       id="path1506" />
    <path
       style="fill:#ffffff;fill-opacity:1"
       d="m 36,105 h 1 v 1 h -1"
       id="path1504" />
    <path
       style="fill:#ffffff;fill-opacity:1"
       d="m 34.75,105.25 0.5,-0.5 L 36,105 v 1 h -1"
       id="path1502" />
    <path
       style="fill:#ffffff;fill-opacity:1"
       d="m 34,105 0.75,0.25 0.25,0.75 -0.75,-0.25"
       id="path1500" />
    <path
       style="fill:#ffffff;fill-opacity:1"
       d="M 33.25,105.25 34,105 l 0.25,0.75 -0.5,0.5 L 33,106"
       id="path1498" />
    <path
       style="fill:#ffffff;fill-opacity:1"
       d="m 31.75,105.25 0.5,-0.5 h 0.5 l 0.5,0.5 L 33,106 h -1"
       id="path1496" />
    <path
       style="fill:#ffffff;fill-opacity:1"
       d="m 31,105 0.75,0.25 0.25,0.75 -0.75,0.25 -0.5,-0.5"
       id="path1494" />
    <path
       style="fill:#000000;fill-opacity:1"
       d="m 30,105 h 1 L 30.75,105.75 30,106"
       id="path1492" />
    <path
       style="fill:#000000;fill-opacity:1"
       d="M 45.25,104.25 46,104 v 1 l -0.75,0.25 -0.5,-0.5"
       id="path1490" />
    <path
       style="fill:#000000;fill-opacity:1"
       d="m 44,104 0.75,-0.25 0.5,0.5 -0.5,0.5 L 44,105"
       id="path1488" />
    <path
       style="fill:#000000;fill-opacity:1"
       d="m 42.75,104.25 0.5,-0.5 L 44,104 v 1 l -0.75,-0.25"
       id="path1486" />
    <path
       style="fill:#000000;fill-opacity:1"
       d="m 42.25,104.25 h 0.5 l 0.5,0.5 -0.5,0.5 h -0.5 l -0.5,-0.5"
       id="path1484" />
    <path
       style="fill:#000000;fill-opacity:1"
       d="m 41,104 0.75,-0.25 0.5,0.5 -0.5,0.5 L 41,105"
       id="path1482" />
    <path
       style="fill:#000000;fill-opacity:1"
       d="m 40,104 h 1 v 1 h -1"
       id="path1480" />
    <path
       style="fill:#000000;fill-opacity:1"
       d="m 39,104 h 1 v 1 h -1"
       id="path1478" />
    <path
       style="fill:#000000;fill-opacity:1"
       d="m 37.75,104.25 0.5,-0.5 L 39,104 v 1 l -0.75,-0.25"
       id="path1476" />
    <path
       style="fill:#000000;fill-opacity:1"
       d="m 37,104 0.75,0.25 0.5,0.5 -0.5,0.5 L 37,105"
       id="path1474" />
    <path
       style="fill:#000000;fill-opacity:1"
       d="m 36,104 h 1 v 1 h -1"
       id="path1472" />
    <path
       style="fill:#000000;fill-opacity:1"
       d="m 34.75,104.25 0.5,-0.5 L 36,104 v 1 l -0.75,-0.25"
       id="path1470" />
    <path
       style="fill:#ffffff;fill-opacity:1"
       d="m 33.75,104.25 0.5,-0.5 0.5,0.5 0.5,0.5 -0.5,0.5 L 34,105"
       id="path1468" />
    <path
       style="fill:#ffffff;fill-opacity:1"
       d="m 32.75,104.25 0.5,-0.5 0.5,0.5 0.25,0.75 -0.75,0.25 -0.5,-0.5"
       id="path1466" />
    <path
       style="fill:#000000;fill-opacity:1"
       d="m 32.25,104.25 h 0.5 v 0.5 h -0.5"
       id="path1464" />
    <path
       style="fill:#ffffff;fill-opacity:1"
       d="m 31,104 0.75,-0.25 0.5,0.5 v 0.5 l -0.5,0.5 L 31,105"
       id="path1462" />
    <path
       style="fill:#000000;fill-opacity:1"
       d="m 30,104 h 1 v 1 h -1"
       id="path1460" />
    <path
       style="fill:#000000;fill-opacity:1"
       d="m 45,103 h 1 v 1 l -0.75,0.25 -0.5,-0.5"
       id="path1458" />
    <path
       style="fill:#ffffff;fill-opacity:1"
       d="m 44,103 h 1 L 44.75,103.75 44,104"
       id="path1456" />
    <path
       style="fill:#ffffff;fill-opacity:1"
       d="m 42.75,103.25 0.5,-0.5 L 44,103 v 1 l -0.75,-0.25"
       id="path1454" />
    <path
       style="fill:#000000;fill-opacity:1"
       d="m 42.25,103.25 h 0.5 l 0.5,0.5 -0.5,0.5 h -0.5 l -0.5,-0.5"
       id="path1452" />
    <path
       style="fill:#ffffff;fill-opacity:1"
       d="m 41,103 0.75,-0.25 0.5,0.5 -0.5,0.5 L 41,104"
       id="path1450" />
    <path
       style="fill:#ffffff;fill-opacity:1"
       d="m 40,103 h 1 v 1 h -1"
       id="path1448" />
    <path
       style="fill:#ffffff;fill-opacity:1"
       d="m 39,103 h 1 v 1 h -1"
       id="path1446" />
    <path
       style="fill:#ffffff;fill-opacity:1"
       d="m 37.75,103.25 0.5,-0.5 L 39,103 v 1 l -0.75,-0.25"
       id="path1444" />
    <path
       style="fill:#000000;fill-opacity:1"
       d="m 36.75,103.25 0.5,-0.5 0.5,0.5 0.5,0.5 -0.5,0.5 L 37,104"
       id="path1442" />
    <path
       style="fill:#000000;fill-opacity:1"
       d="m 36,103 0.75,0.25 L 37,104 h -1"
       id="path1440" />
    <path
       style="fill:#000000;fill-opacity:1"
       d="m 35,103 h 1 v 1 l -0.75,-0.25"
       id="path1438" />
    <path
       style="fill:#000000;fill-opacity:1"
       d="m 33.75,103.25 0.5,-0.5 0.75,0.25 0.25,0.75 -0.5,0.5 -0.5,-0.5"
       id="path1436" />
    <path
       style="fill:#ffffff;fill-opacity:1"
       d="m 33,103 0.75,0.25 0.5,0.5 -0.5,0.5 -0.5,-0.5"
       id="path1434" />
    <path
       style="fill:#ffffff;fill-opacity:1"
       d="m 32,103 h 1 l 0.25,0.75 -0.5,0.5 h -0.5 l -0.5,-0.5"
       id="path1432" />
    <path
       style="fill:#ffffff;fill-opacity:1"
       d="M 31.25,103.25 32,103 31.75,103.75 31,104"
       id="path1430" />
    <path
       style="fill:#000000;fill-opacity:1"
       d="m 30,103 0.75,-0.25 0.5,0.5 L 31,104 h -1"
       id="path1428" />
    <path
       style="fill:#000000;fill-opacity:1"
       d="m 45,102 h 1 v 1 h -1"
       id="path1426" />
    <path
       style="fill:#ffffff;fill-opacity:1"
       d="M 44.25,102.25 45,102 v 1 h -1"
       id="path1424" />
    <path
       style="fill:#ffffff;fill-opacity:1"
       d="m 42.75,102.25 0.5,-0.5 h 0.5 l 0.5,0.5 L 44,103 43.25,102.75"
       id="path1422" />
    <path
       style="fill:#ffffff;fill-opacity:1"
       d="m 42,102 0.75,0.25 0.5,0.5 -0.5,0.5 h -0.5 l -0.5,-0.5"
       id="path1420" />
    <path
       style="fill:#ffffff;fill-opacity:1"
       d="m 41,102 h 1 L 41.75,102.75 41,103"
       id="path1418" />
    <path
       style="fill:#ffffff;fill-opacity:1"
       d="m 40,102 h 1 v 1 h -1"
       id="path1416" />
    <path
       style="fill:#ffffff;fill-opacity:1"
       d="m 39,102 h 1 v 1 h -1"
       id="path1414" />
    <path
       style="fill:#ffffff;fill-opacity:1"
       d="m 38,102 h 1 v 1 l -0.75,-0.25"
       id="path1412" />
    <path
       style="fill:#ffffff;fill-opacity:1"
       d="m 37,102 h 1 l 0.25,0.75 -0.5,0.5 -0.5,-0.5"
       id="path1410" />
    <path
       style="fill:#000000;fill-opacity:1"
       d="m 36,102 h 1 l 0.25,0.75 -0.5,0.5 L 36,103"
       id="path1408" />
    <path
       style="fill:#000000;fill-opacity:1"
       d="m 35,102 h 1 v 1 h -1"
       id="path1406" />
    <path
       style="fill:#000000;fill-opacity:1"
       d="m 34,102 h 1 v 1 l -0.75,-0.25"
       id="path1404" />
    <path
       style="fill:#000000;fill-opacity:1"
       d="m 33,102 h 1 l 0.25,0.75 -0.5,0.5 L 33,103"
       id="path1402" />
    <path
       style="fill:#000000;fill-opacity:1"
       d="m 32,102 h 1 v 1 h -1"
       id="path1400" />
    <path
       style="fill:#000000;fill-opacity:1"
       d="m 31,102 h 1 v 1 l -0.75,0.25 -0.5,-0.5"
       id="path1398" />
    <path
       style="fill:#000000;fill-opacity:1"
       d="m 30,102 h 1 L 30.75,102.75 30,103"
       id="path1396" />
    <path
       style="fill:#000000;fill-opacity:1"
       d="m 44.75,101.25 0.5,-0.5 L 46,101 v 1 h -1"
       id="path1394" />
    <path
       style="fill:#ffffff;fill-opacity:1"
       d="m 44.25,101.25 h 0.5 L 45,102 l -0.75,0.25 -0.5,-0.5"
       id="path1392" />
    <path
       style="fill:#000000;fill-opacity:1"
       d="m 42.75,101.25 0.5,-0.5 h 0.5 l 0.5,0.5 -0.5,0.5 h -0.5"
       id="path1390" />
    <path
       style="fill:#ffffff;fill-opacity:1"
       d="m 42,101 0.75,0.25 0.5,0.5 -0.5,0.5 L 42,102"
       id="path1388" />
    <path
       style="fill:#ffffff;fill-opacity:1"
       d="m 41,101 h 1 v 1 h -1"
       id="path1386" />
    <path
       style="fill:#ffffff;fill-opacity:1"
       d="m 40,101 h 1 v 1 h -1"
       id="path1384" />
    <path
       style="fill:#ffffff;fill-opacity:1"
       d="m 39,101 h 1 v 1 h -1"
       id="path1382" />
    <path
       style="fill:#ffffff;fill-opacity:1"
       d="m 38,101 h 1 v 1 h -1"
       id="path1380" />
    <path
       style="fill:#ffffff;fill-opacity:1"
       d="M 37.25,101.25 38,101 v 1 h -1"
       id="path1378" />
    <path
       style="fill:#000000;fill-opacity:1"
       d="m 36,101 0.75,-0.25 0.5,0.5 L 37,102 h -1"
       id="path1376" />
    <path
       style="fill:#000000;fill-opacity:1"
       d="m 34.75,101.25 0.5,-0.5 L 36,101 v 1 h -1"
       id="path1374" />
    <path
       style="fill:#000000;fill-opacity:1"
       d="m 34,101 0.75,0.25 L 35,102 h -1"
       id="path1372" />
    <path
       style="fill:#000000;fill-opacity:1"
       d="m 33,101 h 1 v 1 h -1"
       id="path1370" />
    <path
       style="fill:#000000;fill-opacity:1"
       d="m 32,101 h 1 v 1 h -1"
       id="path1368" />
    <path
       style="fill:#000000;fill-opacity:1"
       d="M 31.25,101.25 32,101 v 1 h -1"
       id="path1366" />
    <path
       style="fill:#000000;fill-opacity:1"
       d="m 30,101 0.75,-0.25 0.5,0.5 L 31,102 h -1"
       id="path1364" />
    <path
       style="fill:#000000;fill-opacity:1"
       d="m 45,100 h 1 v 1 l -0.75,-0.25"
       id="path1362" />
    <path
       style="fill:#000000;fill-opacity:1"
       d="m 43.75,100.25 0.5,-0.5 0.75,0.25 0.25,0.75 -0.5,0.5 h -0.5 l -0.5,-0.5"
       id="path1360" />
    <path
       style="fill:#000000;fill-opacity:1"
       d="m 43.25,100.25 h 0.5 v 0.5 h -0.5"
       id="path1358" />
    <path
       style="fill:#000000;fill-opacity:1"
       d="m 42,100 0.75,-0.25 0.5,0.5 v 0.5 l -0.5,0.5 L 42,101"
       id="path1356" />
    <path
       style="fill:#000000;fill-opacity:1"
       d="m 41,100 h 1 v 1 h -1"
       id="path1354" />
    <path
       style="fill:#000000;fill-opacity:1"
       d="m 40,100 h 1 v 1 h -1"
       id="path1352" />
    <path
       style="fill:#000000;fill-opacity:1"
       d="m 39,100 h 1 v 1 h -1"
       id="path1350" />
    <path
       style="fill:#000000;fill-opacity:1"
       d="m 38,100 h 1 v 1 h -1"
       id="path1348" />
    <path
       style="fill:#000000;fill-opacity:1"
       d="M 37.25,100.25 38,100 v 1 l -0.75,0.25 -0.5,-0.5"
       id="path1346" />
    <path
       style="fill:#ffffff;fill-opacity:1"
       d="m 36,100 0.75,-0.25 0.5,0.5 -0.5,0.5 L 36,101"
       id="path1344" />
    <path
       style="fill:#ffffff;fill-opacity:1"
       d="m 35,100 h 1 v 1 l -0.75,-0.25"
       id="path1342" />
    <path
       style="fill:#000000;fill-opacity:1"
       d="m 34,100 h 1 l 0.25,0.75 -0.5,0.5 L 34,101"
       id="path1340" />
    <path
       style="fill:#000000;fill-opacity:1"
       d="m 33,100 h 1 v 1 h -1"
       id="path1338" />
    <path
       style="fill:#000000;fill-opacity:1"
       d="m 32,100 h 1 v 1 h -1"
       id="path1336" />
    <path
       style="fill:#000000;fill-opacity:1"
       d="m 31,100 h 1 v 1 l -0.75,0.25 -0.5,-0.5"
       id="path1334" />
    <path
       style="fill:#ffffff;fill-opacity:1"
       d="m 30,100 h 1 L 30.75,100.75 30,101"
       id="path1332" />
    <path
       style="fill:#ffffff;fill-opacity:1"
       d="m 45,99 h 1 v 1 h -1"
       id="path1330" />
    <path
       style="fill:#ffffff;fill-opacity:1"
       d="M 44.25,99.25 45,99 v 1 l -0.75,-0.25"
       id="path1328" />
    <path
       style="fill:#000000;fill-opacity:1"
       d="m 42.75,99.25 0.5,-0.5 h 0.5 l 0.5,0.5 v 0.5 l -0.5,0.5 h -0.5 l -0.5,-0.5"
       id="path1326" />
    <path
       style="fill:#ffffff;fill-opacity:1"
       d="m 42,99 0.75,0.25 v 0.5 L 42,100"
       id="path1324" />
    <path
       style="fill:#ffffff;fill-opacity:1"
       d="m 40.75,99.25 0.5,-0.5 L 42,99 v 1 h -1"
       id="path1322" />
    <path
       style="fill:#ffffff;fill-opacity:1"
       d="M 40,99 40.75,99.25 41,100 h -1"
       id="path1320" />
    <path
       style="fill:#ffffff;fill-opacity:1"
       d="m 39,99 h 1 v 1 h -1"
       id="path1318" />
    <path
       style="fill:#ffffff;fill-opacity:1"
       d="M 38.25,99.25 39,99 v 1 h -1"
       id="path1316" />
    <path
       style="fill:#ffffff;fill-opacity:1"
       d="m 36.75,99.25 0.5,-0.5 h 0.5 l 0.5,0.5 -0.25,0.75 -0.75,0.25 -0.5,-0.5"
       id="path1314" />
    <path
       style="fill:#ffffff;fill-opacity:1"
       d="m 36.25,99.25 h 0.5 v 0.5 L 36,100"
       id="path1312" />
    <path
       style="fill:#ffffff;fill-opacity:1"
       d="m 35.25,99.25 0.5,-0.5 0.5,0.5 L 36,100 h -1"
       id="path1310" />
    <path
       style="fill:#000000;fill-opacity:1"
       d="m 34,99 0.75,-0.25 0.5,0.5 L 35,100 h -1"
       id="path1308" />
    <path
       style="fill:#000000;fill-opacity:1"
       d="m 33,99 h 1 v 1 h -1"
       id="path1306" />
    <path
       style="fill:#000000;fill-opacity:1"
       d="m 32,99 h 1 v 1 h -1"
       id="path1304" />
    <path
       style="fill:#000000;fill-opacity:1"
       d="m 31,99 h 1 v 1 h -1"
       id="path1302" />
    <path
       style="fill:#ffffff;fill-opacity:1"
       d="m 30,99 h 1 v 1 h -1"
       id="path1300" />
    <path
       style="fill:#000000;fill-opacity:1"
       d="M 45.25,98.25 46,98 v 1 h -1"
       id="path1298" />
    <path
       style="fill:#000000;fill-opacity:1"
       d="m 44,98 0.75,-0.25 0.5,0.5 L 45,99 l -0.75,0.25 -0.5,-0.5"
       id="path1296" />
    <path
       style="fill:#000000;fill-opacity:1"
       d="m 43,98 h 1 l -0.25,0.75 h -0.5"
       id="path1294" />
    <path
       style="fill:#000000;fill-opacity:1"
       d="m 41.75,98.25 0.5,-0.5 0.75,0.25 0.25,0.75 -0.5,0.5 L 42,99"
       id="path1292" />
    <path
       style="fill:#000000;fill-opacity:1"
       d="m 40.75,98.25 0.5,-0.5 0.5,0.5 L 42,99 41.25,98.75"
       id="path1290" />
    <path
       style="fill:#ffffff;fill-opacity:1"
       d="m 39.75,98.25 0.5,-0.5 0.5,0.5 0.5,0.5 -0.5,0.5 L 40,99"
       id="path1288" />
    <path
       style="fill:#ffffff;fill-opacity:1"
       d="m 39.25,98.25 h 0.5 L 40,99 h -1"
       id="path1286" />
    <path
       style="fill:#ffffff;fill-opacity:1"
       d="m 38.25,98.25 0.5,-0.5 0.5,0.5 L 39,99 l -0.75,0.25 -0.5,-0.5"
       id="path1284" />
    <path
       style="fill:#000000;fill-opacity:1"
       d="m 37,98 0.75,-0.25 0.5,0.5 -0.5,0.5 h -0.5"
       id="path1282" />
    <path
       style="fill:#ffffff;fill-opacity:1"
       d="M 36.25,98.25 37,98 l 0.25,0.75 -0.5,0.5 h -0.5 l -0.5,-0.5"
       id="path1280" />
    <path
       style="fill:#000000;fill-opacity:1"
       d="m 35,98 0.75,-0.25 0.5,0.5 -0.5,0.5 -0.5,0.5 -0.5,-0.5"
       id="path1278" />
    <path
       style="fill:#000000;fill-opacity:1"
       d="m 34,98 h 1 L 34.75,98.75 34,99"
       id="path1276" />
    <path
       style="fill:#000000;fill-opacity:1"
       d="m 33,98 h 1 v 1 h -1"
       id="path1274" />
    <path
       style="fill:#000000;fill-opacity:1"
       d="m 32,98 h 1 v 1 h -1"
       id="path1272" />
    <path
       style="fill:#000000;fill-opacity:1"
       d="m 31,98 h 1 v 1 h -1"
       id="path1270" />
    <path
       style="fill:#ffffff;fill-opacity:1"
       d="m 30,98 h 1 v 1 h -1"
       id="path1268" />
    <path
       style="fill:#000000;fill-opacity:1"
       d="m 45,97 h 1 v 1 l -0.75,0.25 -0.5,-0.5"
       id="path1266" />
    <path
       style="fill:#ffffff;fill-opacity:1"
       d="m 44,97 h 1 L 44.75,97.75 44,98"
       id="path1264" />
    <path
       style="fill:#ffffff;fill-opacity:1"
       d="m 43,97 h 1 v 1 h -1"
       id="path1262" />
    <path
       style="fill:#ffffff;fill-opacity:1"
       d="m 42,97 h 1 v 1 l -0.75,-0.25"
       id="path1260" />
    <path
       style="fill:#000000;fill-opacity:1"
       d="M 41.25,97.25 42,97 l 0.25,0.75 -0.5,0.5 -0.5,-0.5"
       id="path1258" />
    <path
       style="fill:#000000;fill-opacity:1"
       d="m 40.25,97.25 0.5,-0.5 0.5,0.5 v 0.5 l -0.5,0.5 -0.5,-0.5"
       id="path1256" />
    <path
       style="fill:#ffffff;fill-opacity:1"
       d="m 38.75,97.25 0.5,-0.5 h 0.5 l 0.5,0.5 v 0.5 l -0.5,0.5 h -0.5 l -0.5,-0.5"
       id="path1254" />
    <path
       style="fill:#000000;fill-opacity:1"
       d="m 38.25,97.25 h 0.5 v 0.5 l -0.5,0.5 -0.5,-0.5"
       id="path1252" />
    <path
       style="fill:#ffffff;fill-opacity:1"
       d="m 37.25,97.25 0.5,-0.5 0.5,0.5 -0.5,0.5 L 37,98"
       id="path1250" />
    <path
       style="fill:#000000;fill-opacity:1"
       d="m 36,97 0.75,-0.25 0.5,0.5 L 37,98 l -0.75,0.25 -0.5,-0.5"
       id="path1248" />
    <path
       style="fill:#000000;fill-opacity:1"
       d="m 35,97 h 1 L 35.75,97.75 35,98"
       id="path1246" />
    <path
       style="fill:#000000;fill-opacity:1"
       d="m 34,97 h 1 v 1 h -1"
       id="path1244" />
    <path
       style="fill:#000000;fill-opacity:1"
       d="m 33,97 h 1 v 1 h -1"
       id="path1242" />
    <path
       style="fill:#000000;fill-opacity:1"
       d="m 32,97 h 1 v 1 h -1"
       id="path1240" />
    <path
       style="fill:#000000;fill-opacity:1"
       d="m 31,97 h 1 v 1 h -1"
       id="path1238" />
    <path
       style="fill:#ffffff;fill-opacity:1"
       d="m 30,97 h 1 v 1 h -1"
       id="path1236" />
    <path
       style="fill:#000000;fill-opacity:1"
       d="m 44.75,96.25 0.5,-0.5 L 46,96 v 1 h -1"
       id="path1234" />
    <path
       style="fill:#ffffff;fill-opacity:1"
       d="M 44,96 44.75,96.25 45,97 h -1"
       id="path1232" />
    <path
       style="fill:#ffffff;fill-opacity:1"
       d="m 43,96 h 1 v 1 h -1"
       id="path1230" />
    <path
       style="fill:#ffffff;fill-opacity:1"
       d="M 42.25,96.25 43,96 v 1 h -1"
       id="path1228" />
    <path
       style="fill:#000000;fill-opacity:1"
       d="m 40.75,96.25 0.5,-0.5 h 0.5 l 0.5,0.5 L 42,97 l -0.75,0.25 -0.5,-0.5"
       id="path1226" />
    <path
       style="fill:#ffffff;fill-opacity:1"
       d="m 40.25,96.25 h 0.5 v 0.5 l -0.5,0.5 -0.5,-0.5"
       id="path1224" />
    <path
       style="fill:#000000;fill-opacity:1"
       d="m 38.75,96.25 0.5,-0.5 h 0.5 l 0.5,0.5 -0.5,0.5 h -0.5"
       id="path1222" />
    <path
       style="fill:#ffffff;fill-opacity:1"
       d="m 38.25,96.25 h 0.5 l 0.5,0.5 -0.5,0.5 h -0.5 l -0.5,-0.5"
       id="path1220" />
    <path
       style="fill:#000000;fill-opacity:1"
       d="m 37,96 0.75,-0.25 0.5,0.5 -0.5,0.5 -0.5,0.5 -0.5,-0.5"
       id="path1218" />
    <path
       style="fill:#000000;fill-opacity:1"
       d="m 36,96 h 1 L 36.75,96.75 36,97"
       id="path1216" />
    <path
       style="fill:#000000;fill-opacity:1"
       d="m 35,96 h 1 v 1 h -1"
       id="path1214" />
    <path
       style="fill:#000000;fill-opacity:1"
       d="m 34,96 h 1 v 1 h -1"
       id="path1212" />
    <path
       style="fill:#000000;fill-opacity:1"
       d="m 33,96 h 1 v 1 h -1"
       id="path1210" />
    <path
       style="fill:#000000;fill-opacity:1"
       d="M 32.25,96.25 33,96 v 1 h -1"
       id="path1208" />
    <path
       style="fill:#000000;fill-opacity:1"
       d="m 31.25,96.25 0.5,-0.5 0.5,0.5 L 32,97 h -1"
       id="path1206" />
    <path
       style="fill:#ffffff;fill-opacity:1"
       d="m 30,96 0.75,-0.25 0.5,0.5 L 31,97 h -1"
       id="path1204" />
    <path
       style="fill:#ffffff;fill-opacity:1"
       d="m 44.75,95.25 0.5,-0.5 L 46,95 v 1 l -0.75,-0.25"
       id="path1202" />
    <path
       style="fill:#000000;fill-opacity:1"
       d="m 44,95 0.75,0.25 0.5,0.5 -0.5,0.5 L 44,96"
       id="path1200" />
    <path
       style="fill:#000000;fill-opacity:1"
       d="m 43,95 h 1 v 1 h -1"
       id="path1198" />
    <path
       style="fill:#000000;fill-opacity:1"
       d="m 42,95 h 1 v 1 l -0.75,0.25 -0.5,-0.5"
       id="path1196" />
    <path
       style="fill:#000000;fill-opacity:1"
       d="m 41,95 h 1 l -0.25,0.75 h -0.5"
       id="path1194" />
    <path
       style="fill:#000000;fill-opacity:1"
       d="m 40,95 h 1 l 0.25,0.75 -0.5,0.5 h -0.5 l -0.5,-0.5"
       id="path1192" />
    <path
       style="fill:#000000;fill-opacity:1"
       d="m 39,95 h 1 l -0.25,0.75 h -0.5"
       id="path1190" />
    <path
       style="fill:#000000;fill-opacity:1"
       d="m 38,95 h 1 l 0.25,0.75 -0.5,0.5 h -0.5 l -0.5,-0.5"
       id="path1188" />
    <path
       style="fill:#000000;fill-opacity:1"
       d="m 37,95 h 1 L 37.75,95.75 37,96"
       id="path1186" />
    <path
       style="fill:#000000;fill-opacity:1"
       d="m 36,95 h 1 v 1 h -1"
       id="path1184" />
    <path
       style="fill:#000000;fill-opacity:1"
       d="m 35,95 h 1 v 1 h -1"
       id="path1182" />
    <path
       style="fill:#000000;fill-opacity:1"
       d="m 34,95 h 1 v 1 h -1"
       id="path1180" />
    <path
       style="fill:#000000;fill-opacity:1"
       d="m 33,95 h 1 v 1 h -1"
       id="path1178" />
    <path
       style="fill:#000000;fill-opacity:1"
       d="M 32.25,95.25 33,95 v 1 l -0.75,0.25 -0.5,-0.5"
       id="path1176" />
    <path
       style="fill:#ffffff;fill-opacity:1"
       d="m 31,95 0.75,-0.25 0.5,0.5 -0.5,0.5 -0.5,0.5 -0.5,-0.5"
       id="path1174" />
    <path
       style="fill:#ffffff;fill-opacity:1"
       d="m 30,95 h 1 L 30.75,95.75 30,96"
       id="path1172" />
    <path
       style="fill:#ffffff;fill-opacity:1"
       d="m 45,94 h 1 v 1 l -0.75,-0.25"
       id="path1170" />
    <path
       style="fill:#ffffff;fill-opacity:1"
       d="m 44,94 h 1 l 0.25,0.75 -0.5,0.5 L 44,95"
       id="path1168" />
    <path
       style="fill:#ffffff;fill-opacity:1"
       d="m 43,94 h 1 v 1 h -1"
       id="path1166" />
    <path
       style="fill:#ffffff;fill-opacity:1"
       d="m 42,94 h 1 v 1 h -1"
       id="path1164" />
    <path
       style="fill:#ffffff;fill-opacity:1"
       d="m 41,94 h 1 v 1 h -1"
       id="path1162" />
    <path
       style="fill:#ffffff;fill-opacity:1"
       d="m 40,94 h 1 v 1 h -1"
       id="path1160" />
    <path
       style="fill:#ffffff;fill-opacity:1"
       d="m 39,94 h 1 v 1 h -1"
       id="path1158" />
    <path
       style="fill:#ffffff;fill-opacity:1"
       d="m 38,94 h 1 v 1 h -1"
       id="path1156" />
    <path
       style="fill:#ffffff;fill-opacity:1"
       d="m 37,94 h 1 v 1 h -1"
       id="path1154" />
    <path
       style="fill:#ffffff;fill-opacity:1"
       d="m 36,94 h 1 v 1 h -1"
       id="path1152" />
    <path
       style="fill:#ffffff;fill-opacity:1"
       d="m 35,94 h 1 v 1 h -1"
       id="path1150" />
    <path
       style="fill:#ffffff;fill-opacity:1"
       d="m 34,94 h 1 v 1 h -1"
       id="path1148" />
    <path
       style="fill:#ffffff;fill-opacity:1"
       d="m 33,94 h 1 v 1 h -1"
       id="path1146" />
    <path
       style="fill:#ffffff;fill-opacity:1"
       d="m 32,94 h 1 v 1 l -0.75,0.25 -0.5,-0.5"
       id="path1144" />
    <path
       style="fill:#ffffff;fill-opacity:1"
       d="m 31,94 h 1 L 31.75,94.75 31,95"
       id="path1142" />
    <path
       style="fill:#ffffff;fill-opacity:1"
       d="m 30,94 h 1 v 1 h -1"
       id="path1140" />
  </g>
</svg>
