<svg xmlns="http://www.w3.org/2000/svg" viewBox="0 0 400 400"><defs><clipPath id="a" clipPathUnits="userSpaceOnUse"><path d="M-103.139-28.898h276.674v223.252h-276.674Z"/></clipPath><clipPath id="b" clipPathUnits="userSpaceOnUse"><path d="M-183.906-27.712H92.768V195.54h-276.674Z"/></clipPath><clipPath id="c" clipPathUnits="userSpaceOnUse"><path d="M-97.728-68.907h276.674v223.252H-97.728Z"/></clipPath><clipPath id="d" clipPathUnits="userSpaceOnUse"><path d="M-98.958-68.907h276.674v223.252H-98.958Z"/></clipPath><clipPath id="e" clipPathUnits="userSpaceOnUse"><path d="M-98.23-73.274h276.674v223.252H-98.23Z"/></clipPath><clipPath id="f" clipPathUnits="userSpaceOnUse"><path d="M-102.465-74.492H174.21V148.76h-276.673Z"/></clipPath><clipPath id="g" clipPathUnits="userSpaceOnUse"><path d="M-169.113-155.422H107.56V67.83h-276.673Z"/></clipPath><clipPath id="h" clipPathUnits="userSpaceOnUse"><path d="M-156.467-156.034h276.674V67.218h-276.674Z"/></clipPath><clipPath id="i" clipPathUnits="userSpaceOnUse"><path d="M-103.984-155.422H172.69V67.83h-276.673Z"/></clipPath><clipPath id="j" clipPathUnits="userSpaceOnUse"><path d="M-119.848-156.111h276.674V67.141h-276.673Z"/></clipPath></defs><path d="M56.176 134.546v-.586h3.089v.586h-1.196v3.294h-.695v-3.294zm3.695 3.294v-3.88h1.45q.67 0 1.02.344.348.343.348.898 0 .393-.177.677-.177.284-.52.42l.84 1.541h-.778l-.763-1.425h-.724v1.425zm.696-2h.653q.394 0 .576-.164.182-.167.182-.474 0-.313-.182-.484-.182-.175-.58-.175h-.65zm4.145 2.06q-.677 0-1.08-.313-.401-.312-.425-.888h.685q.024.308.255.459.232.148.56.148.344 0 .56-.154.219-.156.219-.406 0-.226-.193-.34-.192-.118-.508-.199l-.44-.114q-.487-.125-.76-.378-.271-.253-.271-.664 0-.344.185-.599.185-.258.505-.401.32-.143.727-.143.414 0 .724.143.312.143.49.396.176.252.184.575h-.674q-.026-.247-.224-.385-.196-.138-.51-.138-.329 0-.516.146-.188.143-.188.364 0 .164.1.268.1.102.252.165.153.062.31.101l.362.094q.286.07.546.203.264.13.428.351.166.222.166.56 0 .342-.174.602-.175.258-.503.404-.328.143-.792.143zm3.451-.06v-3.88h1.047l.737 2.002q.039.115.088.3.052.182.105.393.052.208.096.401.044-.19.096-.398.052-.211.102-.394.052-.184.088-.302l.73-2.002H72.3v3.88h-.693v-1.958q0-.146.003-.36l.01-.458q.008-.242.01-.474-.064.25-.137.497-.073.248-.138.456-.065.208-.112.339l-.716 1.958h-.592l-.726-1.958q-.047-.125-.112-.328-.063-.204-.136-.448l-.143-.495.01.458q.008.237.011.45.005.214.005.363v1.958zm5.615-3.88v3.88h-.696v-3.88zm2.093 3.88H74.56v-3.88h1.338q.578 0 .993.234.416.232.638.667.22.432.22 1.034 0 .606-.223 1.044-.221.435-.643.67-.42.231-1.01.231zm-.617-.602h.583q1.227 0 1.227-1.343 0-1.334-1.208-1.334h-.602Zm3.852-3.278v3.88h-.696v-3.88zm2.82 0v3.88h-.695v-3.88zm.781 3.88v-3.88h.787l1.34 2.138q.105.166.227.39.123.222.25.513-.02-.28-.03-.554-.011-.274-.011-.45v-2.037h.705v3.88h-.789l-1.21-1.924q-.102-.162-.193-.32-.089-.16-.188-.347-.099-.188-.229-.44l.034.65q.016.292.016.454v1.927z" aria-label="TRS MIDI IN" style="font-weight:600;font-size:5.33333px;line-height:1.25;font-family:Inter;-inkscape-font-specification:&quot;Inter, Semi-Bold&quot;;letter-spacing:0;word-spacing:0;fill:#9a9996;stroke-width:2;stroke-linecap:round;stroke-linejoin:round;paint-order:markers fill stroke"/><path d="M116.506 89.252v-.585h3.088v.585H118.4v3.295h-.695v-3.295zm3.695 3.295v-3.88h1.45q.67 0 1.019.343.349.344.349.899 0 .393-.177.677-.177.284-.521.419l.841 1.542h-.779l-.763-1.425h-.723v1.425zm.696-2h.653q.393 0 .576-.164.182-.167.182-.474 0-.313-.182-.485-.183-.174-.581-.174h-.648zm4.145 2.06q-.677 0-1.08-.313-.401-.312-.425-.888h.685q.023.307.255.458.232.149.56.149.344 0 .56-.154.219-.156.219-.406 0-.227-.193-.341-.193-.117-.508-.198l-.44-.115q-.487-.125-.76-.377-.271-.253-.271-.664 0-.344.185-.6.185-.257.505-.4.32-.144.727-.144.414 0 .724.144.312.143.49.395.176.253.184.576h-.674q-.026-.247-.224-.385-.196-.138-.51-.138-.329 0-.516.145-.188.144-.188.365 0 .164.099.268.102.102.253.164.153.063.31.102l.362.094q.286.07.546.203.263.13.427.351.167.222.167.56 0 .341-.174.602-.175.258-.503.403-.328.144-.792.144zm3.45-.06v-3.88h1.048l.737 2.002q.039.115.088.3.052.182.104.393.053.208.097.4.044-.19.096-.398.052-.21.102-.393.052-.185.088-.302l.73-2.002h1.049v3.88h-.693v-1.959q0-.145.003-.359l.01-.458q.009-.243.011-.474-.065.25-.138.497-.073.248-.138.456-.065.208-.112.338l-.716 1.959h-.591l-.727-1.959q-.047-.125-.112-.328l-.135-.448-.143-.494.01.458q.008.237.01.45.005.214.005.362v1.959zm5.615-3.88v3.88h-.695v-3.88zm2.094 3.88h-1.312v-3.88h1.338q.578 0 .992.234.417.232.638.667.222.432.222 1.033 0 .607-.224 1.045-.222.435-.643.669-.42.232-1.01.232zm-.617-.602h.583q1.227 0 1.227-1.344 0-1.333-1.208-1.333h-.602zm3.852-3.278v3.88h-.696v-3.88zm3.786 3.932q-.51 0-.914-.237-.401-.237-.635-.682-.235-.446-.235-1.07 0-.628.235-1.074.234-.448.635-.685.404-.237.914-.237.508 0 .909.237.404.237.635.685.235.446.235 1.073 0 .628-.235 1.073-.231.443-.635.68-.401.237-.909.237zm0-.623q.474 0 .776-.351.302-.352.302-1.016 0-.666-.302-1.018-.302-.354-.776-.354-.477 0-.781.354-.305.352-.305 1.018 0 .662.305 1.016.304.351.781.351zm4.01.628q-.474 0-.828-.177-.354-.18-.55-.495-.194-.318-.194-.732v-2.533h.695v2.476q0 .365.237.602.24.237.64.237.401 0 .638-.237.24-.237.24-.602v-2.476h.695V91.2q0 .414-.198.732-.195.315-.549.495-.354.177-.826.177zm2.178-3.352v-.585h3.088v.585h-1.195v3.295h-.696v-3.295z" aria-label="TRS MIDI OUT" style="font-weight:600;font-size:5.33333px;line-height:1.25;font-family:Inter;-inkscape-font-specification:&quot;Inter, Semi-Bold&quot;;letter-spacing:0;word-spacing:0;fill:#9a9996;stroke-width:2;stroke-linecap:round;stroke-linejoin:round;paint-order:markers fill stroke"/><path d="M105.772 96.637V58.73a11.08 11.08 135 0 1 11.08-11.08H339.52a11.08 11.08 45 0 1 11.08 11.08v209.716" style="fill:none;fill-opacity:1;stroke:#3584e4;stroke-width:3;stroke-linecap:round;stroke-linejoin:round;stroke-dasharray:none;stroke-opacity:1;paint-order:markers fill stroke"/><path d="M90.582 126.637H86.22a17.651 17.651 45 0 1-17.651-17.652v-59.4A17.651 17.651 135 0 1 86.22 31.932h256.633a17.651 17.651 45 0 1 17.651 17.651v218.862" style="opacity:.893016;fill:none;fill-opacity:1;stroke:#33d17a;stroke-width:3;stroke-linecap:round;stroke-linejoin:round;stroke-dasharray:none;stroke-opacity:1;paint-order:markers fill stroke"/><g style="stroke-width:1.90811"><path d="M0 0h12.551a4.772 4.772 0 0 0 4.773-4.772v-22.58c-1.355-1.354-2.449-1.83-2.449-4.253v-18.871c0-3.949.618-3.312 2.449-5.362v-101.283a4.772 4.772 0 0 0-4.773-4.772h-107.03a4.771 4.771 0 0 0-4.771 4.772v101.283c1.831 2.05 2.449 1.413 2.449 5.362v18.871c0 2.423-1.095 2.899-2.449 4.253v22.58A4.771 4.771 0 0 0-94.479 0h12.552c1.355-1.354 1.831-2.449 4.254-2.449h72.311C-1.413-2.449-2.051-1.83 0 0Z" style="fill:#5e5c64;fill-opacity:1;stroke:#241f31;stroke-width:4.29325;stroke-linecap:round;stroke-linejoin:round;stroke-miterlimit:10;stroke-dasharray:none;stroke-opacity:1" transform="matrix(.69854 0 0 -.699 366.615 266.837)"/><path d="m325.846 204.659-6.463-6.492H206l-6.492 6.508.056 73.06 6.454 6.448 113.382.049 6.447-6.497z" style="fill:#3d3846;stroke:none;stroke-width:.763244;stroke-linecap:round;stroke-linejoin:round;stroke-miterlimit:10;stroke-dasharray:none;stroke-opacity:.278061" transform="matrix(.5239 0 0 .52425 200.326 169.698)"/><path d="M213.928 282.66h97.713a5.951 5.951 135 0 0 5.951-5.95v-70.27a5.951 5.951 45 0 0-5.951-5.952h-97.713a5.951 5.951 135 0 0-5.95 5.951v70.27a5.951 5.951 45 0 0 5.95 5.951z" style="fill:#241f31;stroke:none;stroke-width:.763244;stroke-linecap:round;stroke-linejoin:round;stroke-miterlimit:10;stroke-dasharray:none;stroke-opacity:1" transform="matrix(.5239 0 0 .52425 200.326 169.698)"/><path d="m297.886 218.01-1.72.858 1.719.861zM304.122 220.996l-1.72.856 1.716.863zM304.12 226.648l-1.72.859 1.72.86zM304.743 263.959l-1.718.858 1.717.86z" style="fill:#000;fill-opacity:1;fill-rule:evenodd;stroke:none;stroke-width:2.54414" transform="matrix(.5239 0 0 .52425 200.326 169.698)"/><path d="M213.23 215.135h1.154v-.29h-1.155zm-.289.577h.29v-.577h-.29zm2.308.867h.29v-1.444h-.29zm-2.02-.578h.867v-.289h-.867zm.867.578h.29V216h-.29zm-1.155.289h1.155v-.29h-1.155zm2.599 0h.867v-.29h-.867zm0-1.733h.867v-.29h-.867zm2.31.289h.289v-.29h-.288v-.287h-.29v2.021h.29zm-1.443 1.155h.289v-1.444h-.29zm1.732-.867h.289v-.29h-.29zm.288.29h.29v.866h.288v-2.021h-.288v.865h-.29zm1.734-.867h.867v-.29h-.867zm-.289 1.444h.29v-1.444h-.29zm1.155-1.155h.289v-.29h-.29zm.289 1.155V216h-.579v.29h.29v.288zm-1.155.289h.867v-.29h-.867z" style="fill:#4287bf;fill-opacity:1;fill-rule:nonzero;stroke:none;stroke-width:2.54414" transform="matrix(.5239 0 0 .52425 200.326 169.698)"/><path d="M212.941 228.42h1.444v-2.021h-1.444zm.288-.29v-.287h.29v-.29h-.29v-.866h.867v.289h-.29v.288h.29v.867zm-.288 3.178h1.444v-2.021h-1.444zm1.155-.29h-.867v-.287h.29v-.29h-.29v-.866h.867v.289h-.29v.288h.29zm-1.155 3.178h1.444v-2.021h-1.444zm.866-1.155h.289v.866h-.867v-.288h.29v-.29h-.29v-.866h.867v.289h-.29zm-.866 4.043h1.444v-2.021h-1.444zm1.155-.29h-.867v-.287h.29v-.29h-.29v-.866h.867v.289h-.29v.29h.29zm-1.155 3.178h1.444v-2.021h-1.444zm.288-.29v-.287h.29v-.29h-.29v-.866h.867v.289h-.29v.29h.29v.865zm-.288 3.178h1.444v-2.021h-1.444zm.288-1.733h.867v.289h-.29v.29h.29v.865h-.867v-.288h.29v-.29h-.29zm-.288 4.621h1.444v-2.021h-1.444zm1.155-.29h-.867v-.287h.29v-.29h-.29v-.866h.867v.289h-.29v.29h.29zm-1.155 3.178h1.444v-2.021h-1.444zm.578-.867h-.29v-.866h.867v.289h-.29v.29h.29v.865h-.867v-.288h.29zm-.578 3.755h1.444v-2.021h-1.444zm1.155-.29h-.867v-.287h.29v-.29h-.29v-.866h.867v.289h-.29v.29h.29zm-1.155 3.178h1.444v-2.021h-1.444zm.578-.867h-.29v-.866h.867v.289h-.29v.29h.29v.865h-.867v-.288h.29zm-.578 3.755h1.444v-2.021h-1.444zm1.155-.29h-.867v-.287h.29v-.29h-.29v-.866h.867v.289h-.29v.29h.29zm-1.155 3.178h1.444v-2.021h-1.444zm1.155-.29h-.867v-.287h.29v-.29h-.29v-.866h.867v.289h-.29v.29h.29zm-1.155 3.178h1.444v-2.021h-1.444zm1.155-.29h-.867v-.287h.29v-.29h-.29v-.866h.867v.289h-.29v.29h.29zm-1.155 3.178h1.444v-2.021h-1.444zm.288-.29v-.287h.29v-.29h-.29v-.866h.867v.289h-.29v.29h.29v.865zm-.288 3.178h1.444v-2.021h-1.444zm1.155-.288h-.867v-.29h.29v-.289h-.29v-.866h.867v.289h-.29v.29h.29zm-.577-41.01h.289v-.29h-.29zm0 2.887h.289v-.289h-.29zm0 2.888h.289v-.289h-.29zm0 2.888h.289v-.289h-.29zm0 2.888h.289v-.289h-.29zm0 2.888h.289v-.289h-.29zm0 2.888h.289v-.289h-.29zm0 2.888h.289v-.289h-.29zm0 2.888h.289v-.289h-.29zm0 2.888h.289v-.289h-.29zm0 2.888h.289v-.289h-.29zm0 2.888h.289v-.289h-.29zm0 2.888h.289v-.289h-.29zm0 2.888h.289v-.289h-.29zm0 2.888h.289v-.289h-.29zm2.31-41.009v1.155h-.58v.289h1.446v-.29h-.578V226.4h-.288v.288h-.58v.289zm.578 2.599v.577h-1.158v1.156h1.446v-.29h-1.155v-.577h1.155v-1.154h-1.446v.288zm-1.158 2.888h1.158v.578h-1.158v.288h1.158v.578h-1.158v.289h1.446v-2.021h-1.446zm0 2.6v1.154h1.158v.867h.288v-2.021h-.288v.866h-.867v-.866zm1.158 4.042v.578h-1.158v.289h1.446v-1.155h-1.155v-.578h1.155v-.288h-1.446v1.154zm-1.158 1.734v2.021h1.446v-1.155h-1.155v-.578h1.155v-.288zm.291 1.154h.867v.578h-.867zm.867 2.022v.578h.288v-.866h-1.446v.288zm-1.158 4.621h1.158v-.29h.288v-1.731h-1.155v.288h-.29zm1.158-.29h-.867v-.577h.867zm-.867-1.443h.867v.578h-.867zm-.29 2.6v1.154h1.157v.867h.288v-2.021zm.29.288h.867v.578h-.867zm0 2.888h.867v-.29h-.867zm0 1.733v-.867h.867v.867h.288v-1.733h-.288v.578h-.867v-.578h-.29v1.733zm-.29 2.888h1.157v-.29h-.867v-.577h.867v-.288h-.867v-.578h.867v-.288h-1.158zm0 2.599h.289v-1.444h-.29zm0 3.177h1.157v-.29h-.867v-1.443h.867v-.288h-1.158zm0 2.888h1.445v-.29h-1.155v-.577h.867v-.288h-.867v-.578h1.155v-.288h-1.446zm0 .867v2.021h.29v-.867h.867v-.288h-.867v-.578h1.155v-.288zm.867-21.95h.29v-.289h-.29zm-.288.867h.29v-.867h-.29zm-.289 12.707h.867v-.29h-.867zm0 1.733h.867v-.29h-.867zm19.35-39.277v.577h-1.155v.29h1.154v.577h-1.154v.289h1.444v-2.021h-1.444v.288zm-6.931.577h-1.156v1.156h1.444v-.29h-1.155v-.577h1.155v-1.154h-1.444v.288h1.156zm-11.552 34.657h.289v-.577h-.29zm0 .866h.289v-.578h-.29zm0 1.733h.289v-.29h-.29zm0 1.155h.289v-.29h-.29zm0 2.888h.289v-1.444h-.29zm45.053-41.876h1.155v.577h.289v-.865h-1.444zm-20.795.866h1.156v.867h.288v-2.021h-.288v.865h-.866v-.865h-.29zm27.726-.866v1.733h1.154v-.29h.29v-1.731h-1.155v.288zm1.154 1.444h-.865v-.578h.865zm-.865-1.444h.865v.577h-.865zm-19.639-.288h-1.444v1.154h1.155v.578h-1.155v.289h1.444v-1.156h-1.156v-.577h1.156zm5.487 0v2.021h1.444v-1.156h-1.155v-.577h1.155v-.288zm.29 1.154h.866v.578h-.867zm7.506 0h.29v-.289h-.29zm-.287.867h.29v-.867h-.29zm28.591 8.664v-.29h-1.155v-.577h1.155v-1.154h-1.444v.288h1.156v.577h-1.156v1.156zm-.288 1.155v.578h-1.156v.288h1.156v.578h-1.156v.289h1.444v-2.021h-1.444v.288zm-1.156 11.552h1.156v.578h.288v-.866h-1.444zm0 4.621h1.156v-.29h.288v-1.731h-1.155v.288h-.289zm1.156-.29h-.867v-.577h.867zm-.867-1.443h.867v.578h-.867zm-.289 4.621v3.177h.29v.288h11.84v-.288h.289v-3.177zm.29 3.177v-2.888h1.154v1.444h.865v-1.444h.868v1.444h.867v-1.444h1.153v2.888h-1.442v-1.156h-.288v1.156h-1.444v-1.156h-.291v1.156zm11.84 0h-1.443v-1.156h-.29v1.156h-1.444v-1.156h-.289v1.156h-1.444v-1.156h-.288v1.156h-1.444v-2.888h1.155v1.444h.866v-1.444h.867v1.444h.867v-1.444h.865v1.444h.865v-1.444h1.158zm-12.13 6.354v2.021h.29v-.867h.866v-.288h-.867v-.578h.867v-.288zm0 6.93h.29v-1.154h-.29zm0-48.806h.29v.288h3.754v-.288h.288v-.579h-.288v-.288h-3.755v.288h-.289zm.867 3.465v-1.733h.577v-.288h-1.444v.288h.579v1.733zm-.867 13.573h1.156v.867h.288v-2.021h-.288v.866h-.867v-.866h-.289zm1.156 2.888v.578h-1.156v.289h1.444v-1.155h-1.155v-.578h1.155v-.288h-1.444v1.154zm-1.156 1.734v2.021h1.444v-1.155h-1.155v-.578h1.155v-.288zm.29 1.154h.866v.578h-.867zm.577 2.888h.289v-.289h-.29zm-.288.867h.289v-.867h-.29zm-.29 22.816h.29v-.577h-.29zm.29.288h.289v-.29h-.29zm.577-6.93h.29v-.578h-.29zm0 6.063h.29v-1.154h-.29zm-.29.579h.29v-.577h-.29zm2.022-46.21v-.287h.29v-.29h.289v-.289h-.29v-.288h-.289v-.29h-.288v1.445zm2.31-1.154v1.155h-.577v.289h1.444v-.29h-.577v-1.731h-.29v.288h-.577v.289zm-2.598 43.03h.867v-.289h-.867zm2.021-.287v2.021h.29v-.867h.865v-.288h-.865v-.578h.865v-.288zm-1.154.577h.289v-.29h-.29zm-1.158 1.155h.29v-1.444h-.29zm1.158 0h.289v-.29h-.29zm-.867.289h.867v-.29h-.867zm5.485-45.053v.577h-1.153v1.156h1.444v-.29h-1.156v-.577h1.156v-1.154h-1.444v.288zm-1.153 43.32h.577v1.444h-.577v.289h1.444v-.29h-.577v-1.443h.577v-.288h-1.444zm-1.156.578h.29v-.577h-.29zm3.467-42.165h1.444v-2.021h-1.444zm.865-1.156h.29v.867h-.867v-.288h.289v-.29h-.29v-.866h.867v.289h-.289zm-.288.29h.29v-.29h-.29zm0 42.453v1.733h.288v-1.733h.579v-.288h-1.444v.288z" style="fill:#6b6b6d;fill-opacity:1;fill-rule:nonzero;stroke:none;stroke-width:2.54414" transform="matrix(.5239 0 0 .52425 200.326 169.698)"/><path d="M212.941 225.532h1.444v-2.021h-1.444zm.288-1.733h.867v.289h-.29v.288h.29v.867h-.867v-.288h.29v-.29h-.29zm2.02 1.733h1.444v-2.021h-1.444zm.291-.29v-.287h.29v-.29h-.29v-.866h.867v.289h-.29v.288h.29v.867zm-2.021-.577h.289v-.289h-.29zm2.31 0h.29v-.289h-.29zm4.62-3.465v1.155h-.577v.289h1.444v-.29h-.579v-1.731h-.288v.288h-.577v.289zm-1.444 1.732v.867h.29v-.288h.288v-.29h.289v-.289zm.867 2.6h1.444v-2.021h-1.444zm1.155-.29h-.866v-.287h.288v-.29h-.288v-.866h.866v.289h-.29v.288h.29zm-1.732.29v-.29h-.29v.867h.867v-.289h-.29v-.288zm4.62-2.31v.289h.288v.288h.29v-.867h-.866v.29zm-1.732 2.31h1.444v-2.021h-1.444zm.577-.867h-.29v-.866h.867v.289h-.289v.288h.29v.867h-.867v-.288h.289zm-2.31 0h.289v-.289h-.29zm2.31 0h.29v-.289h-.29zm.867 1.444h.866v-.866h-.29v.289h-.288v.288h-.288zm65.557.867h.579v1.155h-.579v.289h1.444v-.29h-.577V226.4h-.288v.288h-.579zm.29 37.255h1.154v-.29h-1.155zm-.29.578h.29v-.577h-.29zm.29.288h.866v-.289h-.867zm.866.578h.29v-.578h-.29zm-1.156.289h1.155v-.29h-1.155z" style="fill:#af2075;fill-opacity:1;fill-rule:nonzero;stroke:none;stroke-width:2.54414" transform="matrix(.5239 0 0 .52425 200.326 169.698)"/><path d="M222.183 227.553h1.444v-.289h-1.444zm-2.311 0h1.444v-.289h-1.444zm0 2.888h1.444v-.289h-1.444zm2.31 0h1.445v-.289h-1.444zm-2.31 2.888h1.444v-.289h-1.444zm2.31 0h1.445v-.289h-1.444zm0 2.888h1.445v-.289h-1.444zm-2.31 0h1.444v-.289h-1.444zm0 2.888h1.444v-.289h-1.444zm2.31 0h1.445v-.289h-1.444zm-2.31 2.888h1.444v-.289h-1.444zm2.31 0h1.445v-.289h-1.444zm-2.31 2.888h1.444v-.289h-1.444zm2.31 0h1.445v-.289h-1.444zm0 2.888h1.445v-.289h-1.444zm-2.31 0h1.444v-.289h-1.444zm0 2.888h1.444v-.289h-1.444zm2.31 0h1.445v-.289h-1.444zm-2.31 2.888h1.444v-.289h-1.444zm2.31 0h1.445v-.289h-1.444zm-2.31 2.888h1.444v-.289h-1.444zm2.31 0h1.445v-.289h-1.444zm-2.31 2.888h1.444v-.289h-1.444zm2.31 0h1.445v-.289h-1.444zm0 2.888h1.445v-.289h-1.444zm-2.31 0h1.444v-.289h-1.444zm0 2.888h1.444v-.289h-1.444zm2.31 0h1.445v-.289h-1.444zm-2.31 2.888h1.444v-.289h-1.444zm2.31 0h1.445v-.289h-1.444zm4.62-43.32h1.445v-.289h-1.444zm2.311 2.888h1.444v-.289h-1.444zm-2.31 0h1.444v-.289h-1.444zm0 2.888h1.444v-.289h-1.444zm0 2.888h1.444v-.289h-1.444zm0 2.888h1.444v-.289h-1.444zm0 2.888h1.444v-.289h-1.444zm0 2.888h1.444v-.289h-1.444zm0 2.888h1.444v-.289h-1.444zm0 2.888h1.444v-.289h-1.444zm2.31 0h1.444v-.289h-1.444zm-2.31 2.888h1.444v-.289h-1.444zm0 2.888h1.444v-.289h-1.444zm0 2.888h1.444v-.289h-1.444zm0 2.888h1.444v-.289h-1.444zm0 2.888h1.444v-.289h-1.444zm0 2.888h1.444v-.289h-1.444zm0 2.888h1.444v-.289h-1.444zm6.932-43.32h1.444v-.289h-1.444zm-4.622 0h1.444v-.289h-1.444zm4.622 2.888h1.444v-.289h-1.444zm-4.622 2.888h1.444v-.289h-1.444zm4.622 0h1.444v-.289h-1.444zm-4.622 2.888h1.444v-.289h-1.444zm4.622 0h1.444v-.289h-1.444zm-4.622 2.888h1.444v-.289h-1.444zm4.622 0h1.444v-.289h-1.444zm0 2.888h1.444v-.289h-1.444zm-4.622 0h1.444v-.289h-1.444zm0 2.888h1.444v-.289h-1.444zm4.622 0h1.444v-.289h-1.444zm-4.622 2.888h1.444v-.289h-1.444zm4.622 0h1.444v-.289h-1.444zm0 2.888h1.444v-.289h-1.444zm-4.622 2.888h1.444v-.289h-1.444zm4.622 0h1.444v-.289h-1.444zm-4.622 2.888h1.444v-.289h-1.444zm4.622 0h1.444v-.289h-1.444zm0 2.888h1.444v-.289h-1.444zm-4.622 0h1.444v-.289h-1.444zm0 2.888h1.444v-.289h-1.444zm4.622 0h1.444v-.289h-1.444zm-4.622 2.888h1.444v-.289h-1.444zm4.622 0h1.444v-.289h-1.444zm-4.622 2.888h1.444v-.289h-1.444zm4.622 0h1.444v-.289h-1.444zm0 2.888h1.444v-.289h-1.444zm-4.622 0h1.444v-.289h-1.444zm6.932-43.32h1.444v-.289h-1.444zm0 2.888h1.444v-.289h-1.444zm0 2.888h1.444v-.289h-1.444zm0 2.888h1.444v-.289h-1.444zm0 2.888h1.444v-.289h-1.444zm0 2.888h1.444v-.289h-1.444zm0 2.888h1.444v-.289h-1.444zm0 2.888h1.444v-.289h-1.444zm0 2.888h1.444v-.289h-1.444zm0 2.888h1.444v-.289h-1.444zm0 2.888h1.444v-.289h-1.444zm0 2.888h1.444v-.289h-1.444zm0 2.888h1.444v-.289h-1.444zm0 2.888h1.444v-.289h-1.444zm0 2.888h1.444v-.289h-1.444zm0 2.888h1.444v-.289h-1.444zm4.62-43.32h1.444v-.289h-1.444zm2.311 0h1.444v-.289h-1.444zm0 2.888h1.444v-.289h-1.444zm-2.31 0h1.443v-.289h-1.444zm0 2.888h1.443v-.289h-1.444zm2.31 0h1.444v-.289h-1.444zm-2.31 2.888h1.443v-.289h-1.444zm2.31 0h1.444v-.289h-1.444zm-2.31 2.888h1.443v-.289h-1.444zm2.31 0h1.444v-.289h-1.444zm-2.31 2.888h1.443v-.289h-1.444zm2.31 0h1.444v-.289h-1.444zm-2.31 2.888h1.443v-.289h-1.444zm2.31 0h1.444v-.289h-1.444zm-2.31 2.888h1.443v-.289h-1.444zm2.31 0h1.444v-.289h-1.444zm-2.31 2.888h1.443v-.289h-1.444zm2.31 0h1.444v-.289h-1.444zm0 2.888h1.444v-.289h-1.444zm-2.31 0h1.443v-.289h-1.444zm0 2.888h1.443v-.289h-1.444zm2.31 0h1.444v-.289h-1.444zm-2.31 2.888h1.443v-.289h-1.444zm2.31 0h1.444v-.289h-1.444zm-2.31 2.888h1.443v-.289h-1.444zm2.31 0h1.444v-.289h-1.444zm-2.31 2.888h1.443v-.289h-1.444zm2.31 0h1.444v-.289h-1.444zm-2.31 2.888h1.443v-.289h-1.444zm2.31 0h1.444v-.289h-1.444zm0 2.888h1.444v-.289h-1.444zm-2.31 0h1.443v-.289h-1.444zm6.931-43.32h1.444v-.289h-1.444zm0 2.888h1.444v-.289h-1.444zm0 2.888h1.444v-.289h-1.444zm0 2.888h1.444v-.289h-1.444zm0 2.888h1.444v-.289h-1.444zm0 2.888h1.444v-.289h-1.444zm0 2.888h1.444v-.289h-1.444zm0 2.888h1.444v-.289h-1.444zm0 2.888h1.444v-.289h-1.444zm0 2.888h1.444v-.289h-1.444zm0 2.888h1.444v-.289h-1.444zm0 2.888h1.444v-.289h-1.444zm0 2.888h1.444v-.289h-1.444zm0 2.888h1.444v-.289h-1.444zm0 2.888h1.444v-.289h-1.444zm0 2.888h1.444v-.289h-1.444zm2.311-43.32h1.444v-.289h-1.444zm4.62 0h1.444v-.289h-1.444zm0 2.888h1.444v-.289h-1.444zm-4.62 0h1.444v-.289h-1.444zm4.62 2.888h1.444v-.289h-1.444zm-4.62 0h1.444v-.289h-1.444zm0 2.888h1.444v-.289h-1.444zm4.62 0h1.444v-.289h-1.444zm-4.62 2.888h1.444v-.289h-1.444zm4.62 0h1.444v-.289h-1.444zm-4.62 2.888h1.444v-.289h-1.444zm4.62 0h1.444v-.289h-1.444zm-4.62 2.888h1.444v-.289h-1.444zm4.62 0h1.444v-.289h-1.444zm0 2.888h1.444v-.289h-1.444zm-4.62 0h1.444v-.289h-1.444zm0 2.888h1.444v-.289h-1.444zm4.62 0h1.444v-.289h-1.444zm-4.62 2.888h1.444v-.289h-1.444zm4.62 0h1.444v-.289h-1.444zm0 2.888h1.444v-.289h-1.444zm-4.62 0h1.444v-.289h-1.444zm0 2.888h1.444v-.289h-1.444zm4.62 0h1.444v-.289h-1.444zm0 2.888h1.444v-.289h-1.444zm-4.62 0h1.444v-.289h-1.444zm0 2.888h1.444v-.289h-1.444zm4.62 0h1.444v-.289h-1.444zm-4.62 2.888h1.444v-.289h-1.444zm4.62 0h1.444v-.289h-1.444zm-4.62 2.888h1.444v-.289h-1.444zm4.62 0h1.444v-.289h-1.444zm2.31-43.32h1.445v-.289h-1.444zm0 2.888h1.445v-.289h-1.444zm0 2.888h1.445v-.289h-1.444zm0 2.888h1.445v-.289h-1.444zm0 2.888h1.445v-.289h-1.444zm0 2.888h1.445v-.289h-1.444zm0 2.888h1.445v-.289h-1.444zm0 2.888h1.445v-.289h-1.444zm0 2.888h1.445v-.289h-1.444zm0 2.888h1.445v-.289h-1.444zm0 2.888h1.445v-.289h-1.444zm0 2.888h1.445v-.289h-1.444zm0 2.888h1.445v-.289h-1.444zm0 2.888h1.445v-.289h-1.444zm0 2.888h1.445v-.289h-1.444zm0 2.888h1.445v-.289h-1.444zm4.622-43.32h1.444v-.289h-1.444zm2.31 0h1.443v-.289h-1.444zm-2.31 2.888h1.444v-.289h-1.444zm2.31 0h1.443v-.289h-1.444zm-2.31 2.888h1.444v-.289h-1.444zm2.31 0h1.443v-.289h-1.444zm-2.31 2.888h1.444v-.289h-1.444zm2.31 2.888h1.443v-.289h-1.444zm-2.31 0h1.444v-.289h-1.444zm0 2.888h1.444v-.289h-1.444zm2.31 0h1.443v-.289h-1.444zm-2.31 2.888h1.444v-.289h-1.444zm2.31 0h1.443v-.289h-1.444zm-2.31 2.888h1.444v-.289h-1.444zm2.31 0h1.443v-.289h-1.444zm-2.31 2.888h1.444v-.289h-1.444zm2.31 0h1.443v-.289h-1.444zm-2.31 2.888h1.444v-.289h-1.444zm0 2.888h1.444v-.289h-1.444zm2.31 0h1.443v-.289h-1.444zm-2.31 2.888h1.444v-.289h-1.444zm2.31 0h1.443v-.289h-1.444zm-2.31 2.888h1.444v-.289h-1.444zm2.31 0h1.443v-.289h-1.444zm-2.31 2.888h1.444v-.289h-1.444zm2.31 0h1.443v-.289h-1.444zm-2.31 2.888h1.444v-.289h-1.444zm2.31 0h1.443v-.289h-1.444zm-2.31 2.888h1.444v-.289h-1.444zm2.31 0h1.443v-.289h-1.444zm4.62-43.32h1.445v-.289h-1.444zm0 2.888h1.445v-.289h-1.444zm0 2.888h1.445v-.289h-1.444zm-4.62 2.888h1.443v-.289h-1.444zm4.62 0h1.445v-.289h-1.444zm0 2.888h1.445v-.289h-1.444zm0 2.888h1.445v-.289h-1.444zm0 2.888h1.445v-.289h-1.444zm0 2.888h1.445v-.289h-1.444zm0 2.888h1.445v-.289h-1.444zm0 2.888h1.445v-.289h-1.444zm-4.62 0h1.443v-.289h-1.444zm4.62 2.888h1.445v-.289h-1.444zm0 2.888h1.445v-.289h-1.444zm0 2.888h1.445v-.289h-1.444zm0 2.888h1.445v-.289h-1.444zm0 2.888h1.445v-.289h-1.444zm0 2.888h1.445v-.289h-1.444zm2.311-43.32h1.444v-.289h-1.444zm0 2.888h1.444v-.289h-1.444zm0 2.888h1.444v-.289h-1.444zm0 2.888h1.444v-.289h-1.444zm23.104 0h1.444v-.289h-1.444zm-23.104 2.888h1.444v-.289h-1.444zm23.104 0h1.444v-.289h-1.444zm-23.104 2.888h1.444v-.289h-1.444zm23.104 0h1.444v-.289h-1.444zm-23.104 2.888h1.444v-.289h-1.444zm23.104 0h1.444v-.289h-1.444zm0 2.888h1.444v-.289h-1.444zm-23.104 0h1.444v-.289h-1.444zm0 2.888h1.444v-.289h-1.444zm23.104 0h1.444v-.289h-1.444zm-23.104 2.888h1.444v-.289h-1.444zm0 2.888h1.444v-.289h-1.444zm0 2.888h1.444v-.289h-1.444zm0 2.888h1.444v-.289h-1.444zm0 2.888h1.444v-.289h-1.444zm0 2.888h1.444v-.289h-1.444zm0 2.888h1.444v-.289h-1.444zm23.104-40.432h1.444v-.289h-1.444zm2.311 0h1.444v-.289h-1.444zm2.31 0h1.445v-.289h-1.444zm0 2.888h1.445v-.289h-1.444zm-4.62 0h1.443v-.289h-1.444zm2.31 0h1.444v-.289h-1.444zm0 2.888h1.444v-.289h-1.444zm2.31 0h1.445v-.289h-1.444zm0 2.888h1.445v-.289h-1.444zm-2.31 0h1.444v-.289h-1.444zm2.31 2.888h1.445v-.289h-1.444zm-2.31 0h1.444v-.289h-1.444zm0 2.888h1.444v-.289h-1.444zm2.31 0h1.445v-.289h-1.444zm0 2.888h1.445v-.289h-1.444zm-2.31 0h1.444v-.289h-1.444zm0 2.888h1.444v-.289h-1.444zm2.31 0h1.445v-.289h-1.444z" style="fill:#a3a39e;fill-opacity:1;fill-rule:nonzero;stroke:none;stroke-width:2.54414" transform="matrix(.5239 0 0 .52425 200.326 169.698)"/><path d="M0 0a.606.606 0 1 1-1.212 0A.606.606 0 0 1 0 0m-1.211-1.212a.606.606 0 1 1-1.212 0 .606.606 0 0 1 1.212 0M0-2.423a.606.606 0 1 1-1.212 0 .606.606 0 0 1 1.212 0m-1.211-1.212a.606.606 0 1 1-1.212 0 .606.606 0 0 1 1.212 0M0-4.872a.606.606 0 1 1-1.212 0 .606.606 0 0 1 1.212 0M-2.423 0a.606.606 0 1 1-1.212 0 .606.606 0 0 1 1.212 0m-1.211-1.212a.606.606 0 1 1-1.213 0 .606.606 0 0 1 1.213 0M-4.872 0a.606.606 0 1 1-1.212 0 .606.606 0 0 1 1.212 0m-2.423 0a.606.606 0 1 1-1.212 0 .606.606 0 0 1 1.212 0m1.211-1.212a.606.606 0 1 1-1.212 0 .606.606 0 0 1 1.212 0m3.661-1.211a.606.606 0 1 1-1.212 0 .606.606 0 0 1 1.212 0m-1.211-1.212a.606.606 0 1 1-1.213 0 .606.606 0 0 1 1.213 0m1.211-1.237a.606.606 0 1 1-1.212 0 .606.606 0 0 1 1.212 0m-2.449 2.449a.606.606 0 1 1-1.212 0 .606.606 0 0 1 1.212 0m-2.423 0a.606.606 0 1 1-1.212 0 .606.606 0 0 1 1.212 0m1.211-1.212a.606.606 0 1 1-1.212 0 .606.606 0 0 1 1.212 0m1.212-1.237a.606.606 0 1 1-1.212 0 .606.606 0 0 1 1.212 0m-2.423 0a.606.606 0 1 1-1.212 0 .606.606 0 0 1 1.212 0m-1.212 3.66a.606.606 0 1 1-1.212 0 .606.606 0 0 1 1.212 0M-9.744 0a.606.606 0 1 1-1.212 0 .606.606 0 0 1 1.212 0m-1.212-1.212a.606.606 0 1 1-1.212 0 .606.606 0 0 1 1.212 0m2.45-2.423a.606.606 0 1 1-1.213 0 .606.606 0 0 1 1.212 0m-1.237 1.212a.606.606 0 1 1-1.212 0 .606.606 0 0 1 1.212 0m0-2.45a.606.606 0 1 1-1.212 0 .606.606 0 0 1 1.212 0m-1.212 1.238a.606.606 0 1 1-1.212 0 .606.606 0 0 1 1.212 0m9.745-2.449a.606.606 0 1 1-1.212 0 .606.606 0 0 1 1.212 0M0-7.295a.606.606 0 1 1-1.212-.001.606.606 0 0 1 1.212 0m-1.211-1.211a.606.606 0 1 1-1.212 0 .606.606 0 0 1 1.212 0M0-9.745a.606.606 0 1 1-1.212 0 .606.606 0 0 1 1.212 0m-1.211-1.211a.606.606 0 1 1-1.212 0 .606.606 0 0 1 1.212 0M0-12.168a.606.606 0 1 1-1.212 0 .606.606 0 0 1 1.212 0m-1.211-1.211a.606.606 0 1 1-1.212 0 .606.606 0 0 1 1.212 0M0-14.617a.606.606 0 1 1-1.212 0 .606.606 0 0 1 1.212 0m-2.423 7.322a.606.606 0 1 1-1.212-.001.606.606 0 0 1 1.212 0m-1.211 1.212a.606.606 0 1 1-1.213 0 .606.606 0 0 1 1.213 0m1.211-3.66a.606.606 0 1 1-1.212-.001.606.606 0 0 1 1.212 0m-1.211 1.238a.606.606 0 1 1-1.213 0 .606.606 0 0 1 1.213 0m-1.238 1.212a.606.606 0 1 1-1.212-.001.606.606 0 0 1 1.212 0m-1.212 1.212a.606.606 0 1 1-1.212 0 .606.606 0 0 1 1.212 0m-1.21-1.211a.606.606 0 1 1-1.213-.001.606.606 0 0 1 1.212 0m2.423-2.449a.606.606 0 1 1-1.212 0 .606.606 0 0 1 1.212 0m-1.212 1.238a.606.606 0 1 1-1.212 0 .606.606 0 0 1 1.212 0m-1.21-1.238a.606.606 0 1 1-1.213 0 .606.606 0 0 1 1.212 0m4.872-2.423a.606.606 0 1 1-1.212 0 .606.606 0 0 1 1.212 0m-1.211 1.212a.606.606 0 1 1-1.213 0 .606.606 0 0 1 1.213 0m1.211-3.66a.606.606 0 1 1-1.212-.001.606.606 0 0 1 1.212 0m-1.211 1.238a.606.606 0 1 1-1.213 0 .606.606 0 0 1 1.213 0m-1.238 1.211a.606.606 0 1 1-1.212 0 .606.606 0 0 1 1.212 0m-1.212 1.212a.606.606 0 1 1-1.212 0 .606.606 0 0 1 1.212 0m-1.21-1.212a.606.606 0 1 1-1.213 0 .606.606 0 0 1 1.212 0m2.423-2.449a.606.606 0 1 1-1.212 0 .606.606 0 0 1 1.212 0m-1.212 1.238a.606.606 0 1 1-1.212 0 .606.606 0 0 1 1.212 0m-1.21-1.238a.606.606 0 1 1-1.213 0 .606.606 0 0 1 1.212 0m-1.212 8.533a.606.606 0 1 1-1.212 0 .606.606 0 0 1 1.212 0m-1.237-1.211a.606.606 0 1 1-1.212-.001.606.606 0 0 1 1.212 0m1.237-1.211a.606.606 0 1 1-1.212 0 .606.606 0 0 1 1.212 0m-1.237-1.238a.606.606 0 1 1-1.212 0 .606.606 0 0 1 1.212 0m-1.212 3.661a.606.606 0 1 1-1.212 0 .606.606 0 0 1 1.212 0m0-2.423a.606.606 0 1 1-1.212 0 .606.606 0 0 1 1.212 0m2.45-2.45a.606.606 0 1 1-1.213 0 .606.606 0 0 1 1.212 0m-1.237-1.21a.606.606 0 1 1-1.212-.001.606.606 0 0 1 1.212 0m1.237-1.211a.606.606 0 1 1-1.212 0 .606.606 0 0 1 1.212 0m-1.237-1.238a.606.606 0 1 1-1.212 0 .606.606 0 0 1 1.212 0m-1.212 3.66a.606.606 0 1 1-1.212 0 .606.606 0 0 1 1.212 0m0-2.422a.606.606 0 1 1-1.212 0 .606.606 0 0 1 1.212 0" clip-path="url(#a)" style="font-variation-settings:normal;opacity:1;vector-effect:none;fill:none;fill-opacity:1;stroke:#241f31;stroke-width:.572433;stroke-linecap:butt;stroke-linejoin:miter;stroke-miterlimit:10;stroke-dasharray:none;stroke-dashoffset:0;stroke-opacity:1;-inkscape-stroke:none;stop-color:#000;stop-opacity:1" transform="matrix(.69854 0 0 -.699 314.05 359.905)"/><path d="M0 0a.606.606 0 1 1-1.212 0A.606.606 0 0 1 0 0m-1.212 1.212a.606.606 0 1 1-1.212 0 .606.606 0 0 1 1.212 0M-2.449 0a.606.606 0 1 1-1.212 0A.606.606 0 0 1-2.45 0M0-2.45a.606.606 0 1 1-1.212 0A.606.606 0 0 1 0-2.45m-1.212 1.213a.606.606 0 1 1-1.212-.001.606.606 0 0 1 1.212 0m-1.237-1.211a.606.606 0 1 1-1.212 0 .606.606 0 0 1 1.212 0m1.237-1.212a.606.606 0 1 1-1.212 0 .606.606 0 0 1 1.212 0m-2.449 4.873a.606.606 0 1 1-1.212 0 .606.606 0 0 1 1.212 0M-4.873 0a.606.606 0 1 1-1.212 0 .606.606 0 0 1 1.212 0m-1.211 1.212a.606.606 0 1 1-1.212 0 .606.606 0 0 1 1.212 0M-7.322 0a.606.606 0 1 1-1.212 0 .606.606 0 0 1 1.212 0m-1.211 1.212a.606.606 0 1 1-1.212 0 .606.606 0 0 1 1.212 0m4.872-2.45a.606.606 0 1 1-1.212 0 .606.606 0 0 1 1.212 0m-1.212-1.211a.606.606 0 1 1-1.212 0 .606.606 0 0 1 1.212 0m-1.211 1.211a.606.606 0 1 1-1.212 0 .606.606 0 0 1 1.212 0m2.423-2.423a.606.606 0 1 1-1.212 0 .606.606 0 0 1 1.212 0m-2.423 0a.606.606 0 1 1-1.212 0 .606.606 0 0 1 1.212 0m-1.238 1.212a.606.606 0 1 1-1.212 0 .606.606 0 0 1 1.212 0m-1.211 1.211a.606.606 0 1 1-1.212 0 .606.606 0 0 1 1.212 0m0-2.423a.606.606 0 1 1-1.212 0 .606.606 0 0 1 1.212 0m-2.423 4.873a.606.606 0 1 1-1.212 0 .606.606 0 0 1 1.212 0M-9.745 0a.606.606 0 1 1-1.212 0 .606.606 0 0 1 1.212 0m-1.211-1.238a.606.606 0 1 1-1.212 0 .606.606 0 0 1 1.212 0m1.211-1.211a.606.606 0 1 1-1.212 0 .606.606 0 0 1 1.212 0m-1.211-1.212a.606.606 0 1 1-1.212 0 .606.606 0 0 1 1.212 0M0-4.872a.606.606 0 1 1-1.212 0 .606.606 0 0 1 1.212 0m0-2.45a.606.606 0 1 1-1.212 0 .606.606 0 0 1 1.212 0M-1.212-6.11a.606.606 0 1 1-1.212 0 .606.606 0 0 1 1.212 0m-1.237 1.238a.606.606 0 1 1-1.212 0 .606.606 0 0 1 1.212 0m1.237-3.661a.606.606 0 1 1-1.212 0 .606.606 0 0 1 1.212 0m-1.237 1.212a.606.606 0 1 1-1.212 0 .606.606 0 0 1 1.212 0M0-9.745a.606.606 0 1 1-1.212 0 .606.606 0 0 1 1.212 0m0-2.449a.606.606 0 1 1-1.212 0 .606.606 0 0 1 1.212 0m-1.212 1.212a.606.606 0 1 1-1.212 0 .606.606 0 0 1 1.212 0m-1.237 1.237a.606.606 0 1 1-1.212 0 .606.606 0 0 1 1.212 0m1.237-3.66a.606.606 0 1 1-1.212 0 .606.606 0 0 1 1.212 0m-1.237 1.211a.606.606 0 1 1-1.212 0 .606.606 0 0 1 1.212 0m-2.424 7.322a.606.606 0 1 1-1.212 0 .606.606 0 0 1 1.212 0m1.212-1.238a.606.606 0 1 1-1.212 0 .606.606 0 0 1 1.212 0m-2.423 0a.606.606 0 1 1-1.212 0 .606.606 0 0 1 1.212 0m1.211-1.211a.606.606 0 1 1-1.212 0 .606.606 0 0 1 1.212 0m1.212-1.212a.606.606 0 1 1-1.212 0 .606.606 0 0 1 1.212 0m-2.423 0a.606.606 0 1 1-1.212 0 .606.606 0 0 1 1.212 0m-1.238 3.66a.606.606 0 1 1-1.212 0 .606.606 0 0 1 1.212 0M-8.533-6.11a.606.606 0 1 1-1.212 0 .606.606 0 0 1 1.212 0m1.211-1.211a.606.606 0 1 1-1.212 0 .606.606 0 0 1 1.212 0m-1.211-1.212a.606.606 0 1 1-1.212 0 .606.606 0 0 1 1.212 0m3.66-1.212a.606.606 0 1 1-1.212 0 .606.606 0 0 1 1.212 0m1.212-1.237a.606.606 0 1 1-1.212 0 .606.606 0 0 1 1.212 0m-2.423 0a.606.606 0 1 1-1.212 0 .606.606 0 0 1 1.212 0m1.211-1.212a.606.606 0 1 1-1.212 0 .606.606 0 0 1 1.212 0m1.212-1.211a.606.606 0 1 1-1.212 0 .606.606 0 0 1 1.212 0m-2.423 0a.606.606 0 1 1-1.212 0 .606.606 0 0 1 1.212 0m-1.238 3.66a.606.606 0 1 1-1.212 0 .606.606 0 0 1 1.212 0m-1.211-1.237a.606.606 0 1 1-1.212 0 .606.606 0 0 1 1.212 0m1.211-1.212a.606.606 0 1 1-1.212 0 .606.606 0 0 1 1.212 0m-1.211-1.211a.606.606 0 1 1-1.212 0 .606.606 0 0 1 1.212 0m-1.212 8.533a.606.606 0 1 1-1.212 0 .606.606 0 0 1 1.212 0m-1.211-1.238a.606.606 0 1 1-1.212 0 .606.606 0 0 1 1.212 0m1.211-1.211a.606.606 0 1 1-1.212 0 .606.606 0 0 1 1.212 0m-1.211-1.212a.606.606 0 1 1-1.212 0 .606.606 0 0 1 1.212 0m1.211-1.212a.606.606 0 1 1-1.212 0 .606.606 0 0 1 1.212 0m-1.211-1.237a.606.606 0 1 1-1.212 0 .606.606 0 0 1 1.212 0m1.211-1.212a.606.606 0 1 1-1.212 0 .606.606 0 0 1 1.212 0m-1.211-1.211a.606.606 0 1 1-1.212 0 .606.606 0 0 1 1.212 0" clip-path="url(#b)" style="opacity:1;fill:none;stroke:#241f31;stroke-width:.572433;stroke-linecap:butt;stroke-linejoin:miter;stroke-miterlimit:10;stroke-dasharray:none;stroke-opacity:1" transform="matrix(.69854 0 0 -.699 370.469 360.734)"/><path d="M0 0c.098 0 .144.049.144.144v2.099c0 .095-.046.144-.144.144h-.518c-.105 0-.154-.045-.2-.111l-1.2-1.81h-.007l-1.197 1.81c-.045.066-.095.111-.2.111h-.521c-.098 0-.147-.049-.147-.144V.144c0-.095.049-.144.147-.144h.213c.098 0 .144.049.144.144V1.94h.007L-2.268.112c.046-.067.094-.112.2-.112h.276c.109 0 .157.045.203.112L-.381 1.94h.007V.144C-.374.049-.325 0-.227 0Z" clip-path="url(#c)" style="fill:#000;fill-opacity:1;fill-rule:nonzero;stroke:none;stroke-width:1.90811" transform="matrix(.69854 0 0 -.699 310.27 331.939)"/><path d="M0 0h2.884c.413 0 .622.207.622.627 0 .311-.148.508-.457.581v.007c.261.088.454.269.454.56 0 .413-.21.612-.613.612H-.009c-.402 0-.612-.199-.612-.612 0-.291.194-.472.456-.56v-.007c-.309-.073-.457-.27-.457-.581C-.622.207-.413 0 0 0m2.736.403H.148c-.196 0-.292.094-.292.294 0 .203.11.304.374.304h2.424c.264 0 .374-.101.374-.304 0-.2-.096-.294-.292-.294m-.072 1.582c.196 0 .36-.07.36-.266 0-.193-.134-.315-.36-.315H.218c-.227 0-.364.122-.364.315 0 .196.168.266.364.266z" clip-path="url(#d)" style="fill:#000;fill-opacity:1;fill-rule:nonzero;stroke:none;stroke-width:1.90811" transform="matrix(.69854 0 0 -.699 311.13 331.939)"/><path d="M0 0v-1.187a.063.063 0 0 0-.063-.063h-3.704a.065.065 0 0 0-.044.018l-.661.662a.061.061 0 0 0-.019.044V1.88c0 .034.027.062.063.062h2.487a.06.06 0 0 0 .044-.018L-.018.044A.063.063 0 0 0 0 0" clip-path="url(#e)" style="fill:#000;fill-opacity:1;fill-rule:nonzero;stroke:none;stroke-width:1.90811" transform="matrix(.69854 0 0 -.699 310.621 328.886)"/><path d="M0 0v-2.406a.062.062 0 0 0-.062-.062h-.451a.061.061 0 0 0-.044.019L-1.795-1.21a.067.067 0 0 1-.045.018h-.148c-.003 0-.007-.004-.007-.007v-1.207a.061.061 0 0 0-.061-.062h-.495a.06.06 0 0 0-.043.019L-5.049.007a.064.064 0 0 0-.019.044v.61c0 .035.028.063.063.063h4.281A.06.06 0 0 0-.68.706l.662-.663A.062.062 0 0 0 0 0" clip-path="url(#f)" style="fill:#000;fill-opacity:1;fill-rule:nonzero;stroke:none;stroke-width:1.90811" transform="matrix(.69854 0 0 -.699 313.579 328.035)"/><path d="M0 0a.075.075 0 0 1-.015-.084.077.077 0 0 1 .071-.047h1.497c.03 0 .058.018.07.047a.075.075 0 0 1-.014.083L.867.796A.077.077 0 0 1 .81.821.082.082 0 0 1 .753.797Z" clip-path="url(#g)" style="fill:#000;fill-opacity:1;fill-rule:evenodd;stroke:none;stroke-width:1.90811" transform="matrix(.69854 0 0 -.699 360.136 271.465)"/><path d="M0 0a.076.076 0 0 1 .015.084.077.077 0 0 1-.071.047h-1.496a.076.076 0 0 1-.071-.047.073.073 0 0 1 .014-.083l.742-.797A.077.077 0 0 1-.81-.821c.021 0 .042.009.057.024z" clip-path="url(#h)" style="fill:#000;fill-opacity:1;fill-rule:evenodd;stroke:none;stroke-width:1.90811" transform="matrix(.69854 0 0 -.699 351.302 271.037)"/><path d="M0 0a.076.076 0 0 1-.015-.084.077.077 0 0 1 .071-.047h1.497c.03 0 .058.018.07.047a.073.073 0 0 1-.014.083L.867.796A.077.077 0 0 1 .81.821.082.082 0 0 1 .753.797Z" clip-path="url(#i)" style="fill:#000;fill-opacity:1;fill-rule:evenodd;stroke:none;stroke-width:1.90811" transform="matrix(.69854 0 0 -.699 314.64 271.465)"/><path d="M0 0a.077.077 0 0 1 .014.084.075.075 0 0 1-.07.047h-1.496a.075.075 0 0 1-.071-.046.076.076 0 0 1 .013-.084l.743-.797a.077.077 0 0 1 .114 0z" clip-path="url(#j)" style="fill:#000;fill-opacity:1;fill-rule:evenodd;stroke:none;stroke-width:1.90811" transform="matrix(.69854 0 0 -.699 325.722 270.983)"/><path d="M266.811 360.317h17.451a5.472 5.472 0 0 1 5.484 5.484v14.951a5.472 5.472 0 0 1-5.484 5.484h-17.45a5.472 5.472 0 0 1-5.485-5.484v-14.95a5.472 5.472 0 0 1 5.484-5.485zM235.842 360.317h17.45a5.472 5.472 0 0 1 5.485 5.484v14.951a5.472 5.472 0 0 1-5.484 5.484h-17.451a5.472 5.472 0 0 1-5.484-5.484v-14.95a5.472 5.472 0 0 1 5.484-5.485zM235.842 324.03h17.45a5.472 5.472 0 0 1 5.485 5.484v14.95a5.472 5.472 0 0 1-5.484 5.484h-17.451a5.472 5.472 0 0 1-5.484-5.484v-14.95a5.472 5.472 0 0 1 5.484-5.484zM204.803 324.03h17.451a5.472 5.472 0 0 1 5.484 5.484v14.95a5.472 5.472 0 0 1-5.484 5.484h-17.45a5.472 5.472 0 0 1-5.485-5.484v-14.95a5.472 5.472 0 0 1 5.484-5.484zM266.811 324.03h17.451a5.472 5.472 0 0 1 5.484 5.484v14.95a5.472 5.472 0 0 1-5.484 5.484h-17.45a5.472 5.472 0 0 1-5.485-5.484v-14.95a5.472 5.472 0 0 1 5.484-5.484zM235.773 294.633h17.45a5.472 5.472 0 0 1 5.484 5.484v14.95a5.472 5.472 0 0 1-5.484 5.484h-17.45a5.472 5.472 0 0 1-5.484-5.484v-14.95a5.472 5.472 0 0 1 5.484-5.484zM272.812 288.249h17.45a5.472 5.472 0 0 1 5.485 5.484v14.95a5.472 5.472 0 0 1-5.484 5.484h-17.451a5.472 5.472 0 0 1-5.484-5.484v-14.95a5.472 5.472 0 0 1 5.484-5.484zM303.727 288.249h17.451a5.472 5.472 0 0 1 5.484 5.484v14.95a5.472 5.472 0 0 1-5.484 5.484h-17.45a5.472 5.472 0 0 1-5.485-5.484v-14.95a5.472 5.472 0 0 1 5.484-5.484z" style="opacity:.446519;fill:#241f31;stroke-width:5.72433;stroke-linecap:round;stroke-linejoin:round;paint-order:markers fill stroke" transform="matrix(.5239 0 0 .52425 200.326 169.698)"/></g><path d="M190 190h-6a10 10 45 0 1-10-10v-3.363a10 10 135 0 1 10-10h96.582a10 10 135 0 0 10-10v-20a10 10 45 0 0-10-10h-30.606" style="font-variation-settings:normal;opacity:1;fill:none;fill-opacity:1;stroke:#1a5fb4;stroke-width:3;stroke-linecap:butt;stroke-linejoin:miter;stroke-miterlimit:10;stroke-dasharray:none;stroke-dashoffset:0;stroke-opacity:.894118;paint-order:markers fill stroke"/><path d="M99.976 96.637h70c5.54 0 10 4.46 10 10v40c0 5.54-4.46 10-10 10h-70c-5.54 0-10-4.46-10-10v-40c0-5.54 4.46-10 10-10z" style="fill:#e66100;stroke-width:2;stroke-linecap:round;stroke-linejoin:round;paint-order:markers fill stroke"/><path d="M124.71 129.547v-5.82h1.992q.68 0 1.117.234.442.23.653.636.214.407.214.926 0 .578-.265 1.008-.262.43-.813.621l1.305 2.395h-.86l-1.21-2.262q-.067.004-.137.004h-1.254v2.258zm.742-2.918h1.219q.687 0 .98-.297.297-.297.297-.809 0-.52-.297-.832-.293-.312-.988-.312h-1.21zm4.406 2.918v-5.82h.743v1.992l-.012 1.07q.242-.317.488-.606.25-.289.516-.578l1.738-1.879h.973l-2.352 2.52 2.356 3.3h-.88l-1.988-2.796-.84.887v1.91zm7.196.078q-.973 0-1.512-.781-.535-.782-.535-2.204 0-1.414.539-2.203.543-.789 1.508-.789.968 0 1.507.79.54.788.54 2.202 0 1.422-.536 2.204-.535.78-1.511.78zm0-.649q.64 0 .984-.613.348-.617.348-1.723 0-1.113-.348-1.73-.344-.617-.984-.617-.637 0-.985.62-.347.618-.347 1.727 0 1.106.347 1.723.348.613.985.613zm5.047.649q-.364 0-.727-.133t-.664-.445q-.297-.313-.477-.848-.18-.535-.18-1.34 0-1.535.575-2.37.574-.84 1.562-.84.489 0 .875.195.387.195.633.543.246.347.317.804h-.727q-.098-.379-.371-.633-.274-.254-.727-.254-.672 0-1.054.583-.38.578-.38 1.628h.048q.234-.363.605-.566.375-.207.828-.207.5 0 .914.246.414.246.66.684.25.433.25.996 0 .543-.242.988-.242.441-.683.707-.442.262-1.035.262zm0-.653q.351 0 .632-.175.282-.176.446-.47.164-.296.164-.66 0-.355-.16-.644-.157-.293-.434-.465-.277-.171-.629-.171t-.637.18q-.285.179-.453.476-.168.293-.168.633 0 .343.16.64.16.293.442.477.281.18.637.18z" aria-label="RK06" style="font-size:8px;line-height:1.25;font-family:Inter;-inkscape-font-specification:&quot;Inter, Normal&quot;;text-align:center;letter-spacing:0;word-spacing:0;text-anchor:middle;fill:#fff;stroke-width:2;stroke-linecap:round;stroke-linejoin:round;paint-order:markers fill stroke"/><path d="M179.976 130.637h41" style="font-variation-settings:normal;opacity:1;fill:none;fill-opacity:1;stroke:#3d3846;stroke-width:3;stroke-linecap:butt;stroke-linejoin:miter;stroke-miterlimit:10;stroke-dasharray:none;stroke-dashoffset:0;stroke-opacity:.894118;paint-order:markers fill stroke"/><path d="M221.082 76.637v36.15a9.677 9.677 46.036 0 0 9.5 9.85h19.051" style="font-variation-settings:normal;opacity:1;fill:none;fill-opacity:1;stroke:#a51d2d;stroke-width:3;stroke-linecap:butt;stroke-linejoin:miter;stroke-miterlimit:10;stroke-dasharray:none;stroke-dashoffset:0;stroke-opacity:.894118;paint-order:markers fill stroke" transform="translate(-30.607)"/><path d="M217.805 116.837h40.2c5.43 0 9.8 4.37 9.8 9.8 0 5.429-4.37 9.8-9.8 9.8h-40.2c-5.43 0-9.8-4.371-9.8-9.8 0-5.43 4.37-9.8 9.8-9.8z" style="opacity:1;vector-effect:none;fill:#241f31;stroke-width:.4;stroke-miterlimit:10;stroke-opacity:.278061;paint-order:markers fill stroke"/><path d="M222.355 129.405q-.645 0-1.132-.225-.483-.228-.755-.644-.269-.42-.269-.99v-3.204h1.357v3.09q0 .348.225.573.228.225.574.225.352 0 .577-.225.229-.225.229-.574v-3.089h1.356v3.203q0 .571-.272.99-.272.417-.759.645-.486.225-1.131.225zm4.841 0q-.651 0-1.138-.191-.483-.195-.752-.598-.269-.403-.272-1.03h1.29q.016.345.238.527.221.178.614.178.326 0 .494-.118.171-.12.171-.305 0-.168-.168-.282-.168-.115-.584-.202l-.504-.107q-.661-.141-1.044-.48-.38-.343-.38-.93 0-.477.26-.833.258-.36.711-.557.457-.202 1.05-.202.609 0 1.048.205.444.201.682.57.242.367.245.857h-1.303q-.016-.245-.18-.38-.162-.137-.491-.137-.316 0-.46.107-.144.108-.144.276 0 .178.157.288.158.111.514.188l.41.088q.829.174 1.195.567.37.393.37.964 0 .742-.541 1.141-.537.396-1.488.396zm2.545-.06v-5.003h2.17q.855 0 1.299.34.446.339.446.91 0 .416-.265.714-.265.296-.702.38v.054q.322.01.584.16.266.148.42.414.158.262.158.614 0 .41-.212.732-.211.319-.604.504-.393.18-.937.18zm1.357-1.081h.638q.685 0 .685-.51 0-.266-.178-.407-.178-.144-.487-.144h-.658zm0-1.9h.557q.269 0 .437-.121.167-.125.167-.356 0-.229-.167-.353-.165-.124-.417-.124h-.577zm4.606 2.98v-5.002h1.357v1.9h1.8v-1.9h1.356v5.003h-1.357v-2.008h-1.8v2.008zm7.5.068q-.68 0-1.235-.295-.55-.296-.873-.867-.322-.574-.322-1.403 0-.836.322-1.41.323-.574.873-.866.554-.296 1.236-.296.681 0 1.232.296.55.292.873.866.326.574.326 1.41 0 .833-.326 1.407-.322.57-.873.866-.55.292-1.232.292zm0-1.182q.508 0 .77-.356.265-.356.265-1.027 0-.675-.265-1.03-.262-.36-.77-.36-.503 0-.768.36-.265.355-.265 1.03 0 .671.265 1.027.265.356.769.356zm5.024 1.175q-.652 0-1.139-.191-.483-.195-.752-.598-.268-.403-.272-1.03h1.29q.016.345.238.527.222.178.614.178.326 0 .494-.118.171-.12.171-.305 0-.168-.168-.282-.168-.115-.584-.202l-.504-.107q-.661-.141-1.044-.48-.38-.343-.38-.93 0-.477.26-.833.258-.36.711-.557.457-.202 1.051-.202.608 0 1.048.205.443.201.681.57.242.367.245.857h-1.302q-.017-.245-.182-.38-.16-.137-.49-.137-.316 0-.46.107-.144.108-.144.276 0 .177.158.288.157.111.513.188l.41.088q.83.174 1.195.567.37.393.37.964 0 .742-.541 1.141-.537.396-1.487.396zm2.41-3.968v-1.095h4.345v1.095h-1.494v3.908h-1.357v-3.908z" aria-label="USB HOST" style="font-weight:900;font-size:6.87609px;line-height:1.25;font-family:Inter;-inkscape-font-specification:&quot;Inter, Heavy&quot;;text-align:center;letter-spacing:0;word-spacing:0;text-anchor:middle;fill:#fff;stroke-width:2;stroke-linecap:round;stroke-linejoin:round;paint-order:markers fill stroke"/><path d="M180.076 56.637h49.7c5.54 0 10 4.46 10 10s-4.46 10-10 10h-49.7c-5.54 0-10-4.46-10-10s4.46-10 10-10z" style="opacity:1;vector-effect:none;fill:#e01b24;stroke-width:.4;stroke-miterlimit:10;stroke-opacity:.278061;paint-order:markers fill stroke"/><path d="M184.938 69.8q-.727 0-1.272-.285-.54-.285-.838-.78-.298-.496-.298-1.128v-4.06h.785v3.998q0 .442.194.789.198.343.562.54.363.199.867.199t.863-.198q.364-.198.558-.541.194-.347.194-.789v-3.997h.784v4.059q0 .632-.297 1.127-.297.496-.838.78-.537.286-1.264.286zm5.856.008q-1 0-1.59-.47-.59-.476-.644-1.248h.805q.033.347.235.574.203.223.517.335.318.107.677.107.417 0 .747-.136.335-.136.529-.384t.194-.574q0-.298-.17-.483-.165-.186-.441-.306-.277-.12-.607-.21l-.744-.211q-.743-.21-1.156-.603-.413-.392-.413-1.004 0-.52.281-.908.28-.392.76-.607.479-.215 1.074-.215.607 0 1.073.215.467.215.735.586.273.368.29.834h-.769q-.053-.45-.43-.693-.375-.248-.924-.248-.599 0-.962.285-.364.28-.364.714 0 .322.198.52.203.195.475.306.277.107.5.17l.615.169q.248.066.545.181.302.116.574.31.273.19.446.487.178.294.178.723 0 .504-.264.909-.26.404-.76.64-.5.235-1.21.235zm3.456-.107v-6.153h2.18q.645 0 1.062.223.421.218.624.59.206.368.206.818 0 .396-.14.656-.14.256-.372.41-.227.152-.495.226v.058q.289.017.574.198.289.182.479.517.194.334.194.817 0 .463-.215.835-.21.371-.665.59-.454.215-1.181.215zm.785-.694h1.445q.719 0 1.02-.277.306-.276.306-.677 0-.31-.157-.57-.157-.26-.446-.417-.285-.157-.681-.157h-1.487zm0-2.759h1.355q.495 0 .838-.289.343-.289.343-.764 0-.4-.281-.677-.277-.277-.876-.277h-1.379zm7.128 3.453v-6.153h2.106q.718 0 1.181.264.467.26.69.702.227.442.227.991 0 .55-.227.995-.223.446-.686.71-.462.265-1.181.265h-1.326V69.7zm.784-2.916h1.289q.73 0 1.04-.363.31-.368.31-.917 0-.545-.31-.904-.31-.364-1.048-.364h-1.28zm6.36 3.015q-.628 0-1.103-.297-.47-.298-.735-.835-.264-.536-.264-1.247 0-.722.264-1.26.265-.54.735-.838.475-.297 1.103-.297.632 0 1.107.297.475.298.739.839.264.537.264 1.26 0 .71-.264 1.246-.264.537-.74.835-.474.297-1.106.297zm0-.665q.467 0 .768-.24.302-.239.446-.627.145-.393.145-.847 0-.458-.145-.85-.144-.397-.446-.636-.301-.244-.768-.244-.462 0-.76.244-.297.24-.442.631-.144.393-.144.855 0 .454.144.847.145.388.442.628.298.239.76.239zm4.076.566-1.4-4.617h.789l.561 2.015q.1.36.215.81.116.446.227.995.112-.529.22-.975.11-.446.218-.83l.553-2.015h.793l.545 2.015q.1.372.207.818.111.442.219.974.115-.528.227-.97.116-.446.219-.822l.561-2.015h.79l-1.4 4.617h-.74l-.599-2.09q-.115-.396-.223-.817l-.21-.864q-.104.442-.215.868-.107.425-.219.813l-.599 2.09zm7.673.099q-.67 0-1.156-.297-.484-.298-.748-.83-.26-.533-.26-1.244 0-.71.256-1.25.256-.542.723-.847.47-.306 1.098-.306.368 0 .723.124.36.12.648.392.293.269.467.71.173.442.173 1.083v.31h-3.336q.028.722.413 1.11.388.384 1.003.384.409 0 .702-.177.297-.182.425-.533l.719.198q-.161.525-.652.85-.488.323-1.198.323zm-1.408-2.783h2.577q-.054-.591-.372-.959-.314-.371-.884-.371-.396 0-.685.186-.285.185-.45.487-.166.301-.186.657zm4.398 2.684v-4.617h.718v.71h.05q.128-.35.454-.562.33-.214.744-.214.082 0 .194.004.115.004.181.008v.748q-.033-.009-.165-.025-.132-.017-.28-.017-.5 0-.827.306-.326.301-.326.768v2.89z" aria-label="USB Power" style="font-size:8.45753px;line-height:1.25;font-family:Inter;-inkscape-font-specification:&quot;Inter, Normal&quot;;text-align:center;letter-spacing:0;word-spacing:0;text-anchor:middle;fill:#fff;stroke-width:2;stroke-linecap:round;stroke-linejoin:round;paint-order:markers fill stroke"/><path d="M194 180h90c5.54 0 10 4.46 10 10s-4.46 10-10 10h-90c-5.54 0-10-4.46-10-10s4.46-10 10-10Z" style="opacity:1;vector-effect:none;fill:#99c1f1;stroke-width:.4;stroke-miterlimit:10;stroke-opacity:.278061;paint-order:markers fill stroke"/><path d="M200.233 193.256q-.747 0-1.311-.26-.56-.266-.876-.748-.311-.487-.311-1.148v-3.714h1.572v3.581q0 .405.26.666.265.26.666.26.409 0 .67-.26.264-.261.264-.666v-3.58h1.573v3.713q0 .661-.315 1.148-.316.482-.88.747-.564.26-1.312.26zm4.842-2.515v2.445h-1.564v-4.352h1.467l.027.981q.16-.444.487-.74.327-.295.883-.295.463 0 .802.21.343.21.53.58.186.37.186.845v2.77h-1.564v-2.444q0-.323-.164-.506-.163-.186-.46-.186-.287 0-.458.186-.172.183-.172.506zm3.612 4.072v-5.979h1.55v.763h.038q.125-.335.432-.576.308-.241.79-.241.432 0 .818.23.389.23.634.723.245.49.245 1.28 0 .752-.233 1.246-.234.495-.623.74-.39.241-.856.241-.46 0-.767-.218-.304-.222-.44-.552h-.023v2.343zm2.219-2.772q.323 0 .498-.272.18-.272.18-.755 0-.487-.18-.759-.175-.276-.498-.276-.32 0-.506.276-.187.272-.187.759 0 .47.187.751.187.276.506.276zm5.025 1.223q-.709 0-1.215-.28-.506-.285-.774-.787-.265-.506-.265-1.175 0-.67.265-1.172.268-.506.774-.786.506-.284 1.215-.284.708 0 1.21.284.502.28.767.786.268.502.268 1.172 0 .67-.268 1.175-.265.502-.767.786-.502.28-1.21.28zm0-1.168q.303 0 .475-.284.175-.288.175-.798 0-.514-.175-.79-.172-.277-.475-.277-.308 0-.483.277-.175.276-.175.79 0 .51.175.798.175.284.483.284zm3.654 1.09-1.253-4.352h1.635l.249 1.363q.066.373.148.782.082.405.152.864.081-.46.175-.868.097-.409.175-.778l.292-1.363h1.354l.277 1.363q.074.377.167.786.097.408.183.872.066-.464.14-.872.078-.409.144-.786l.25-1.363h1.665l-1.269 4.352h-1.603l-.413-1.433q-.058-.198-.117-.486l-.109-.576q-.054.288-.112.576-.055.288-.113.486l-.413 1.433zm8.15.078q-1.046 0-1.646-.592-.595-.596-.595-1.65 0-.674.268-1.176.273-.506.767-.786.495-.28 1.168-.28.658 0 1.144.272.487.269.751.77.269.5.269 1.192v.358h-2.834q.016.405.214.6.203.194.526.194.241 0 .413-.097.17-.101.24-.28l1.379.202q-.168.588-.7.93-.53.343-1.363.343zm-.696-2.748h1.347q-.074-.639-.674-.639-.599 0-.673.639zm3.445 2.67v-4.352h1.518v.833h.046q.117-.463.374-.673.26-.214.607-.214.199 0 .397.062v1.331q-.117-.043-.288-.058-.167-.02-.288-.02-.346 0-.576.226-.226.226-.226.6v2.265zm5.293.078q-1.047 0-1.646-.592-.596-.596-.596-1.65 0-.674.269-1.176.272-.506.767-.786.494-.28 1.167-.28.658 0 1.145.272.486.269.75.77.27.5.27 1.192v.358h-2.834q.015.405.214.6.202.194.525.194.242 0 .413-.097.171-.102.241-.28l1.378.202q-.167.588-.7.93-.53.343-1.363.343zm-.697-2.748h1.347q-.074-.639-.673-.639-.6 0-.674.639zm5.002 2.724q-.463 0-.856-.241-.39-.245-.623-.74-.234-.494-.234-1.245 0-.79.246-1.28.245-.495.634-.725.39-.23.817-.23.487 0 .79.242.308.241.433.576h.023v-2.21h1.565v5.799h-1.55v-.716h-.038q-.133.33-.44.552-.308.218-.767.218zm.576-1.199q.323 0 .506-.276.187-.28.187-.751 0-.487-.187-.76-.183-.275-.506-.275t-.502.276q-.175.272-.175.759 0 .483.175.755.179.272.502.272zm7.076 1.215q-.747 0-1.312-.261-.56-.265-.875-.747-.312-.487-.312-1.149v-3.713h1.573v3.581q0 .405.26.666.265.26.666.26.409 0 .67-.26.264-.261.264-.666v-3.58h1.573v3.712q0 .662-.316 1.149-.315.482-.88.747-.564.26-1.31.26zm5.613 0q-.755 0-1.32-.222-.56-.226-.872-.693-.311-.467-.315-1.195h1.495q.02.401.276.611.257.207.712.207.378 0 .572-.137.199-.14.199-.354 0-.194-.195-.327-.194-.132-.677-.233l-.584-.125q-.767-.163-1.21-.556-.44-.397-.44-1.079 0-.552.3-.965.3-.416.825-.646.53-.234 1.218-.234.705 0 1.214.238.514.233.79.662.28.424.285.992h-1.51q-.02-.284-.21-.44-.187-.16-.569-.16-.366 0-.533.125-.168.125-.168.32 0 .206.183.334.183.129.596.218l.475.101q.961.203 1.385.658.429.455.429 1.117 0 .86-.627 1.324-.623.459-1.724.459zm2.95-.07v-5.8h2.514q.993 0 1.507.393.517.394.517 1.055 0 .483-.307.83-.308.342-.814.439v.062q.374.012.678.187.307.171.486.479.183.304.183.712 0 .475-.245.849-.245.37-.7.584-.456.21-1.087.21zm1.572-1.254h.74q.794 0 .794-.591 0-.308-.206-.471-.207-.168-.565-.168h-.763zm0-2.203h.647q.31 0 .506-.14.194-.144.194-.412 0-.265-.194-.409-.191-.144-.483-.144h-.67zm5.34 3.457v-5.8h1.573v2.203h2.086v-2.203h1.573v5.8h-1.573v-2.328h-2.086v2.328zm8.478.07q-.747 0-1.312-.261-.56-.265-.876-.747-.311-.487-.311-1.149v-3.713h1.572v3.581q0 .405.261.666.265.26.666.26.409 0 .67-.26.264-.261.264-.666v-3.58h1.572v3.712q0 .662-.315 1.149-.315.482-.88.747-.564.26-1.311.26zm3.254-.07v-5.8h2.514q.993 0 1.506.393.518.394.518 1.055 0 .483-.307.83-.308.342-.814.439v.062q.374.012.677.187.308.171.487.479.183.304.183.712 0 .475-.245.849-.246.37-.701.584-.455.21-1.086.21zm1.572-1.254h.74q.794 0 .794-.591 0-.308-.207-.471-.206-.168-.564-.168h-.763zm0-2.203h.646q.312 0 .506-.14.195-.144.195-.412 0-.265-.195-.409-.19-.144-.482-.144h-.67z" aria-label="Unpowered USB HUB" style="font-weight:900;font-size:7.97128px;line-height:1.25;font-family:Inter;-inkscape-font-specification:&quot;Inter, Heavy&quot;;text-align:center;letter-spacing:0;word-spacing:0;text-anchor:middle;fill:#1a5fb4;stroke-width:2.00001;stroke-linecap:round;stroke-linejoin:round;paint-order:markers fill stroke"/><path d="M224 200a10.167 10.167 135.933 0 1-10.331 10h-39.338A10.167 10.167 135.933 0 0 164 220" style="font-variation-settings:normal;opacity:1;vector-effect:none;fill:none;fill-opacity:1;stroke:#1a5fb4;stroke-width:3;stroke-linecap:butt;stroke-linejoin:miter;stroke-miterlimit:10;stroke-dasharray:none;stroke-dashoffset:0;stroke-opacity:.894118;-inkscape-stroke:none;paint-order:markers fill stroke;stop-color:#000;stop-opacity:1"/><path d="M26.873 220h154.254a2.868 2.868 0 0 1 2.873 2.875v154.25a2.868 2.868 0 0 1-2.873 2.875H26.873A2.868 2.868 0 0 1 24 377.125v-154.25A2.868 2.868 0 0 1 26.873 220Z" style="opacity:1;fill:#5e5c64;stroke:#241f31;stroke-width:3;stroke-miterlimit:10;stroke-opacity:.894118;paint-order:markers fill stroke"/><g aria-label="Novation Launchpad Pro MK3" style="font-size:8px;line-height:1.25;font-family:Inter;-inkscape-font-specification:&quot;Inter, Normal&quot;;text-align:center;letter-spacing:0;word-spacing:0;text-anchor:middle;fill:#fff;stroke-width:2;stroke-linecap:round;stroke-linejoin:round;paint-order:markers fill stroke"><path d="M86.654 295.963v-5.82h.875l2.367 3.722q.118.188.301.508.188.316.387.711-.035-.422-.043-.777-.008-.36-.008-.594v-3.57h.742v5.82h-.882l-2.11-3.313q-.133-.207-.265-.425-.13-.22-.29-.504l-.386-.688.039.98q.02.419.02.63v3.32zm7.719.094q-.594 0-1.043-.282-.445-.28-.695-.789-.25-.508-.25-1.18 0-.683.25-1.19.25-.513.695-.794.45-.281 1.043-.281.598 0 1.047.281.45.281.7.793.25.508.25 1.192 0 .671-.25 1.18-.25.507-.7.788-.45.282-1.047.282zm0-.63q.441 0 .727-.226.285-.226.421-.594.137-.37.137-.8 0-.434-.137-.805-.136-.375-.421-.602-.286-.23-.727-.23-.437 0-.719.23-.281.227-.418.598-.136.371-.136.809 0 .43.136.8.137.368.418.594.282.227.719.227zm4.125.536-1.668-4.367h.77l.93 2.59q.1.285.183.57.082.281.156.555.074-.274.152-.555.083-.285.184-.57l.93-2.59h.77l-1.669 4.367zm4.418.101q-.414 0-.754-.156-.336-.156-.535-.457-.2-.3-.2-.73 0-.375.15-.61.148-.234.394-.367.25-.137.55-.203.301-.066.606-.105.39-.051.637-.079.246-.027.363-.093.121-.067.121-.227v-.023q0-.407-.23-.63-.23-.226-.684-.226-.473 0-.738.207-.266.203-.367.434l-.676-.223q.168-.398.453-.62.285-.227.629-.321.344-.094.68-.094.218 0 .496.055.28.05.539.207.261.156.43.465.171.304.171.816v2.879h-.691v-.594h-.047q-.074.153-.238.317-.164.16-.426.27-.262.109-.633.109zm.121-.62q.39 0 .66-.153.27-.152.41-.395.141-.246.141-.511v-.606q-.043.051-.187.094-.145.04-.332.07-.184.031-.36.055l-.273.031q-.254.031-.477.11-.219.074-.351.222-.133.145-.133.395 0 .34.254.515.257.172.648.172zm4.867-3.848v.601h-.898v2.633q0 .293.117.43.121.133.398.133.067 0 .168-.016.106-.016.192-.031l.144.593q-.109.04-.25.06-.136.019-.273.019-.566 0-.883-.297-.316-.301-.316-.836v-2.688h-.657v-.601h.657v-1.04h.703v1.04zm.899 4.367v-4.367h.703v4.367zm.355-5.082q-.199 0-.344-.137-.144-.137-.144-.328 0-.195.144-.328.145-.137.344-.137.203 0 .348.137.144.133.144.328 0 .191-.144.328-.145.137-.348.137zm3.36 5.176q-.594 0-1.043-.282-.446-.28-.696-.789-.25-.508-.25-1.18 0-.683.25-1.19.25-.513.696-.794.449-.281 1.043-.281.597 0 1.046.281.45.281.7.793.25.508.25 1.192 0 .671-.25 1.18-.25.507-.7.788-.449.282-1.046.282zm0-.63q.441 0 .726-.226t.422-.594q.137-.37.137-.8 0-.434-.137-.805-.137-.375-.422-.602-.285-.23-.726-.23-.438 0-.72.23-.28.227-.417.598-.137.371-.137.809 0 .43.137.8.137.368.418.594.281.227.719.227zm3.722-2.081v2.617h-.703v-4.367h.676l.004.808q.21-.465.55-.664.344-.199.786-.199.664 0 1.07.41t.406 1.238v2.774h-.703v-2.715q0-.504-.265-.79-.262-.284-.72-.284-.472 0-.788.308-.313.305-.313.864zM66.143 305.963v-5.82h.742v5.164h2.695v.656zm5.66.101q-.414 0-.754-.156-.336-.156-.535-.457-.2-.3-.2-.73 0-.375.149-.61.148-.234.394-.367.25-.137.551-.203.301-.066.606-.105.39-.051.636-.079.246-.027.364-.093.12-.067.12-.227v-.023q0-.406-.23-.63-.23-.226-.683-.226-.473 0-.739.207-.265.203-.367.434l-.676-.223q.168-.398.454-.62.285-.227.628-.321.344-.094.68-.094.219 0 .496.055.282.05.54.207.261.156.429.465.172.304.172.816v2.88h-.692v-.595H73.1q-.075.153-.239.317-.164.16-.425.27-.262.109-.633.109zm.12-.62q.391 0 .661-.153.27-.152.41-.395.14-.246.14-.511v-.606q-.042.051-.187.094-.144.04-.332.07-.183.032-.36.055l-.273.031q-.253.031-.476.11-.219.074-.352.222-.133.145-.133.395 0 .34.254.515.258.172.649.172zm4.63.574q-.66 0-1.07-.41-.41-.41-.41-1.239v-2.773h.702v2.715q0 .503.266.789.266.285.723.285.468 0 .78-.305.317-.309.317-.867v-2.617h.707v4.367h-.68v-.817q-.214.477-.562.676-.344.196-.773.196zm3.953-2.672v2.617h-.703v-4.367h.676l.003.808q.211-.465.551-.664.344-.199.785-.199.664 0 1.07.41.407.41.407 1.238v2.774h-.703v-2.715q0-.504-.266-.789-.262-.285-.719-.285-.472 0-.789.308-.312.305-.312.864zm5.8 2.71q-.593 0-1.042-.28-.446-.282-.696-.79-.25-.507-.25-1.18 0-.683.25-1.19.25-.512.696-.794.449-.281 1.043-.281.632 0 1.109.32.48.317.66.887l-.676.191q-.097-.335-.382-.55-.282-.22-.711-.22-.438 0-.72.231-.28.227-.417.598-.137.371-.137.809 0 .43.137.8.137.368.418.594.281.227.719.227.441 0 .726-.223.29-.226.387-.582l.672.191q-.176.582-.66.915-.485.328-1.125.328zm3.497-2.71v2.617H89.1v-5.82h.703v2.21q.215-.437.547-.624.336-.188.765-.188.664 0 1.07.41.41.41.41 1.238v2.774h-.706v-2.715q0-.504-.266-.789-.262-.285-.719-.285-.472 0-.789.308-.312.305-.312.864zm4.027 4.25v-6h.68v.699h.078q.074-.117.207-.293.133-.18.383-.32.25-.141.676-.141.546 0 .96.273.418.274.653.782.238.504.238 1.195 0 .695-.234 1.203-.235.508-.653.785-.414.278-.96.278-.415 0-.669-.141-.253-.145-.39-.324-.137-.184-.211-.305h-.055v2.309zm1.922-2.168q.41 0 .684-.219.277-.223.414-.594.14-.375.14-.832 0-.453-.136-.816-.137-.367-.415-.582-.273-.215-.687-.215-.602 0-.914.445-.313.446-.313 1.168 0 .73.317 1.188.316.457.91.457zm4.277.636q-.414 0-.754-.156-.336-.156-.535-.457-.199-.3-.199-.73 0-.375.148-.61.149-.234.395-.367.25-.137.55-.203.302-.066.606-.105.39-.051.637-.079.246-.027.363-.093.121-.067.121-.227v-.023q0-.406-.23-.63-.23-.226-.684-.226-.472 0-.738.207-.266.203-.367.434l-.676-.223q.168-.398.453-.62.285-.227.629-.321.344-.094.68-.094.218 0 .496.055.281.05.539.207.262.156.43.465.171.304.171.816v2.88h-.69v-.595h-.048q-.074.153-.238.317-.164.16-.426.27-.262.109-.633.109zm.121-.62q.391 0 .66-.153.27-.152.41-.395.141-.246.141-.511v-.606q-.043.051-.187.094-.145.04-.332.07-.184.032-.36.055l-.273.031q-.254.031-.477.11-.218.074-.351.222-.133.145-.133.395 0 .34.254.515.258.172.648.172zm4.786.613q-.543 0-.961-.278-.418-.277-.653-.785-.234-.508-.234-1.203 0-.691.234-1.195.239-.508.657-.782.417-.273.96-.273.426 0 .676.14.25.141.383.321.137.176.207.293h.055v-2.152h.703v5.82h-.68v-.676h-.078q-.07.121-.21.305-.138.18-.391.324-.25.14-.668.14zm.105-.63q.594 0 .91-.456.317-.457.317-1.188 0-.722-.313-1.168-.309-.445-.914-.445-.414 0-.691.215-.274.215-.41.582-.137.363-.137.816 0 .457.136.832.141.371.418.594.278.219.684.219zm5.492.536v-5.82h1.992q.68 0 1.118.25.441.246.652.664.215.418.215.937 0 .52-.215.942-.211.421-.649.671-.437.25-1.117.25h-1.254v2.106zm.742-2.758h1.22q.69 0 .984-.344.292-.347.292-.867 0-.515-.292-.855-.293-.344-.993-.344h-1.21zm4.282 2.758v-4.367h.68v.672h.046q.121-.332.43-.532.312-.203.703-.203.078 0 .184.004.109.004.172.008v.707q-.032-.008-.157-.023-.125-.016-.265-.016-.473 0-.782.29-.308.284-.308.726v2.734zm4.656.094q-.594 0-1.043-.282-.445-.28-.695-.789-.25-.508-.25-1.18 0-.683.25-1.19.25-.513.695-.794.45-.281 1.043-.281.598 0 1.047.281.449.281.699.793.25.508.25 1.192 0 .671-.25 1.18-.25.507-.7.788-.448.282-1.046.282zm0-.63q.441 0 .726-.226.286-.226.422-.594.137-.37.137-.8 0-.434-.137-.805-.136-.375-.422-.602-.285-.23-.726-.23-.438 0-.719.23-.281.227-.418.598-.137.371-.137.809 0 .43.137.8.137.368.418.594.281.227.719.227zm5.355.536v-5.82h1.055l1.434 3.671q.082.211.203.59.12.38.226.735.102-.344.223-.723.121-.383.207-.602l1.414-3.671h1.059v5.82h-.73v-3.324q0-.32.007-.786.008-.464.02-.917-.16.5-.325.972-.16.473-.261.73l-1.301 3.325h-.645l-1.32-3.324q-.098-.246-.258-.711-.156-.47-.328-.98l.016.886q.012.469.012.805v3.324zm7.227 0v-5.82h.742v1.992l-.012 1.07q.243-.316.489-.605.25-.29.515-.579l1.739-1.878h.972l-2.351 2.52 2.355 3.3h-.879l-1.988-2.797-.84.887v1.91zm7.152.078q-.57 0-1.011-.195-.442-.196-.704-.543-.257-.348-.277-.809h.75q.031.414.383.656.351.239.848.239.546 0 .902-.282.36-.28.36-.734 0-.473-.352-.77-.352-.3-1-.3h-.473v-.645h.473q.511 0 .828-.27.32-.273.32-.722 0-.434-.281-.695-.281-.262-.758-.262-.297 0-.559.11-.257.105-.425.304-.164.2-.176.484h-.715q.016-.457.274-.804.257-.348.68-.543.425-.196.937-.196.543 0 .933.22.395.218.606.573.21.356.21.77 0 .492-.261.836-.258.344-.703.476v.047q.558.09.867.469.309.375.309.926 0 .476-.258.851t-.707.594q-.45.215-1.02.215z"/></g><path d="M234 300V200" style="font-variation-settings:normal;opacity:1;vector-effect:none;fill:none;fill-opacity:1;stroke:#1a5fb4;stroke-width:3;stroke-linecap:butt;stroke-linejoin:miter;stroke-miterlimit:10;stroke-dasharray:none;stroke-dashoffset:0;stroke-opacity:.894118;-inkscape-stroke:none;paint-order:markers fill stroke"/><path d="M196.873 300h74.254a2.868 2.868 0 0 1 2.873 2.875v74.25a2.868 2.868 0 0 1-2.873 2.875h-74.254a2.868 2.868 0 0 1-2.873-2.875v-74.25a2.868 2.868 0 0 1 2.873-2.875z" style="opacity:1;vector-effect:none;fill:#5e5c64;stroke:#241f31;stroke-width:3;stroke-miterlimit:10;stroke-opacity:.894118;paint-order:markers fill stroke;stop-color:#000;stop-opacity:1"/><g aria-label="Intech PO16" style="font-size:8px;line-height:1.25;font-family:Inter;-inkscape-font-specification:&quot;Inter, Normal&quot;;text-align:center;letter-spacing:0;word-spacing:0;text-anchor:middle;fill:#fff;stroke-width:2;stroke-linecap:round;stroke-linejoin:round;paint-order:markers fill stroke"><path d="M223.545 330.986v5.82h-.742v-5.82zm2.023 3.203v2.618h-.703v-4.368h.676l.004.81q.211-.466.55-.665.345-.2.786-.2.664 0 1.07.41.407.411.407 1.24v2.773h-.704v-2.715q0-.504-.265-.79-.262-.284-.719-.284-.473 0-.789.308-.313.305-.313.863zm5.743-1.75v.602h-.899v2.633q0 .293.117.43.121.132.399.132.066 0 .168-.015.105-.016.191-.031l.145.593q-.11.04-.25.059-.137.02-.274.02-.566 0-.883-.298-.316-.3-.316-.835v-2.688h-.656v-.602h.656V331.4h.703v1.04zm2.656 4.461q-.633 0-1.094-.28-.457-.282-.707-.786-.246-.504-.246-1.176 0-.672.242-1.183.242-.512.684-.801.445-.29 1.039-.29.347 0 .683.118.34.113.614.371.277.254.441.672.164.418.164 1.023v.293h-3.156q.027.684.39 1.051.368.363.95.363.386 0 .664-.168.281-.171.402-.503l.68.187q-.153.496-.617.805-.461.304-1.133.304zm-1.332-2.632h2.437q-.05-.559-.351-.907-.297-.351-.836-.351-.375 0-.649.176-.27.175-.425.46-.157.286-.176.622zm5.937 2.632q-.593 0-1.043-.28-.445-.282-.695-.79-.25-.508-.25-1.18 0-.683.25-1.191.25-.512.695-.793.45-.281 1.043-.281.633 0 1.11.32.48.316.66.887l-.676.191q-.098-.336-.383-.55-.281-.22-.71-.22-.438 0-.72.231-.28.227-.417.598-.137.37-.137.808 0 .43.137.801.136.367.418.594.28.226.718.226.442 0 .727-.222.289-.227.387-.582l.671.191q-.175.582-.66.914-.484.328-1.125.328zm3.496-2.71v2.617h-.703v-5.82h.703v2.21q.215-.437.547-.625.336-.187.766-.187.664 0 1.07.41.41.41.41 1.238v2.774h-.707v-2.715q0-.504-.265-.79-.262-.284-.72-.284-.472 0-.788.308-.313.305-.313.863zM225.896 346.807v-5.82h1.993q.68 0 1.117.25.441.245.652.663.215.418.215.938t-.215.941q-.21.422-.648.672-.438.25-1.117.25h-1.254v2.106zm.743-2.758h1.218q.692 0 .985-.344.293-.348.293-.867 0-.516-.293-.856-.293-.343-.992-.343h-1.211zm6.726 2.836q-.746 0-1.332-.36-.582-.363-.918-1.03-.336-.673-.336-1.595 0-.925.336-1.593.336-.672.918-1.036.586-.363 1.332-.363.746 0 1.328.363.582.364.914 1.036.336.668.336 1.593 0 .922-.336 1.594-.332.668-.914 1.031-.582.36-1.328.36zm0-.688q.52 0 .938-.261.422-.266.668-.778.25-.515.25-1.258 0-.75-.25-1.261-.246-.516-.668-.778-.418-.265-.938-.265-.523 0-.945.265-.422.266-.672.782-.246.511-.246 1.257 0 .743.246 1.254.25.512.672.778.422.265.945.265zm5.606-5.21v5.82h-.73v-5.133h-.04l-1.406 1.043v-.797l1.266-.934zm3.226 5.898q-.363 0-.726-.133-.364-.133-.664-.445-.297-.313-.477-.848-.18-.535-.18-1.34 0-1.535.575-2.371.574-.84 1.562-.84.488 0 .875.196.387.195.633.542.246.348.316.805h-.726q-.098-.379-.371-.633-.274-.254-.727-.254-.672 0-1.055.582-.378.579-.378 1.63h.046q.235-.364.606-.567.375-.207.828-.207.5 0 .914.246.414.246.66.684.25.433.25.996 0 .543-.242.988-.242.441-.684.707-.441.262-1.035.262zm0-.653q.352 0 .633-.175.281-.176.445-.47.164-.296.164-.66 0-.355-.16-.644-.156-.293-.433-.465-.278-.172-.63-.172-.35 0-.636.18-.285.18-.453.477-.168.293-.168.633 0 .343.16.64.16.293.442.477.28.18.636.18z"/></g></svg>
