<svg
   xmlns:dc="http://purl.org/dc/elements/1.1/"
   xmlns:cc="http://creativecommons.org/ns#"
   xmlns:rdf="http://www.w3.org/1999/02/22-rdf-syntax-ns#"
   xmlns:svg="http://www.w3.org/2000/svg"
   xmlns="http://www.w3.org/2000/svg"
   xmlns:sodipodi="http://sodipodi.sourceforge.net/DTD/sodipodi-0.dtd"
   xmlns:inkscape="http://www.inkscape.org/namespaces/inkscape"
   viewBox="0 0 800 100"
   version="1.1"
   id="symbols"
   sodipodi:docname="symbols.svg"
   inkscape:version="1.0.2 (e86c870879, 2021-01-15)">
  <metadata
     id="metadata52">
    <rdf:RDF>
      <cc:Work
         rdf:about="">
        <dc:format>image/svg+xml</dc:format>
        <dc:type
           rdf:resource="http://purl.org/dc/dcmitype/StillImage" />
      </cc:Work>
    </rdf:RDF>
  </metadata>
  <defs
     id="defs50" />
  <sodipodi:namedview
     pagecolor="#505050"
     bordercolor="#ffffff"
     borderopacity="1"
     objecttolerance="10"
     gridtolerance="10"
     guidetolerance="10"
     inkscape:pageopacity="0"
     inkscape:pageshadow="2"
     inkscape:window-width="640"
     inkscape:window-height="480"
     id="namedview48"
     showgrid="false"
     inkscape:current-layer="symbols"
     inkscape:document-rotation="0" />
  <g
     id="g55" class="symbolic"
     >
    <path
       d="M446.067 38.298a7.5 7.5 0 00-5.277 1.97l-1.512 1.347-1.511-1.348a7.5 7.5 0 10-9.977 11.203l11.488 10.235 11.489-10.235a7.5 7.5 0 00-4.7-13.172z"
       style="line-height:normal;font-variant-ligatures:normal;font-variant-position:normal;font-variant-caps:normal;font-variant-numeric:normal;font-variant-alternates:normal;font-feature-settings:normal;text-indent:0;text-align:start;text-decoration-line:none;text-decoration-style:solid;text-decoration-color:#000;text-transform:none;text-orientation:mixed;white-space:normal;shape-padding:0;isolation:auto;mix-blend-mode:normal;solid-color:#000;solid-opacity:1;"
       color="#000"
       font-weight="400"
       font-family="sans-serif"
       overflow="visible"
     
       id="path2" />
  </g>
  <g
     id="g33"
     class="symbolic"
     >
    <path
       d="M528.597 36.992a1 1 0 00-.176.016h-3.82c-1.108 0-2 .892-2 2s.892 2 2 2h3.543l2.25 12h-.723a1 1 0 00-.07 0c-1.07 0-2.063.573-2.598 1.5a3.004 3.004 0 000 3 3.003 3.003 0 002.598 1.5h1.176a3 3 0 00-.176 1 3 3 0 003 3 3 3 0 003-3 3 3 0 00-.176-1h6.352a3 3 0 00-.176 1 3 3 0 003 3 3 3 0 003-3 3 3 0 00-2.875-2.992 1 1 0 00-.125-.008h-16a.998.998 0 01-.867-1.5c.18-.311.508-.5.867-.5h14c1.294 0 2.414-.618 3.223-1.508.808-.89 1.376-2.036 1.84-3.297.925-2.522 1.423-5.557 1.917-7.996a1 1 0 00-.98-1.2h-19.418l-.598-3.183a1 1 0 00-.988-.832zm1.961 6.016h2.043v2h2v-2h2v2h2v-2h2v2h2v-2h2v2h2v-2h1.734c-.128.655-.268 1.328-.402 2h-1.332v2h.902a24.4 24.4 0 01-.554 2h-.348v.926c-.153.376-.306.757-.477 1.074h-1.523v1.742c-.3.163-.62.258-1 .258h-1v-2h-2v2h-2v-2h-2v2h-2v-2h-2v2h-.168l-.375-2h.543v-2h-.918l-.375-2h1.293v-2h-1.668zm2.043 4v2h2v-2zm2 0h2v-2h-2zm2 0v2h2v-2zm2 0h2v-2h-2zm2 0v2h2v-2zm2 0h2v-2h-2zm2 0v2h2v-2zm0 2h-2v2h2zm-4 0h-2v2h2zm-4 0h-2v2h2z"
       id="path4"
/>
  </g>
  <g
     id="g18"
     class="symbolic"
     >
    <path
       d="M40.05 39.624a2 2 0 00-1.799.966 14.008 14.008 0 00-2.112 7.398 2 2 0 104 0c0-1.868.524-3.7 1.51-5.286a2 2 0 00-1.6-3.078z"
       style="line-height:normal;font-variant-ligatures:normal;font-variant-position:normal;font-variant-caps:normal;font-variant-numeric:normal;font-variant-alternates:normal;font-feature-settings:normal;text-indent:0;text-align:start;text-decoration-line:none;text-decoration-style:solid;text-decoration-color:#000;text-transform:none;text-orientation:mixed;white-space:normal;shape-padding:0;isolation:auto;mix-blend-mode:normal;solid-color:#000;solid-opacity:1"
       color="#000"
       font-weight="400"
       font-family="sans-serif"
       overflow="visible"
       id="path6" />
    <path
       d="M38.107 45.96a2 2 0 00-1.968 2.028v10.126a2 2 0 104 0V47.988a2 2 0 00-2.032-2.028z"
       style="line-height:normal;font-variant-ligatures:normal;font-variant-position:normal;font-variant-caps:normal;font-variant-numeric:normal;font-variant-alternates:normal;font-feature-settings:normal;text-indent:0;text-align:start;text-decoration-line:none;text-decoration-style:solid;text-decoration-color:#000;text-transform:none;text-orientation:mixed;white-space:normal;shape-padding:0;isolation:auto;mix-blend-mode:normal;solid-color:#000;solid-opacity:1"
       font-weight="400"
       font-family="sans-serif"
       overflow="visible"
       fill-rule="evenodd"
       id="path8" />
    <path
       d="M50.14 39.988c-4.397 0-8 3.606-8 8a2 2 0 104 0c0-2.232 1.765-4 4-4 2.231 0 4 1.768 4 4a2 2 0 104 0c0-4.394-3.607-8-8-8z"
       style="line-height:normal;font-variant-ligatures:normal;font-variant-position:normal;font-variant-caps:normal;font-variant-numeric:normal;font-variant-alternates:normal;font-feature-settings:normal;text-indent:0;text-align:start;text-decoration-line:none;text-decoration-style:solid;text-decoration-color:#000;text-transform:none;text-orientation:mixed;white-space:normal;shape-padding:0;isolation:auto;mix-blend-mode:normal;solid-color:#000;solid-opacity:1;"
       
       font-weight="400"
       font-family="sans-serif"
       overflow="visible"
       id="path10" />
    <path
       d="M50.107 45.96a2 2 0 00-1.968 2.028v10s-.002 1.19.288 2.64c.29 1.452.826 3.302 2.298 4.774a2 2 0 102.828-2.828c-.53-.528-.994-1.678-1.204-2.726-.21-1.05-.21-1.86-.21-1.86v-10a2 2 0 00-2.032-2.028zm-6 0a2 2 0 00-1.968 2.028v2a2 2 0 104 0v-2a2 2 0 00-2.032-2.028zm0 8a2 2 0 00-1.968 2.028v6a2 2 0 104 0v-6a2 2 0 00-2.032-2.028zm12-8a2 2 0 00-1.968 2.028v10s.018.88.35 1.882a9.12 9.12 0 002.236 3.532 2 2 0 102.828-2.828c-.766-.764-1.1-1.472-1.266-1.968-.168-.498-.148-.618-.148-.618v-10a2 2 0 00-2.032-2.028zm6 0a2 2 0 00-1.968 2.028v2a2 2 0 104 0v-2a2 2 0 00-2.032-2.028z"
       style="line-height:normal;font-variant-ligatures:normal;font-variant-position:normal;font-variant-caps:normal;font-variant-numeric:normal;font-variant-alternates:normal;font-feature-settings:normal;text-indent:0;text-align:start;text-decoration-line:none;text-decoration-style:solid;text-decoration-color:#000;text-transform:none;text-orientation:mixed;white-space:normal;shape-padding:0;isolation:auto;mix-blend-mode:normal;solid-color:#000;solid-opacity:1"
      
       font-weight="400"
       font-family="sans-serif"
       overflow="visible"
       
       id="path12" />
    <path
       d="M50.283 33.988a13.992 13.992 0 00-6.976 1.78 2 2 0 101.948 3.494 9.994 9.994 0 019.94.1 9.992 9.992 0 014.944 8.626 2 2 0 104 0 14.012 14.012 0 00-6.92-12.078 13.986 13.986 0 00-6.934-1.922z"
       style="line-height:normal;font-variant-ligatures:normal;font-variant-position:normal;font-variant-caps:normal;font-variant-numeric:normal;font-variant-alternates:normal;font-feature-settings:normal;text-indent:0;text-align:start;text-decoration-line:none;text-decoration-style:solid;text-decoration-color:#000;text-transform:none;text-orientation:mixed;white-space:normal;shape-padding:0;isolation:auto;mix-blend-mode:normal;solid-color:#000;solid-opacity:1"
       
       font-weight="400"
       font-family="sans-serif"
       overflow="visible"
       id="path14" />
    <path
       d="M64.14 55.988a2 2 0 01-2 2 2 2 0 01-2-2 2 2 0 012-2 2 2 0 012 2z"
       id="path16"
        />
  </g>
  <g
     id="g58"
     class="symbolic"
     >
    <path
       d="M139.431 34c-4 0-4 4-4 4v24c0 4 4 4 4 4h16s4 0 4-4V40l-6-6zm2 12l1.996.012v4h-4l.004-2.012s0-2 2-2zm12 0c2 0 2 2 2 2l-.004 2.004h-4v-4zm-8.004.012h4v4h-4zm-6 5.992h16V56h.004v4c0 2-2 2-2 2l-2.004-.004.004-5.992h-12.004zm12.004 4h3.996V56h-3.996zm-12.004 2h4v4L141.431 62c-2 0-2-2-2-2zm6 0h4v4h-4z"
       
       id="path20"
        />
  </g>
  <g
     id="g61"
     class="symbolic"
     >
    <path
       d="M236.724 43.013a1 1 0 00-1 1v5.938a9.032 9.032 0 006 8.5v2.562h-4c-1.13 0-2 .98-2 2v2h18v-2c0-1.168-.952-2-2-2h-4v-2.562a9.032 9.032 0 006-8.5v-5.938a1 1 0 00-2 0c0 .138.012.256.062.376v5.56a7.042 7.042 0 01-7.06 7.064c-3.908 0-7.002-3.134-7.002-7.062v-5.938a1 1 0 00-1-1zm8-8.026c2.77 0 5 2.23 5 5v10.026c0 2.77-2.23 5-5 5a4.99 4.99 0 01-5-5V39.987c0-2.77 2.23-5 5-5z"
       style="line-height:normal;-inkscape-font-specification:Sans;text-indent:0;text-align:start;text-decoration-line:none;text-transform:none;marker:none"
       
       font-weight="400"
       font-family="Sans"
       overflow="visible"
       
       id="path22" />
  </g>
  <g
     
     id="g32"
     class="symbolic"
     >
    <path
       d="M334.986 35.972a2 2 0 00-1.97 2.028v1a2 2 0 00.146.742l6 15A2 2 0 00341.016 56h6.614l2.516 6.704a2 2 0 001.87 1.296h3a2 2 0 100-4h-1.612l-2.516-6.704A2 2 0 00349.016 52h-6.644l-5.356-13.386V38a2 2 0 00-2.03-2.028z"
       style="line-height:normal;font-variant-ligatures:normal;font-variant-position:normal;font-variant-caps:normal;font-variant-numeric:normal;font-variant-alternates:normal;font-feature-settings:normal;text-indent:0;text-align:start;text-decoration-line:none;text-decoration-style:solid;text-decoration-color:#000;text-transform:none;text-orientation:mixed;white-space:normal;shape-padding:0;isolation:auto;mix-blend-mode:normal;solid-color:#000;solid-opacity:1"
       color="#000"
       font-weight="400"
       font-family="sans-serif"
       overflow="visible"
       
       id="path24" />
    <path
       d="M341.016 38a4 4 0 01-4 4 4 4 0 01-4-4 4 4 0 014-4 4 4 0 014 4z"
       id="path26"
      />
    <path
       d="M333.384 45.04c-3.75 1.756-6.368 5.56-6.368 9.96 0 6.052 4.95 11 11 11 4.006 0 7.428-2.214 9.314-5.45L346.31 58h-1.984c-1.12 2.366-3.5 4-6.31 4a6.97 6.97 0 01-7-7c0-2.72 1.538-5.03 3.78-6.192z"
       style="line-height:normal;font-variant-ligatures:normal;font-variant-position:normal;font-variant-caps:normal;font-variant-numeric:normal;font-variant-alternates:normal;font-feature-settings:normal;text-indent:0;text-align:start;text-decoration-line:none;text-decoration-style:solid;text-decoration-color:#000;text-transform:none;text-orientation:mixed;white-space:normal;shape-padding:0;isolation:auto;mix-blend-mode:normal;solid-color:#000;solid-opacity:1"
       
       font-weight="400"
       font-family="sans-serif"
       overflow="visible"
       id="path28" />
    <path
       d="M339.016 46a2 2 0 100 4h8a2 2 0 100-4z"
       style="line-height:normal;font-variant-ligatures:normal;font-variant-position:normal;font-variant-caps:normal;font-variant-numeric:normal;font-variant-alternates:normal;font-feature-settings:normal;text-indent:0;text-align:start;text-decoration-line:none;text-decoration-style:solid;text-decoration-color:#000;text-transform:none;text-orientation:mixed;white-space:normal;shape-padding:0;isolation:auto;mix-blend-mode:normal;solid-color:#000;solid-opacity:1"
       
       font-weight="400"
       font-family="sans-serif"
       overflow="visible"
       
       id="path30" />
  </g>
  <g
     
     id="g42"
     class="symbolic"
     >
    <path
       d="M618.894 44h4.968l5.94-6h1.092v24h-.95l-6.08-6h-4.97z"
       style="marker:none"
       
       overflow="visible"
       id="path34" />
    <path
       d="M648.894 50c0-5.628-2-10.344-5.172-14h-2.828v2.96c2.53 3.04 4 6.44 4 11.04 0 4.6-1.56 8-4 11.04V64h2.762c2.932-3.28 5.238-8.372 5.238-14z"
       style="marker:none"
       color="#000"
       overflow="visible"
       id="path36" />
    <path
       d="M642.894 50c0-4.332-1.478-8.04-4-10h-2v4c1.214 1.578 2 3.52 2 6 0 2.482-.786 4.44-2 6v4h2c2.446-1.99 4-5.746 4-10z"
       style="marker:none"
       overflow="visible"
       id="path38" />
    <path
       d="M636.894 50c0-2.514-.624-4.432-2-6h-2v12h2c1.344-1.674 2-3.484 2-6z"
       style="line-height:normal;-inkscape-font-specification:Sans;text-indent:0;text-align:start;text-decoration-line:none;text-transform:none;marker:none"
       font-weight="400"
       font-family="Sans"
       overflow="visible"
       id="path40" />
  </g>
  <g
     id="g64"
     class="symbolic"
     >
    <path
       d="M727.186 41h16c1.108 0 2 .892 2 2v14c0 1.108-.892 2-2 2h-16c-1.108 0-2-.892-2-2V43c0-1.108.892-2 2-2zm-2 8.94l-6.94-6.94h-1.06v14h1z"
       style="marker:none"
       overflow="visible"
       id="path44" />
  </g>
</svg>
