<?xml version="1.0" encoding="UTF-8" standalone="no"?>
<!-- Created with Inkscape (http://www.inkscape.org/) -->

<svg
   inkscape:export-ydpi="96"
   inkscape:export-xdpi="96"
   inkscape:export-filename="chapterize.webp"
   width="480"
   height="300"
   id="svg11300"
   sodipodi:version="0.32"
   inkscape:version="1.4.4 (dcaf3e7d9e, 2026-05-05)"
   sodipodi:docname="chapterize.svg"
   inkscape:output_extension="org.inkscape.output.svg.inkscape"
   version="1.0"
   style="display:inline;enable-background:new"
   viewBox="0 0 480 300"
   xml:space="preserve"
   xmlns:inkscape="http://www.inkscape.org/namespaces/inkscape"
   xmlns:sodipodi="http://sodipodi.sourceforge.net/DTD/sodipodi-0.dtd"
   xmlns:xlink="http://www.w3.org/1999/xlink"
   xmlns="http://www.w3.org/2000/svg"
   xmlns:svg="http://www.w3.org/2000/svg"
   xmlns:rdf="http://www.w3.org/1999/02/22-rdf-syntax-ns#"
   xmlns:cc="http://creativecommons.org/ns#"
   xmlns:dc="http://purl.org/dc/elements/1.1/"><title
     id="title4162">Adwaita Icon Template</title><defs
     id="defs3"><inkscape:path-effect
       effect="fillet_chamfer"
       id="path-effect30"
       is_visible="true"
       lpeversion="1"
       nodesatellites_param="F,0,0,1,0,0,0,1 @ F,0,1,1,0,1,0,1 @ F,0,0,1,0,1,0,1 @ F,0,0,1,0,0,0,1 @ F,0,0,1,0,1,0,1 @ F,0,0,1,0,1,0,1"
       radius="0"
       unit="px"
       method="auto"
       mode="F"
       chamfer_steps="1"
       flexible="false"
       use_knot_distance="true"
       apply_no_radius="true"
       apply_with_radius="true"
       only_selected="false"
       hide_knots="false" /><inkscape:path-effect
       effect="fillet_chamfer"
       id="path-effect29"
       is_visible="true"
       lpeversion="1"
       nodesatellites_param="F,0,0,1,0,0,0,1 @ F,0,0,1,0,2,0,1 @ F,0,0,1,0,0,0,1"
       radius="0"
       unit="px"
       method="auto"
       mode="F"
       chamfer_steps="1"
       flexible="false"
       use_knot_distance="true"
       apply_no_radius="true"
       apply_with_radius="true"
       only_selected="false"
       hide_knots="false" /><inkscape:path-effect
       effect="fillet_chamfer"
       id="path-effect28"
       is_visible="true"
       lpeversion="1"
       nodesatellites_param="F,0,0,1,0,0,0,1 @ F,0,0,1,0,2,0,1 @ F,0,1,1,0,2,0,1 @ F,0,0,1,0,0,0,1"
       radius="0"
       unit="px"
       method="auto"
       mode="F"
       chamfer_steps="1"
       flexible="false"
       use_knot_distance="true"
       apply_no_radius="true"
       apply_with_radius="true"
       only_selected="false"
       hide_knots="false" /><linearGradient
       id="linearGradient10"
       inkscape:collect="always"><stop
         style="stop-color:#27a56b;stop-opacity:1"
         offset="0"
         id="stop10" /><stop
         style="stop-color:#8ff0a4;stop-opacity:1;"
         offset="0.15397574"
         id="stop24" /><stop
         style="stop-color:#77cd88;stop-opacity:1;"
         offset="0.83594269"
         id="stop15" /><stop
         style="stop-color:#8ff0a4;stop-opacity:1;"
         offset="0.93132949"
         id="stop12" /><stop
         style="stop-color:#32ce7b;stop-opacity:1"
         offset="1"
         id="stop11" /></linearGradient><linearGradient
       id="linearGradient8"
       inkscape:collect="always"><stop
         style="stop-color:#166a42;stop-opacity:1;"
         offset="0"
         id="stop8" /><stop
         style="stop-color:#26a269;stop-opacity:1;"
         offset="1"
         id="stop9" /></linearGradient><linearGradient
       id="linearGradient4"
       inkscape:collect="always"><stop
         style="stop-color:#563468;stop-opacity:1;"
         offset="0"
         id="stop3" /><stop
         style="stop-color:#803d9b;stop-opacity:1;"
         offset="1"
         id="stop4" /></linearGradient><linearGradient
       id="linearGradient1"
       inkscape:collect="always"><stop
         style="stop-color:#5d1e00;stop-opacity:1;"
         offset="0"
         id="stop1" /><stop
         style="stop-color:#c64600;stop-opacity:1;"
         offset="1"
         id="stop2" /></linearGradient><linearGradient
       id="linearGradient47"
       inkscape:collect="always"><stop
         style="stop-color:#165e3d;stop-opacity:1;"
         offset="0"
         id="stop46" /><stop
         style="stop-color:#000000;stop-opacity:0;"
         offset="1"
         id="stop47" /></linearGradient><linearGradient
       id="linearGradient42"
       inkscape:collect="always"><stop
         style="stop-color:#249b5a;stop-opacity:1;"
         offset="0"
         id="stop42" /><stop
         style="stop-color:#8ff0a4;stop-opacity:1"
         offset="0.08227545"
         id="stop44" /><stop
         style="stop-color:#2ec27e;stop-opacity:1"
         offset="0.27425149"
         id="stop45" /><stop
         style="stop-color:#33d17a;stop-opacity:1;"
         offset="1"
         id="stop43" /></linearGradient><linearGradient
       id="linearGradient40"
       inkscape:collect="always"><stop
         style="stop-color:#bb8ad1;stop-opacity:1;"
         offset="0"
         id="stop40" /><stop
         style="stop-color:#d2b1e0;stop-opacity:1;"
         offset="1"
         id="stop41" /></linearGradient><linearGradient
       id="linearGradient37"
       inkscape:collect="always"><stop
         style="stop-color:#000000;stop-opacity:1;"
         offset="0"
         id="stop37" /><stop
         style="stop-color:#000000;stop-opacity:0;"
         offset="1"
         id="stop38" /></linearGradient><inkscape:path-effect
       effect="fillet_chamfer"
       id="path-effect34"
       is_visible="true"
       lpeversion="1"
       nodesatellites_param="F,0,0,1,0,0,0,1 @ F,0,0,1,0,7.1814014,0,1 @ F,0,0,1,0,7.1814014,0,1 @ F,0,0,1,0,0,0,1"
       radius="0"
       unit="px"
       method="auto"
       mode="F"
       chamfer_steps="1"
       flexible="false"
       use_knot_distance="true"
       apply_no_radius="true"
       apply_with_radius="true"
       only_selected="false"
       hide_knots="false" /><inkscape:path-effect
       effect="fillet_chamfer"
       id="path-effect27"
       is_visible="true"
       lpeversion="1"
       nodesatellites_param="F,0,0,1,0,0,0,1 @ F,0,0,1,0,7.1814014,0,1 @ F,0,0,1,0,7.1814014,0,1 @ F,0,0,1,0,0,0,1"
       radius="0"
       unit="px"
       method="auto"
       mode="F"
       chamfer_steps="1"
       flexible="false"
       use_knot_distance="true"
       apply_no_radius="true"
       apply_with_radius="true"
       only_selected="false"
       hide_knots="false" /><linearGradient
       id="linearGradient22"
       inkscape:collect="always"><stop
         style="stop-color:#ffffff;stop-opacity:1"
         offset="0"
         id="stop22" /><stop
         style="stop-color:#9a9996;stop-opacity:1"
         offset="1"
         id="stop23" /></linearGradient><linearGradient
       id="linearGradient19"
       inkscape:collect="always"><stop
         style="stop-color:#beb4ac;stop-opacity:1;"
         offset="0"
         id="stop20" /><stop
         style="stop-color:#f6f5f4;stop-opacity:1;"
         offset="1"
         id="stop21" /></linearGradient><linearGradient
       id="linearGradient16"
       inkscape:collect="always"><stop
         style="stop-color:#613583;stop-opacity:1"
         offset="0"
         id="stop16" /><stop
         style="stop-color:#c061cb;stop-opacity:1"
         offset="0.08242613"
         id="stop18" /><stop
         style="stop-color:#673688;stop-opacity:1;"
         offset="0.17418352"
         id="stop19" /><stop
         style="stop-color:#813d9c;stop-opacity:1"
         offset="1"
         id="stop17" /></linearGradient><linearGradient
       id="linearGradient13"
       inkscape:collect="always"><stop
         style="stop-color:#bb8ad1;stop-opacity:1;"
         offset="0"
         id="stop13" /><stop
         style="stop-color:#803d9b;stop-opacity:1"
         offset="1"
         id="stop14" /></linearGradient><inkscape:path-effect
       effect="fillet_chamfer"
       id="path-effect10"
       is_visible="true"
       lpeversion="1"
       nodesatellites_param="F,0,1,1,0,2.4658252,0,1 @ F,0,1,1,0,2.4658252,0,1 @ F,0,1,1,0,2.4658252,0,1 @ F,0,1,1,0,2.4658252,0,1 @ F,0,0,1,0,2.4658252,0,1 @ F,0,1,1,0,2.4658252,0,1"
       radius="0"
       unit="px"
       method="auto"
       mode="F"
       chamfer_steps="1"
       flexible="false"
       use_knot_distance="true"
       apply_no_radius="true"
       apply_with_radius="true"
       only_selected="false"
       hide_knots="false" /><inkscape:path-effect
       effect="fillet_chamfer"
       id="path-effect8"
       is_visible="true"
       lpeversion="1"
       nodesatellites_param="F,0,0,1,0,0,0,1 @ F,0,0,1,0,7.1814014,0,1 @ F,0,0,1,0,7.1814014,0,1 @ F,0,0,1,0,0,0,1"
       radius="0"
       unit="px"
       method="auto"
       mode="F"
       chamfer_steps="1"
       flexible="false"
       use_knot_distance="true"
       apply_no_radius="true"
       apply_with_radius="true"
       only_selected="false"
       hide_knots="false" /><inkscape:path-effect
       effect="fillet_chamfer"
       id="path-effect6"
       is_visible="true"
       lpeversion="1"
       nodesatellites_param="F,0,0,1,0,0,0,1 @ F,0,0,1,0,7.1814014,0,1 @ F,0,0,1,0,7.1814014,0,1 @ F,0,0,1,0,0,0,1"
       radius="0"
       unit="px"
       method="auto"
       mode="F"
       chamfer_steps="1"
       flexible="false"
       use_knot_distance="true"
       apply_no_radius="true"
       apply_with_radius="true"
       only_selected="false"
       hide_knots="false" /><inkscape:path-effect
       effect="fillet_chamfer"
       id="path-effect2"
       is_visible="true"
       lpeversion="1"
       nodesatellites_param="F,0,0,1,0,0,0,1 @ F,0,0,1,0,6.0546019,0,1 @ F,0,1,1,0,6.0546019,0,1 @ F,0,0,1,0,0,0,1 @ F,0,0,1,0,0,0,1 @ F,0,0,1,0,0,0,1"
       radius="0"
       unit="px"
       method="auto"
       mode="F"
       chamfer_steps="1"
       flexible="false"
       use_knot_distance="true"
       apply_no_radius="true"
       apply_with_radius="true"
       only_selected="false"
       hide_knots="false" /><inkscape:path-effect
       effect="fillet_chamfer"
       id="path-effect1"
       is_visible="true"
       lpeversion="1"
       nodesatellites_param="F,0,0,1,0,0,0,1 @ F,0,0,1,0,7.1814014,0,1 @ F,0,0,1,0,7.1814014,0,1 @ F,0,0,1,0,0,0,1"
       radius="0"
       unit="px"
       method="auto"
       mode="F"
       chamfer_steps="1"
       flexible="false"
       use_knot_distance="true"
       apply_no_radius="true"
       apply_with_radius="true"
       only_selected="false"
       hide_knots="false" /><clipPath
       clipPathUnits="userSpaceOnUse"
       id="clipPath1609-3-1-6"><path
         sodipodi:nodetypes="cccccc"
         inkscape:connector-curvature="0"
         id="path1611-6-6-8"
         d="m 252,116 28,-28 v -8 h -36 v 36 z"
         style="fill:#e74747;stroke:none;stroke-width:0.25px;stroke-linecap:butt;stroke-linejoin:miter;stroke-opacity:1" /></clipPath><inkscape:path-effect
       effect="fillet_chamfer"
       id="path-effect13944"
       is_visible="true"
       lpeversion="1"
       satellites_param="F,0,0,1,0,8,0,1 @ F,0,0,1,0,0,0,1 @ F,0,0,1,0,0,0,1 @ F,0,0,1,0,0,0,1 @ F,0,0,1,0,0,0,1 @ F,0,0,1,0,0,0,1 @ F,0,0,1,0,0,0,1 @ F,0,0,1,0,0,0,1 @ F,0,0,1,0,0,0,1"
       unit="px"
       method="auto"
       mode="F"
       radius="0"
       chamfer_steps="1"
       flexible="false"
       use_knot_distance="true"
       apply_no_radius="true"
       apply_with_radius="true"
       only_selected="false"
       hide_knots="false"
       nodesatellites_param="F,0,0,1,0,8,0,1 @ F,0,0,1,0,0,0,1 @ F,0,0,1,0,0,0,1 @ F,0,0,1,0,0,0,1 @ F,0,0,1,0,0,0,1 @ F,0,0,1,0,0,0,1 @ F,0,0,1,0,0,0,1 @ F,0,0,1,0,0,0,1 @ F,0,0,1,0,0,0,1" /><clipPath
       clipPathUnits="userSpaceOnUse"
       id="clipPath1609-3-1-6-9"><path
         sodipodi:nodetypes="cccccc"
         inkscape:connector-curvature="0"
         id="path1611-6-6-8-3"
         d="m 252,116 28,-28 v -8 h -36 v 36 z"
         style="fill:#e74747;stroke:none;stroke-width:0.25px;stroke-linecap:butt;stroke-linejoin:miter;stroke-opacity:1" /></clipPath><clipPath
       clipPathUnits="userSpaceOnUse"
       id="clipPath28140"><path
         sodipodi:nodetypes="cccccc"
         inkscape:connector-curvature="0"
         id="path28142"
         d="M 244.36364,123.63637 280,88.000003 V 77.818198 h -45.81817 v 45.818172 z"
         style="fill:#e74747;stroke:none;stroke-width:0.250001px;stroke-linecap:butt;stroke-linejoin:miter;stroke-opacity:1" /></clipPath><clipPath
       clipPathUnits="userSpaceOnUse"
       id="clipPath28145"><path
         sodipodi:nodetypes="cccccc"
         inkscape:connector-curvature="0"
         id="path28147"
         d="M 244.36364,123.63637 280,88.000003 v -8.000007 h -43.63636 v 43.636374 z"
         style="fill:#e74747;stroke:none;stroke-width:0.250001px;stroke-linecap:butt;stroke-linejoin:miter;stroke-opacity:1" /></clipPath><inkscape:path-effect
       effect="fillet_chamfer"
       id="path-effect2-3"
       is_visible="true"
       lpeversion="1"
       nodesatellites_param="F,0,0,1,0,0,0,1 @ F,0,0,1,0,6.0546019,0,1 @ F,0,1,1,0,6.0546019,0,1 @ F,0,0,1,0,0,0,1 @ F,0,0,1,0,0,0,1 @ F,0,0,1,0,0,0,1"
       radius="0"
       unit="px"
       method="auto"
       mode="F"
       chamfer_steps="1"
       flexible="false"
       use_knot_distance="true"
       apply_no_radius="true"
       apply_with_radius="true"
       only_selected="false"
       hide_knots="false" /><clipPath
       clipPathUnits="userSpaceOnUse"
       id="clipPath2"><path
         id="path2"
         style="font-variation-settings:'opsz' 32, 'wght' 900;display:inline;fill:#9141ac;stroke-width:2;stroke-linecap:round;stroke-linejoin:round;stroke-miterlimit:3.1;paint-order:markers fill stroke;enable-background:new"
         d="m 33.974057,182.25134 h 64.411731 a 6.0546019,6.0546019 45 0 1 6.054602,6.0546 v 53.74012 a 6.0546019,6.0546019 135 0 1 -6.054602,6.0546 H 33.974057 c -6.555831,0 -11.83363,-5.2778 -11.83363,-11.83363 v -42.18206 c 0,-6.55583 5.277799,-11.83363 11.83363,-11.83363 z"
         sodipodi:nodetypes="sccssss"
         inkscape:path-effect="#path-effect2-3"
         inkscape:original-d="m 33.974057,182.25134 h 70.466333 v 65.84932 H 33.974057 c -6.555831,0 -11.83363,-5.2778 -11.83363,-11.83363 v -42.18206 c 0,-6.55583 5.277799,-11.83363 11.83363,-11.83363 z" /></clipPath><linearGradient
       inkscape:collect="always"
       xlink:href="#linearGradient13"
       id="linearGradient12"
       x1="89.757515"
       y1="235.90306"
       x2="103.98804"
       y2="234.66563"
       gradientUnits="userSpaceOnUse" /><linearGradient
       inkscape:collect="always"
       xlink:href="#linearGradient16"
       id="linearGradient17"
       x1="20.125"
       y1="219.125"
       x2="102.75"
       y2="219.125"
       gradientUnits="userSpaceOnUse" /><linearGradient
       inkscape:collect="always"
       xlink:href="#linearGradient19"
       id="linearGradient21"
       x1="55.521339"
       y1="272.00879"
       x2="55.521339"
       y2="277.13531"
       gradientUnits="userSpaceOnUse" /><linearGradient
       inkscape:collect="always"
       xlink:href="#linearGradient22"
       id="linearGradient23"
       x1="94.985641"
       y1="239"
       x2="97.113869"
       y2="229.375"
       gradientUnits="userSpaceOnUse" /><linearGradient
       inkscape:collect="always"
       xlink:href="#linearGradient22"
       id="linearGradient27"
       gradientUnits="userSpaceOnUse"
       x1="94.985641"
       y1="239"
       x2="97.113869"
       y2="229.375" /><linearGradient
       inkscape:collect="always"
       xlink:href="#linearGradient19"
       id="linearGradient28"
       gradientUnits="userSpaceOnUse"
       x1="55.521339"
       y1="272.00879"
       x2="55.521339"
       y2="277.13531" /><linearGradient
       inkscape:collect="always"
       xlink:href="#linearGradient22"
       id="linearGradient34"
       gradientUnits="userSpaceOnUse"
       x1="94.985641"
       y1="239"
       x2="97.113869"
       y2="229.375" /><linearGradient
       inkscape:collect="always"
       xlink:href="#linearGradient19"
       id="linearGradient35"
       gradientUnits="userSpaceOnUse"
       x1="55.521339"
       y1="272.00879"
       x2="55.521339"
       y2="277.13531" /><linearGradient
       inkscape:collect="always"
       xlink:href="#linearGradient37"
       id="linearGradient38"
       x1="87.105865"
       y1="223.97064"
       x2="109.73328"
       y2="223.97064"
       gradientUnits="userSpaceOnUse"
       gradientTransform="translate(154.27366,10.712419)" /><linearGradient
       inkscape:collect="always"
       xlink:href="#linearGradient47"
       id="linearGradient39"
       gradientUnits="userSpaceOnUse"
       x1="87.105865"
       y1="223.97064"
       x2="113.97591"
       y2="223.97064"
       gradientTransform="translate(-293.11965,32.809503)" /><linearGradient
       inkscape:collect="always"
       xlink:href="#linearGradient40"
       id="linearGradient41"
       x1="60.412579"
       y1="201.6084"
       x2="62.357124"
       y2="196.8354"
       gradientUnits="userSpaceOnUse"
       gradientTransform="matrix(0.83613651,0,0,0.83613651,163.87043,43.798735)" /><linearGradient
       inkscape:collect="always"
       xlink:href="#linearGradient42"
       id="linearGradient43"
       x1="20.354782"
       y1="216.40953"
       x2="81.612556"
       y2="216.40953"
       gradientUnits="userSpaceOnUse" /><linearGradient
       inkscape:collect="always"
       xlink:href="#linearGradient1"
       id="linearGradient2"
       x1="102.89281"
       y1="224.85683"
       x2="104.93078"
       y2="238.07561"
       gradientUnits="userSpaceOnUse" /><linearGradient
       inkscape:collect="always"
       xlink:href="#linearGradient4"
       id="linearGradient3"
       x1="43.730637"
       y1="226.30907"
       x2="46.421089"
       y2="249.40254"
       gradientUnits="userSpaceOnUse" /><linearGradient
       inkscape:collect="always"
       xlink:href="#linearGradient8"
       id="linearGradient9"
       x1="101.43543"
       y1="223.59901"
       x2="104.64961"
       y2="240.04785"
       gradientUnits="userSpaceOnUse" /><linearGradient
       inkscape:collect="always"
       xlink:href="#linearGradient10"
       id="linearGradient11"
       x1="22.291437"
       y1="227.31029"
       x2="104.44039"
       y2="227.31029"
       gradientUnits="userSpaceOnUse" /><filter
       inkscape:collect="always"
       style="color-interpolation-filters:sRGB"
       id="filter3"
       x="-0.27076949"
       y="-0.41077139"
       width="1.541539"
       height="1.8215428"><feGaussianBlur
         inkscape:collect="always"
         stdDeviation="9.1379907"
         id="feGaussianBlur3" /></filter><filter
       inkscape:collect="always"
       style="color-interpolation-filters:sRGB"
       id="filter4"
       x="-0.54022282"
       y="-0.81954609"
       width="2.0804456"
       height="2.6390922"><feGaussianBlur
         inkscape:collect="always"
         stdDeviation="18.231564"
         id="feGaussianBlur4" /></filter></defs><sodipodi:namedview
     stroke="#ef2929"
     fill="#f57900"
     id="base"
     pagecolor="#ffffff"
     bordercolor="#666666"
     borderopacity="0.25490196"
     inkscape:pageopacity="0.0"
     inkscape:pageshadow="2"
     inkscape:zoom="1"
     inkscape:cx="261"
     inkscape:cy="182.5"
     inkscape:current-layer="layer9"
     showgrid="false"
     inkscape:grid-bbox="true"
     inkscape:document-units="px"
     inkscape:showpageshadow="false"
     inkscape:window-width="2141"
     inkscape:window-height="1190"
     inkscape:window-x="26"
     inkscape:window-y="23"
     width="400px"
     height="300px"
     inkscape:snap-nodes="true"
     inkscape:snap-bbox="true"
     objecttolerance="7"
     gridtolerance="12"
     guidetolerance="13"
     inkscape:window-maximized="0"
     inkscape:pagecheckerboard="false"
     showguides="false"
     inkscape:guide-bbox="true"
     inkscape:locked="false"
     inkscape:measure-start="0,0"
     inkscape:measure-end="0,0"
     inkscape:object-nodes="true"
     inkscape:bbox-nodes="true"
     inkscape:snap-global="true"
     inkscape:object-paths="true"
     inkscape:snap-intersection-paths="true"
     inkscape:snap-bbox-edge-midpoints="true"
     inkscape:snap-bbox-midpoints="true"
     showborder="true"
     inkscape:snap-center="true"
     inkscape:snap-object-midpoints="true"
     inkscape:snap-midpoints="true"
     inkscape:snap-smooth-nodes="true"
     inkscape:snap-text-baseline="true"
     borderlayer="true"
     inkscape:deskcolor="#d1d1d1"><inkscape:grid
       type="xygrid"
       id="grid5883"
       spacingx="2"
       spacingy="2"
       enabled="true"
       visible="false"
       empspacing="4"
       originx="8"
       originy="8"
       units="px" /><sodipodi:guide
       position="72,64"
       orientation="0,1"
       id="guide1073"
       inkscape:locked="false"
       inkscape:label=""
       inkscape:color="rgb(0,0,255)" /><sodipodi:guide
       position="20,120"
       orientation="1,0"
       id="guide1075"
       inkscape:locked="false"
       inkscape:label=""
       inkscape:color="rgb(0,0,255)" /><sodipodi:guide
       position="72,160"
       orientation="0,1"
       id="guide1099"
       inkscape:locked="false"
       inkscape:label=""
       inkscape:color="rgb(0,0,255)" /><sodipodi:guide
       position="72,184"
       orientation="0,1"
       id="guide993"
       inkscape:locked="false"
       inkscape:label=""
       inkscape:color="rgb(0,0,255)" /><sodipodi:guide
       position="112,120"
       orientation="1,0"
       id="guide995"
       inkscape:locked="false"
       inkscape:label=""
       inkscape:color="rgb(0,0,255)" /><sodipodi:guide
       position="8.0000001,120"
       orientation="1,0"
       id="guide867"
       inkscape:locked="false"
       inkscape:label=""
       inkscape:color="rgb(0,0,255)" /><sodipodi:guide
       position="128,120"
       orientation="1,0"
       id="guide869"
       inkscape:locked="false"
       inkscape:label=""
       inkscape:color="rgb(0,0,255)" /><sodipodi:guide
       position="72,172"
       orientation="0,1"
       id="guide871"
       inkscape:locked="false"
       inkscape:label=""
       inkscape:color="rgb(0,0,255)" /><inkscape:grid
       type="xygrid"
       id="grid873"
       spacingx="1"
       spacingy="1"
       empspacing="8"
       color="#000000"
       opacity="0.49019608"
       empcolor="#000000"
       empopacity="0.08627451"
       dotted="true"
       originx="8"
       originy="8"
       units="px"
       visible="false" /><sodipodi:guide
       position="32,120"
       orientation="1,0"
       id="guide877"
       inkscape:locked="false"
       inkscape:label=""
       inkscape:color="rgb(0,0,255)" /><sodipodi:guide
       position="124,120"
       orientation="1,0"
       id="guide879"
       inkscape:locked="false"
       inkscape:label=""
       inkscape:color="rgb(0,0,255)" /><sodipodi:guide
       position="72,176"
       orientation="0,1"
       id="guide881"
       inkscape:locked="false"
       inkscape:label=""
       inkscape:color="rgb(0,0,255)" /><sodipodi:guide
       position="72,68"
       orientation="0,1"
       id="guide883"
       inkscape:locked="false"
       inkscape:label=""
       inkscape:color="rgb(0,0,255)" /><sodipodi:guide
       position="16,120"
       orientation="1,0"
       id="guide885"
       inkscape:locked="false"
       inkscape:label=""
       inkscape:color="rgb(0,0,255)" /><sodipodi:guide
       position="136,120"
       orientation="1,0"
       id="guide887"
       inkscape:locked="false"
       inkscape:label=""
       inkscape:color="rgb(0,0,255)" /><sodipodi:guide
       position="72,56"
       orientation="0,1"
       id="guide897"
       inkscape:locked="false"
       inkscape:label=""
       inkscape:color="rgb(0,0,255)" /><sodipodi:guide
       position="72,80"
       orientation="0,1"
       id="guide899"
       inkscape:locked="false"
       inkscape:label=""
       inkscape:color="rgb(0,0,255)" /><sodipodi:guide
       position="264,312"
       orientation="-0.70710678,0.70710678"
       id="guide950"
       inkscape:locked="false"
       inkscape:label=""
       inkscape:color="rgb(0,0,255)" /><sodipodi:guide
       position="72,120"
       orientation="0.70710678,0.70710678"
       id="guide952"
       inkscape:locked="false"
       inkscape:label=""
       inkscape:color="rgb(0,0,255)" /></sodipodi:namedview><metadata
     id="metadata4"><rdf:RDF><cc:Work
         rdf:about=""><dc:format>image/svg+xml</dc:format><dc:type
           rdf:resource="http://purl.org/dc/dcmitype/StillImage" /><dc:creator><cc:Agent><dc:title>GNOME Design Team</dc:title></cc:Agent></dc:creator><dc:source /><cc:license
           rdf:resource="http://creativecommons.org/licenses/by-sa/4.0/" /><dc:title>Adwaita Icon Template</dc:title><dc:subject><rdf:Bag /></dc:subject><dc:date /><dc:rights><cc:Agent><dc:title /></cc:Agent></dc:rights><dc:publisher><cc:Agent><dc:title /></cc:Agent></dc:publisher><dc:identifier /><dc:relation /><dc:language /><dc:coverage /><dc:description /><dc:contributor><cc:Agent><dc:title /></cc:Agent></dc:contributor></cc:Work><cc:License
         rdf:about="http://creativecommons.org/licenses/by-sa/4.0/"><cc:permits
           rdf:resource="http://creativecommons.org/ns#Reproduction" /><cc:permits
           rdf:resource="http://creativecommons.org/ns#Distribution" /><cc:requires
           rdf:resource="http://creativecommons.org/ns#Notice" /><cc:requires
           rdf:resource="http://creativecommons.org/ns#Attribution" /><cc:permits
           rdf:resource="http://creativecommons.org/ns#DerivativeWorks" /><cc:requires
           rdf:resource="http://creativecommons.org/ns#ShareAlike" /></cc:License></rdf:RDF></metadata><g
     id="layer1"
     inkscape:label="App Icon"
     inkscape:groupmode="layer"
     style="display:inline"
     transform="translate(8,-156)"><g
       inkscape:groupmode="layer"
       id="layer9"
       inkscape:label="icons"
       style="display:inline"><g
         transform="matrix(-1,0,0,1,-80,934)"
         style="display:inline;enable-background:new"
         id="g36832" /><filter
         id="a"
         height="1"
         width="1"
         x="0"
         y="0"><feColorMatrix
           in="SourceGraphic"
           type="matrix"
           values="0 0 0 0 1 0 0 0 0 1 0 0 0 0 1 0 0 0 1 0"
           id="feColorMatrix161671" /></filter><mask
         id="b"><g
           filter="url(#a)"
           id="g161676"><path
             d="M 0,0 H 16 V 16 H 0 Z"
             fill-opacity="0.3"
             id="path161674" /></g></mask><clipPath
         id="c"><path
           d="M 0,0 H 1600 V 1200 H 0 Z"
           id="path161679" /></clipPath><g
         clip-path="url(#c)"
         mask="url(#b)"
         transform="translate(-21.999996,-126)"
         id="g161686"
         style="fill:#222222;fill-opacity:1"><path
           d="m 580.9375,215.75 v -2.1875 l 4.21875,-1.12891 2.34375,0.59375 2.38672,-0.66797 3.74219,1 v 2.45313 z m 0,0"
           fill="#474747"
           id="path161684"
           style="fill:#222222;fill-opacity:1" /></g><rect
         style="opacity:1;fill:#dc8add;stroke:none;stroke-width:2;stroke-linejoin:round;paint-order:markers stroke fill"
         id="rect1"
         width="480"
         height="300"
         x="-8"
         y="156" /><g
         id="g4"
         transform="translate(-97.981563,2.8413946)"
         style="opacity:0.52187389"><rect
           style="opacity:0.628055;mix-blend-mode:normal;fill:#000000;stroke:none;stroke-width:2;stroke-linejoin:round;paint-order:markers stroke fill;filter:url(#filter3)"
           id="rect3"
           width="80.99575"
           height="53.390228"
           x="277.62122"
           y="307.69061" /><rect
           style="opacity:0.523137;mix-blend-mode:normal;fill:#000000;stroke:none;stroke-width:2;stroke-linejoin:round;paint-order:markers stroke fill;filter:url(#filter4)"
           id="rect4"
           width="80.99575"
           height="53.390228"
           x="318.11908"
           y="298.02448" /></g><g
         id="g1"
         transform="translate(13.632314,59.292218)"><g
           id="g33"
           clip-path="url(#clipPath2)"
           transform="matrix(0.99848117,0,0,1,144.51135,54.601144)"
           style="stroke-width:1.00076"><rect
             style="font-variation-settings:'opsz' 32, 'wght' 900;opacity:1;fill:url(#linearGradient9);fill-opacity:1;stroke:none;stroke-width:2.00152;stroke-linecap:round;stroke-linejoin:round;stroke-miterlimit:3.1;paint-order:markers fill stroke"
             id="rect30"
             width="119.50105"
             height="97.050407"
             x="1.8994951"
             y="169.25826"
             rx="11.851631"
             ry="11.833631" /><rect
             style="font-variation-settings:'opsz' 32, 'wght' 900;opacity:1;fill:url(#linearGradient34);fill-opacity:1;stroke:none;stroke-width:5.0038;stroke-linecap:round;stroke-linejoin:round;stroke-miterlimit:3.1;stroke-dasharray:none;stroke-opacity:1;paint-order:stroke markers fill"
             id="rect31"
             width="21.657894"
             height="24.625"
             x="77.959778"
             y="217.625"
             rx="4.8336334"
             ry="4.8336334" /><path
             style="font-variation-settings:'opsz' 32, 'wght' 900;opacity:1;fill:url(#linearGradient35);fill-opacity:1;stroke:none;stroke-width:1.93499;stroke-linecap:round;stroke-linejoin:round;stroke-miterlimit:3.1;paint-order:markers fill stroke"
             d="m 87.989743,271.78873 -60.80892,0.12993 a 7.2512837,7.2512837 135.155 0 0 -7.235584,7.19654 7.0036516,7.0036516 44.355609 0 0 7.128382,6.96981 l 60.421935,-0.33846 c -5.994113,-0.52319 -6.625565,-12.1397 0.494187,-13.95782 z"
             id="path31"
             inkscape:path-effect="#path-effect34"
             inkscape:original-d="m 87.989743,271.78873 -67.990305,0.14527 -0.107106,14.19124 67.603224,-0.37869 c -5.994113,-0.52319 -6.625565,-12.1397 0.494187,-13.95782 z"
             sodipodi:nodetypes="ccccc"
             transform="matrix(1,0,0,1.0699428,8.25,-63.634668)" /><path
             style="font-variation-settings:'opsz' 32, 'wght' 900;opacity:1;fill:url(#linearGradient43);fill-opacity:1;stroke:none;stroke-width:2.00152;stroke-linecap:round;stroke-linejoin:round;stroke-miterlimit:3.1;paint-order:markers fill stroke"
             d="m 106.125,239.125 c 0,0 -2.61859,7.375 -7.5,7.375 H 34.847272 C 22.936057,246.5 19.491076,227.25 34.625,227.25 h 63 c 4.40034,0 7,-3.24831 7,-7.875 l 4.5,-42.75 -94.875,1 1.75,68.75 59.125,16.375 27.5,-7.5 z"
             id="path32"
             sodipodi:nodetypes="cccccccccccc" /><path
             style="font-variation-settings:'opsz' 32, 'wght' 900;baseline-shift:baseline;display:inline;overflow:visible;opacity:1;vector-effect:none;fill:url(#linearGradient11);fill-opacity:1;stroke-width:1.00076;stroke-linecap:round;stroke-linejoin:round;stroke-miterlimit:3.1;paint-order:stroke markers fill;enable-background:accumulate;stop-color:#000000;stop-opacity:1"
             d="m 107.34029,177.27324 -91.324612,0.96257 c -0.537593,0.005 -0.966797,0.44958 -0.953178,0.98702 l 0.309512,66.17726 c 0.01109,0.42308 0.297193,0.78929 0.705014,0.90242 l 58.287443,15.76222 c 0.167166,0.0467 0.343857,0.0474 0.51137,0.002 l 27.845901,-7.21933 c 0.34564,-0.0947 0.61004,-0.37362 0.68621,-0.72381 l 3.36903,-15.52158 c 0.23823,-1.16532 -1.43404,-1.64214 -1.8462,-0.5264 l -0.56234,3.94449 c -0.51614,2.98145 -3.88621,4.13838 -5.750815,4.13838 H 34.158724 c -11.576864,0 -13.51014,-18.8482 0.721934,-18.8482 h 62.326927 c 2.354694,0 4.348855,-0.90497 5.685225,-2.45345 1.33638,-1.54848 2.0154,-3.68237 2.0154,-6.08943 l -0.006,0.10152 3.40406,-40.5315 c 0.0606,-0.57223 -0.39094,-1.0695 -0.96634,-1.0641 z m -1.06034,1.93643 -3.29125,39.45612 c -0.004,0.0337 -0.006,0.0676 -0.006,0.10153 0,2.04649 -0.57353,3.7034 -1.54727,4.83169 -0.97373,1.12828 -2.34722,1.78603 -4.228199,1.78603 H 34.880523 c -17.837811,0 -15.542618,22.69851 -0.721799,22.69851 h 64.458901 c 2.230645,0 4.999025,-0.7309 6.269705,-2.20133 l -3.23533,7.26174 -27.028086,6.99561 -57.345545,-15.5009 -0.266272,-64.4871 z"
             id="path33"
             sodipodi:nodetypes="ccccccccccccsssssccccccccssssscccccc" /></g><rect
           style="font-variation-settings:'opsz' 32, 'wght' 900;opacity:1;fill:url(#linearGradient39);fill-opacity:1;stroke:none;stroke-width:5;stroke-linecap:round;stroke-linejoin:round;stroke-miterlimit:3.1;stroke-dasharray:none;stroke-opacity:1;paint-order:stroke markers fill"
           id="rect38"
           width="31.466251"
           height="44.01741"
           x="-206.01378"
           y="234.77148"
           rx="4.826292"
           ry="4.8336334"
           transform="scale(-1,1)" /><g
           id="g26"
           clip-path="url(#clipPath2)"
           transform="matrix(0.99848117,0,0,1,165.83546,30.61496)"
           style="stroke-width:1.00076"><rect
             style="font-variation-settings:'opsz' 32, 'wght' 900;opacity:1;fill:url(#linearGradient2);fill-opacity:1;stroke:none;stroke-width:2.00152;stroke-linecap:round;stroke-linejoin:round;stroke-miterlimit:3.1;paint-order:markers fill stroke"
             id="rect23"
             width="119.50105"
             height="97.050407"
             x="1.8994951"
             y="169.25826"
             rx="11.851631"
             ry="11.833631" /><rect
             style="font-variation-settings:'opsz' 32, 'wght' 900;opacity:1;fill:url(#linearGradient27);fill-opacity:1;stroke:none;stroke-width:5.0038;stroke-linecap:round;stroke-linejoin:round;stroke-miterlimit:3.1;stroke-dasharray:none;stroke-opacity:1;paint-order:stroke markers fill"
             id="rect24"
             width="21.657894"
             height="24.625"
             x="77.959778"
             y="217.625"
             rx="4.8336334"
             ry="4.8336334" /><path
             style="font-variation-settings:'opsz' 32, 'wght' 900;opacity:1;fill:url(#linearGradient28);fill-opacity:1;stroke:none;stroke-width:1.93499;stroke-linecap:round;stroke-linejoin:round;stroke-miterlimit:3.1;paint-order:markers fill stroke"
             d="m 87.989743,271.78873 -60.80892,0.12993 a 7.2512837,7.2512837 135.155 0 0 -7.235584,7.19654 7.0036516,7.0036516 44.355609 0 0 7.128382,6.96981 l 60.421935,-0.33846 c -5.994113,-0.52319 -6.625565,-12.1397 0.494187,-13.95782 z"
             id="path24"
             inkscape:path-effect="#path-effect27"
             inkscape:original-d="m 87.989743,271.78873 -67.990305,0.14527 -0.107106,14.19124 67.603224,-0.37869 c -5.994113,-0.52319 -6.625565,-12.1397 0.494187,-13.95782 z"
             sodipodi:nodetypes="ccccc"
             transform="matrix(1,0,0,1.0699428,8.25,-63.634668)" /><path
             style="font-variation-settings:'opsz' 32, 'wght' 900;opacity:1;fill:#ff7800;fill-opacity:1;stroke:none;stroke-width:2.00152;stroke-linecap:round;stroke-linejoin:round;stroke-miterlimit:3.1;paint-order:markers fill stroke"
             d="m 106.125,239.125 c 0,0 -2.61859,7.375 -7.5,7.375 H 34.847272 C 22.936057,246.5 19.491076,227.25 34.625,227.25 h 63 c 4.40034,0 7,-3.24831 7,-7.875 l 4.5,-42.75 -94.875,1 1.75,68.75 59.125,16.375 27.5,-7.5 z"
             id="path25"
             sodipodi:nodetypes="cccccccccccc" /><path
             style="font-variation-settings:'opsz' 32, 'wght' 900;baseline-shift:baseline;display:inline;overflow:visible;opacity:1;vector-effect:none;fill:#ffa348;stroke-width:1.00076;stroke-linecap:round;stroke-linejoin:round;stroke-miterlimit:3.1;paint-order:stroke markers fill;enable-background:accumulate;stop-color:#000000;stop-opacity:1"
             d="m 107.34029,177.27324 -91.324612,0.96257 c -0.537593,0.005 -0.966797,0.44958 -0.953178,0.98702 l 0.309512,66.17726 c 0.01109,0.42308 0.297193,0.78929 0.705014,0.90242 l 58.287443,15.76222 c 0.167166,0.0467 0.343857,0.0474 0.51137,0.002 l 27.845901,-7.21933 c 0.34564,-0.0947 0.61004,-0.37362 0.68621,-0.72381 l 3.36903,-15.52158 c 0.23823,-1.16532 -1.43404,-1.64214 -1.8462,-0.5264 l -0.56234,3.94449 c -0.51614,2.98145 -3.88621,4.13838 -5.750815,4.13838 H 34.601338 c -11.576864,0 -13.51014,-18.8482 0.721934,-18.8482 h 61.884313 c 2.354694,0 4.348855,-0.90497 5.685225,-2.45345 1.33638,-1.54848 2.0154,-3.68237 2.0154,-6.08943 l -0.006,0.10152 3.40406,-40.5315 c 0.0606,-0.57223 -0.39094,-1.0695 -0.96634,-1.0641 z m -1.06034,1.93643 -3.29125,39.45612 c -0.004,0.0337 -0.006,0.0676 -0.006,0.10153 0,2.04649 -0.57353,3.7034 -1.54727,4.83169 -0.97373,1.12828 -2.34722,1.78603 -4.228199,1.78603 H 35.323137 c -17.837811,0 -15.542618,22.69851 -0.721799,22.69851 h 64.016287 c 2.230645,0 4.999025,-0.7309 6.269705,-2.20133 l -3.23533,7.26174 -27.028086,6.99561 -57.345545,-15.5009 -0.266272,-64.4871 z"
             id="path26"
             sodipodi:nodetypes="ccccccccccccsssssccccccccssssscccccc" /></g><rect
           style="font-variation-settings:'opsz' 32, 'wght' 900;opacity:1;fill:url(#linearGradient38);fill-opacity:1;stroke:none;stroke-width:5;stroke-linecap:round;stroke-linejoin:round;stroke-miterlimit:3.1;stroke-dasharray:none;stroke-opacity:1;paint-order:stroke markers fill"
           id="rect37"
           width="22.627417"
           height="44.017399"
           x="241.37953"
           y="212.67436"
           rx="4.826292"
           ry="4.8336334" /><g
           id="g2"
           clip-path="url(#clipPath2)"
           transform="matrix(0.99848117,0,0,1,154.05729,8.462419)"
           style="stroke-width:1.00076"><rect
             style="font-variation-settings:'opsz' 32, 'wght' 900;opacity:1;fill:url(#linearGradient3);fill-opacity:1;stroke:none;stroke-width:2.00152;stroke-linecap:round;stroke-linejoin:round;stroke-miterlimit:3.1;paint-order:markers fill stroke"
             id="rect2"
             width="119.50105"
             height="97.050407"
             x="1.8994951"
             y="169.25826"
             rx="11.851631"
             ry="11.833631" /><rect
             style="font-variation-settings:'opsz' 32, 'wght' 900;opacity:1;fill:url(#linearGradient23);fill-opacity:1;stroke:none;stroke-width:5.0038;stroke-linecap:round;stroke-linejoin:round;stroke-miterlimit:3.1;stroke-dasharray:none;stroke-opacity:1;paint-order:stroke markers fill"
             id="rect21"
             width="21.657894"
             height="24.625"
             x="77.959778"
             y="217.625"
             rx="4.8336334"
             ry="4.8336334" /><path
             style="font-variation-settings:'opsz' 32, 'wght' 900;opacity:1;fill:url(#linearGradient21);fill-opacity:1;stroke:none;stroke-width:1.93499;stroke-linecap:round;stroke-linejoin:round;stroke-miterlimit:3.1;paint-order:markers fill stroke"
             d="m 87.989743,271.78873 -60.80892,0.12993 a 7.2512837,7.2512837 135.155 0 0 -7.235584,7.19654 7.0036516,7.0036516 44.355609 0 0 7.128382,6.96981 l 60.421935,-0.33846 c -5.994113,-0.52319 -6.625565,-12.1397 0.494187,-13.95782 z"
             id="path1"
             inkscape:path-effect="#path-effect1"
             inkscape:original-d="m 87.989743,271.78873 -67.990305,0.14527 -0.107106,14.19124 67.603224,-0.37869 c -5.994113,-0.52319 -6.625565,-12.1397 0.494187,-13.95782 z"
             sodipodi:nodetypes="ccccc"
             transform="matrix(1,0,0,1.0699428,8.25,-63.634668)" /><path
             style="font-variation-settings:'opsz' 32, 'wght' 900;opacity:1;fill:url(#linearGradient17);fill-opacity:1;stroke:none;stroke-width:2.00152;stroke-linecap:round;stroke-linejoin:round;stroke-miterlimit:3.1;paint-order:markers fill stroke"
             d="m 106.125,239.125 c 0,0 -2.61859,7.375 -7.5,7.375 H 34.847272 C 22.936057,246.5 19.491076,227.25 34.625,227.25 h 63 c 4.40034,0 7,-3.24831 7,-7.875 l 4.5,-42.75 -94.875,1 1.75,68.75 59.125,16.375 27.5,-7.5 z"
             id="path3"
             sodipodi:nodetypes="cccccccccccc" /><path
             style="font-variation-settings:'opsz' 32, 'wght' 900;baseline-shift:baseline;display:inline;overflow:visible;opacity:1;vector-effect:none;fill:url(#linearGradient12);stroke-width:1.00076;stroke-linecap:round;stroke-linejoin:round;stroke-miterlimit:3.1;paint-order:stroke markers fill;enable-background:accumulate;stop-color:#000000;stop-opacity:1"
             d="m 107.34029,177.27324 -91.324612,0.96257 c -0.537593,0.005 -0.966797,0.44958 -0.953178,0.98702 l 0.309512,66.17726 c 0.01109,0.42308 0.297193,0.78929 0.705014,0.90242 l 58.287443,15.76222 c 0.167166,0.0467 0.343857,0.0474 0.51137,0.002 l 27.845901,-7.21933 c 0.34564,-0.0947 0.61004,-0.37362 0.68621,-0.72381 l 3.36903,-15.52158 c 0.23823,-1.16532 -1.43404,-1.64214 -1.8462,-0.5264 l -0.56234,3.94449 c -0.51614,2.98145 -3.88621,4.13838 -5.750815,4.13838 H 34.070201 c -11.576864,0 -13.51014,-18.8482 0.721934,-18.8482 h 62.41545 c 2.354694,0 4.348855,-0.90497 5.685225,-2.45345 1.33638,-1.54848 2.0154,-3.68237 2.0154,-6.08943 l -0.006,0.10152 3.40406,-40.5315 c 0.0606,-0.57223 -0.39094,-1.0695 -0.96634,-1.0641 z m -1.06034,1.93643 -3.29125,39.45612 c -0.004,0.0337 -0.006,0.0676 -0.006,0.10153 0,2.04649 -0.57353,3.7034 -1.54727,4.83169 -0.97373,1.12828 -2.34722,1.78603 -4.228199,1.78603 H 34.792 c -17.837811,0 -15.542618,22.69851 -0.721799,22.69851 h 64.547424 c 2.230645,0 4.999025,-0.7309 6.269705,-2.20133 l -3.23533,7.26174 -27.028086,6.99561 -57.345545,-15.5009 -0.266272,-64.4871 z"
             id="path11"
             sodipodi:nodetypes="ccccccccccccsssssccccccccssssscccccc" /></g><path
           id="path21"
           style="font-variation-settings:'opsz' 32, 'wght' 900;baseline-shift:baseline;display:inline;overflow:visible;opacity:1;vector-effect:none;fill:#4e255f;fill-opacity:1;stroke-width:1;stroke-linecap:round;stroke-linejoin:round;stroke-miterlimit:3.1;paint-order:markers fill stroke;enable-background:accumulate;stop-color:#000000;stop-opacity:1"
           d="m 226.1283,202.59772 a 2.0903413,2.0903413 0 0 0 -0.0131,2.95587 c 0,0 0.45081,0.41638 1.07293,1.75067 0.62213,1.33427 1.2885,3.44654 1.2885,6.50943 0,5.20066 -2.12463,7.71793 -2.12463,7.71793 a 2.0903413,2.0903413 0 0 0 0.31682,2.93791 2.0903413,2.0903413 0 0 0 2.93954,-0.31518 c 0,0 3.04896,-3.90156 3.04896,-10.34066 0,-3.67628 -0.81777,-6.42974 -1.67881,-8.27642 -0.86104,-1.84672 -1.89437,-2.92649 -1.89437,-2.92649 a 2.0903413,2.0903413 0 0 0 -2.95587,-0.0129 z m -4.82085,3.90632 a 2.0903413,2.0903413 0 0 0 -1.38322,0.80184 2.0903413,2.0903413 0 0 0 0.39031,2.93139 c 0,0 0.17091,0.10366 0.50789,0.65159 0.33698,0.54793 0.70875,1.40597 0.70875,2.75663 0,2.21474 -1.11866,3.18124 -1.11866,3.18124 a 2.0903413,2.0903413 0 0 0 -0.0898,2.95425 2.0903413,2.0903413 0 0 0 2.95588,0.0898 c 0,0 2.43328,-2.377 2.43328,-6.2253 0,-2.15972 -0.64563,-3.83758 -1.32769,-4.94659 -0.68206,-1.10902 -1.53019,-1.78332 -1.53019,-1.78332 a 2.0903413,2.0903413 0 0 0 -1.54653,-0.41154 z m -19.26595,3.19869 v 5.92752 a 2.0617665,2.0617665 0 0 0 2.06177,2.06176 h 2.97132 a 5.5732084,5.5732084 0 0 1 3.62713,1.34182 l 3.99965,3.42851 a 0.94823793,0.94823793 0 0 0 1.56537,-0.71994 v -17.95204 a 0.95586649,0.95586649 0 0 0 -1.57352,-0.72951 l -4.01041,3.39551 a 5.4490568,5.4490568 0 0 1 -3.63484,1.28919 l -2.94515,-0.0616 a 2.0191463,2.0191463 0 0 0 -2.06132,2.01871 z" /><path
           id="path10"
           style="font-variation-settings:'opsz' 32, 'wght' 900;baseline-shift:baseline;display:inline;overflow:visible;opacity:1;vector-effect:none;fill:url(#linearGradient41);fill-opacity:1;stroke-width:1;stroke-linecap:round;stroke-linejoin:round;stroke-miterlimit:3.1;paint-order:markers fill stroke;enable-background:accumulate;stop-color:#000000;stop-opacity:1"
           d="m 226.1283,200.92545 a 2.0903413,2.0903413 0 0 0 -0.0131,2.95586 c 0,0 0.45081,0.41638 1.07293,1.75067 0.62213,1.33428 1.2885,3.44654 1.2885,6.50945 0,5.20064 -2.12463,7.71794 -2.12463,7.71794 a 2.0903413,2.0903413 0 0 0 0.31682,2.9379 2.0903413,2.0903413 0 0 0 2.93954,-0.31518 c 0,0 3.04896,-3.90157 3.04896,-10.34066 0,-3.6763 -0.81777,-6.42976 -1.67881,-8.27644 -0.86104,-1.84669 -1.89437,-2.92649 -1.89437,-2.92649 a 2.0903413,2.0903413 0 0 0 -2.95587,-0.0129 z m -4.82085,3.90631 a 2.0903413,2.0903413 0 0 0 -1.38322,0.80184 2.0903413,2.0903413 0 0 0 0.39031,2.93139 c 0,0 0.17091,0.10368 0.50789,0.65159 0.33698,0.54793 0.70875,1.40599 0.70875,2.75663 0,2.21474 -1.11866,3.18126 -1.11866,3.18126 a 2.0903413,2.0903413 0 0 0 -0.0898,2.95423 2.0903413,2.0903413 0 0 0 2.95588,0.0898 c 0,0 2.43328,-2.377 2.43328,-6.2253 0,-2.15972 -0.64563,-3.83757 -1.32769,-4.94659 -0.68206,-1.10899 -1.5302,-1.78329 -1.5302,-1.78329 a 2.0903413,2.0903413 0 0 0 -1.54652,-0.41154 z m -19.26595,3.1987 v 5.92751 a 2.0617665,2.0617665 0 0 0 2.06177,2.06176 h 2.97132 a 5.5732084,5.5732084 0 0 1 3.62713,1.34185 l 3.99965,3.42849 a 0.94823793,0.94823793 0 0 0 1.56537,-0.71994 v -17.95204 a 0.95586649,0.95586649 0 0 0 -1.57352,-0.72952 l -4.01041,3.39551 a 5.4490568,5.4490568 0 0 1 -3.63484,1.28919 l -2.94515,-0.0616 a 2.0191463,2.0191463 0 0 0 -2.06132,2.01871 z" /></g></g></g></svg>
