<?xml version="1.0" encoding="UTF-8" standalone="no"?>
<!-- Created with Inkscape (http://www.inkscape.org/) -->

<svg
   xmlns:dc="http://purl.org/dc/elements/1.1/"
   xmlns:cc="http://creativecommons.org/ns#"
   xmlns:rdf="http://www.w3.org/1999/02/22-rdf-syntax-ns#"
   xmlns:svg="http://www.w3.org/2000/svg"
   xmlns="http://www.w3.org/2000/svg"
   xmlns:xlink="http://www.w3.org/1999/xlink"
   xmlns:sodipodi="http://sodipodi.sourceforge.net/DTD/sodipodi-0.dtd"
   xmlns:inkscape="http://www.inkscape.org/namespaces/inkscape"
   width="800"
   height="250"
   viewBox="0 0 800 250"
   version="1.1"
   id="svg8"
   inkscape:version="0.92.2 2405546, 2018-03-11"
   sodipodi:docname="blender.svg"
   inkscape:export-filename="/home/jimmac/public_html/hideout/source/blog/2018-07-18-detail-considered-harmful/lowres.png"
   inkscape:export-xdpi="96"
   inkscape:export-ydpi="96">
  <defs
     id="defs2">
    <clipPath
       clipPathUnits="userSpaceOnUse"
       id="clipPath14725-8-4-0-6">
      <path
         style="color:#000000;display:inline;overflow:visible;visibility:visible;fill:none;stroke:#000000;stroke-width:2;stroke-miterlimit:4;stroke-dasharray:none;stroke-opacity:1;marker:none;enable-background:accumulate"
         d="m 160.5,96.75 c 0,25.15725 -24.55857,68.33791 -31.25,67.8228 C 122.55857,164.05769 98,122.42236 98,96.75 98,79.491102 111.9911,65.5 129.25,65.5 c 17.2589,0 31.25,13.991102 31.25,31.25 z"
         id="path14727-3-5-6-4"
         inkscape:connector-curvature="0"
         sodipodi:nodetypes="szsss" />
    </clipPath>
    <linearGradient
       id="linearGradient9792"
       inkscape:collect="always">
      <stop
         id="stop9794"
         offset="0"
         style="stop-color:#1064aa;stop-opacity:1" />
      <stop
         id="stop9796"
         offset="1"
         style="stop-color:#0d528b;stop-opacity:1" />
    </linearGradient>
    <inkscape:perspective
       sodipodi:type="inkscape:persp3d"
       inkscape:vp_x="-50 : 600 : 1"
       inkscape:vp_y="0 : 1000 : 0"
       inkscape:vp_z="700 : 600 : 1"
       inkscape:persp3d-origin="300 : 400 : 1"
       id="perspective105" />
    <inkscape:perspective
       sodipodi:type="inkscape:persp3d"
       inkscape:vp_x="-50 : 600 : 1"
       inkscape:vp_y="0 : 1000 : 0"
       inkscape:vp_z="700 : 600 : 1"
       inkscape:persp3d-origin="300 : 400 : 1"
       id="perspective5151" />
    <inkscape:perspective
       sodipodi:type="inkscape:persp3d"
       id="perspective103"
       inkscape:vp_x="-50 : 600 : 1"
       inkscape:vp_y="0 : 1000 : 0"
       inkscape:vp_z="700 : 600 : 1"
       inkscape:persp3d-origin="300 : 400 : 1" />
    <linearGradient
       inkscape:collect="always"
       id="linearGradient5457">
      <stop
         style="stop-color:#ffffff;stop-opacity:1;"
         offset="0"
         id="stop5459" />
      <stop
         style="stop-color:#ffffff;stop-opacity:0;"
         offset="1"
         id="stop5461" />
    </linearGradient>
    <linearGradient
       inkscape:collect="always"
       id="linearGradient5447">
      <stop
         style="stop-color:#ff830a;stop-opacity:1"
         offset="0"
         id="stop5449" />
      <stop
         style="stop-color:#d06700;stop-opacity:1"
         offset="1"
         id="stop5451" />
    </linearGradient>
    <inkscape:perspective
       sodipodi:type="inkscape:persp3d"
       id="perspective91"
       inkscape:vp_x="-50 : 600 : 1"
       inkscape:vp_y="0 : 1000 : 0"
       inkscape:vp_z="700 : 600 : 1"
       inkscape:persp3d-origin="300 : 400 : 1" />
    <inkscape:perspective
       sodipodi:type="inkscape:persp3d"
       id="perspective90"
       inkscape:vp_x="-50 : 600 : 1"
       inkscape:vp_y="0 : 1000 : 0"
       inkscape:vp_z="700 : 600 : 1"
       inkscape:persp3d-origin="300 : 400 : 1" />
    <linearGradient
       inkscape:collect="always"
       id="linearGradient6160">
      <stop
         style="stop-color:#eeeeec;stop-opacity:1;"
         offset="0"
         id="stop6162" />
      <stop
         style="stop-color:#eeeeec;stop-opacity:0;"
         offset="1"
         id="stop6164" />
    </linearGradient>
    <radialGradient
       gradientUnits="userSpaceOnUse"
       gradientTransform="matrix(1.647222,0,0,1.26792,-15.47413,-5.79794)"
       r="20.278975"
       fy="19.668886"
       fx="26.109201"
       cy="19.668886"
       cx="26.109201"
       id="radialGradient39177"
       xlink:href="#linearGradient5457"
       inkscape:collect="always" />
    <radialGradient
       gradientUnits="userSpaceOnUse"
       gradientTransform="matrix(1,0,0,0.342857,0,25.61831)"
       r="15.467961"
       fy="38.98439"
       fx="28.019106"
       cy="38.98439"
       cx="28.019106"
       id="radialGradient35494"
       xlink:href="#linearGradient35488"
       inkscape:collect="always" />
    <linearGradient
       gradientTransform="matrix(0.06818845,0,0,0.06818845,22.51112,27.02885)"
       y2="-134.32658"
       x2="106.04736"
       y1="193.33229"
       x1="185.9903"
       gradientUnits="userSpaceOnUse"
       id="linearGradient34576"
       xlink:href="#linearGradient5457"
       inkscape:collect="always" />
    <linearGradient
       id="linearGradient35488"
       inkscape:collect="always">
      <stop
         id="stop35490"
         offset="0"
         style="stop-color:black;stop-opacity:1;" />
      <stop
         id="stop35492"
         offset="1"
         style="stop-color:black;stop-opacity:0;" />
    </linearGradient>
    <linearGradient
       id="linearGradient39155">
      <stop
         id="stop39157"
         offset="0"
         style="stop-color:white;stop-opacity:1;" />
      <stop
         id="stop39159"
         offset="1"
         style="stop-color:#dadada;stop-opacity:1;" />
    </linearGradient>
    <radialGradient
       inkscape:collect="always"
       xlink:href="#linearGradient35488"
       id="radialGradient5348"
       gradientUnits="userSpaceOnUse"
       gradientTransform="matrix(1,0,0,0.342857,0,25.61831)"
       cx="28.915268"
       cy="40.303635"
       fx="28.915268"
       fy="40.303635"
       r="15.467961" />
    <radialGradient
       inkscape:collect="always"
       xlink:href="#linearGradient35488"
       id="radialGradient5482"
       gradientUnits="userSpaceOnUse"
       gradientTransform="matrix(1,0,0,0.342857,0,25.61831)"
       cx="28.019106"
       cy="38.98439"
       fx="28.019106"
       fy="38.98439"
       r="15.467961" />
    <filter
       color-interpolation-filters="sRGB"
       inkscape:collect="always"
       id="filter6077"
       x="-0.10408114"
       width="1.2081623"
       y="-0.30357"
       height="1.6071399">
      <feGaussianBlur
         inkscape:collect="always"
         stdDeviation="1.3416025"
         id="feGaussianBlur6079" />
    </filter>
    <clipPath
       clipPathUnits="userSpaceOnUse"
       id="clipPath6085">
      <path
         inkscape:connector-curvature="0"
         sodipodi:nodetypes="csssssssssscccsscccscccssccc"
         d="m 16.048489,28.093447 c 0.0098,0.576682 0.196474,1.697902 0.471116,2.577425 0.581566,1.854137 1.56684,3.572658 2.939126,5.086496 1.407488,1.553118 3.138519,2.803227 5.139315,3.68976 2.105357,0.931573 4.384795,1.407488 6.750134,1.403741 2.365339,-0.005 4.644601,-0.488686 6.74896,-1.427017 2.00002,-0.895288 3.731043,-2.148391 5.13754,-3.705517 1.369207,-1.519844 2.352576,-3.241114 2.934089,-5.096258 0.294262,-0.938353 0.476921,-1.889392 0.553238,-2.845308 0.07331,-0.939306 0.04204,-1.883511 -0.09183,-2.823792 -0.259981,-1.835599 -0.896294,-3.556847 -1.872652,-5.12758 -0.895541,-1.441699 -2.047808,-2.70454 -3.417268,-3.766975 0,0 0.002,-0.002 0.002,-0.002 0,0 -13.828458,-10.6197195 -13.828458,-10.6197195 -0.01176,-0.00978 -0.02252,-0.019551 -0.03529,-0.028344 -0.909003,-0.6959264 -2.434775,-0.6939758 -3.431728,0.00488 -1.01067,0.7057021 -1.091821,1.8092613 -0.195527,2.5482146 1.899775,1.4997633 3.792068,3.0680399 5.702368,4.5676189 0,0 -17.551681,-0.01171 -17.551681,-0.01171 -1.994685,0 -3.1682604,0.947915 -3.4153942,2.333683 -0.2180771,1.222836 0.7479213,2.738129 2.4800212,2.738129 2.956573,0.0039 5.942111,-0.0069 8.909215,-0.01272 0,0 -15.901723,11.764162 -15.901723,11.764162 -0.020527,0.01564 -0.041053,0.02933 -0.06158,0.04497 -1.4974197,1.148389 -1.9831951,3.059322 -1.0399808,4.268393 0.9598323,1.22959 2.9977653,1.230588 4.5147288,0.006 0,0 8.677593,-7.102098 8.677593,-7.102098 0,0 -0.12511,0.959824 -0.116333,1.535532 z"
         id="path6087"
         style="fill:none;stroke:#954900;stroke-width:0.2076302;stroke-linecap:round;stroke-linejoin:round;stroke-miterlimit:4;stroke-opacity:1;stroke-dasharray:none" />
    </clipPath>
    <radialGradient
       inkscape:collect="always"
       xlink:href="#linearGradient5457"
       id="radialGradient6101"
       cx="34.8689"
       cy="44.23357"
       fx="34.8689"
       fy="44.23357"
       r="21.275852"
       gradientTransform="matrix(1,0,0,0.8055409,0,4.4643372)"
       gradientUnits="userSpaceOnUse" />
    <filter
       color-interpolation-filters="sRGB"
       inkscape:collect="always"
       id="filter6103">
      <feGaussianBlur
         inkscape:collect="always"
         stdDeviation="0.19207211"
         id="feGaussianBlur6105" />
    </filter>
    <radialGradient
       inkscape:collect="always"
       xlink:href="#linearGradient5457"
       id="radialGradient6121"
       cx="22.436661"
       cy="13.112802"
       fx="22.436661"
       fy="13.112802"
       r="21.804205"
       gradientTransform="matrix(1,0,0,0.8095091,0,4.3545041)"
       gradientUnits="userSpaceOnUse" />
    <filter
       color-interpolation-filters="sRGB"
       inkscape:collect="always"
       id="filter6127">
      <feGaussianBlur
         inkscape:collect="always"
         stdDeviation="0.098637264"
         id="feGaussianBlur6129" />
    </filter>
    <filter
       color-interpolation-filters="sRGB"
       inkscape:collect="always"
       id="filter6156">
      <feGaussianBlur
         inkscape:collect="always"
         stdDeviation="0.93085205"
         id="feGaussianBlur6158" />
    </filter>
    <radialGradient
       inkscape:collect="always"
       xlink:href="#linearGradient6160"
       id="radialGradient6166"
       cx="155.64211"
       cy="58.663204"
       fx="155.64211"
       fy="58.663204"
       r="113.01414"
       gradientTransform="matrix(1.1062168,0,0,0.7160758,-16.531813,35.180186)"
       gradientUnits="userSpaceOnUse" />
    <radialGradient
       inkscape:collect="always"
       xlink:href="#linearGradient5457"
       id="radialGradient6168"
       gradientUnits="userSpaceOnUse"
       gradientTransform="matrix(1.647222,0,0,1.26792,-15.47413,-5.79794)"
       cx="26.441687"
       cy="16.789225"
       fx="26.441687"
       fy="16.789225"
       r="20.278975" />
    <radialGradient
       inkscape:collect="always"
       xlink:href="#linearGradient5447"
       id="radialGradient5453"
       cx="32.475037"
       cy="37.477009"
       fx="32.475037"
       fy="37.477009"
       r="22.135635"
       gradientTransform="matrix(1.6103065,0,0,1.308109,-19.819726,-14.288347)"
       gradientUnits="userSpaceOnUse" />
    <radialGradient
       inkscape:collect="always"
       xlink:href="#linearGradient5457"
       id="radialGradient5463"
       cx="32.834167"
       cy="188.28326"
       fx="32.834167"
       fy="188.28326"
       r="7.4158325"
       gradientTransform="matrix(2.0461723,0,0,2.2699636,-34.350196,-238.66924)"
       gradientUnits="userSpaceOnUse" />
    <filter
       color-interpolation-filters="sRGB"
       inkscape:collect="always"
       id="filter5489"
       x="-0.19356579"
       width="1.3871316"
       y="-0.17448251"
       height="1.348965">
      <feGaussianBlur
         inkscape:collect="always"
         stdDeviation="1.1962095"
         id="feGaussianBlur5491" />
    </filter>
    <filter
       color-interpolation-filters="sRGB"
       inkscape:collect="always"
       id="filter5467">
      <feGaussianBlur
         inkscape:collect="always"
         stdDeviation="0.20058598"
         id="feGaussianBlur5469" />
    </filter>
    <inkscape:perspective
       id="perspective18062"
       inkscape:persp3d-origin="0.5 : 0.33333333 : 1"
       inkscape:vp_z="1 : 0.5 : 1"
       inkscape:vp_y="0 : 1000 : 0"
       inkscape:vp_x="0 : 0.5 : 1"
       sodipodi:type="inkscape:persp3d" />
    <inkscape:perspective
       id="perspective19694"
       inkscape:persp3d-origin="0.5 : 0.33333333 : 1"
       inkscape:vp_z="1 : 0.5 : 1"
       inkscape:vp_y="0 : 1000 : 0"
       inkscape:vp_x="0 : 0.5 : 1"
       sodipodi:type="inkscape:persp3d" />
    <inkscape:perspective
       id="perspective19708"
       inkscape:persp3d-origin="0.5 : 0.33333333 : 1"
       inkscape:vp_z="1 : 0.5 : 1"
       inkscape:vp_y="0 : 1000 : 0"
       inkscape:vp_x="0 : 0.5 : 1"
       sodipodi:type="inkscape:persp3d" />
    <inkscape:perspective
       id="perspective19722"
       inkscape:persp3d-origin="0.5 : 0.33333333 : 1"
       inkscape:vp_z="1 : 0.5 : 1"
       inkscape:vp_y="0 : 1000 : 0"
       inkscape:vp_x="0 : 0.5 : 1"
       sodipodi:type="inkscape:persp3d" />
    <radialGradient
       gradientUnits="userSpaceOnUse"
       gradientTransform="matrix(1.2493214,0,0,0.91226922,-7.942827,2.3908618)"
       r="5.8577785"
       fy="22.970091"
       fx="31.857779"
       cy="22.970091"
       cx="31.857779"
       id="radialGradient9798"
       xlink:href="#linearGradient9792"
       inkscape:collect="always" />
    <radialGradient
       gradientUnits="userSpaceOnUse"
       gradientTransform="matrix(1.2493214,0,0,0.91226922,6.8387491,2.3908618)"
       r="5.8577785"
       fy="22.970091"
       fx="31.857779"
       cy="22.970091"
       cx="31.857779"
       id="radialGradient9798-2"
       xlink:href="#linearGradient9792"
       inkscape:collect="always" />
    <radialGradient
       inkscape:collect="always"
       xlink:href="#linearGradient9792"
       id="radialGradient9817"
       gradientUnits="userSpaceOnUse"
       gradientTransform="matrix(6.8433856,0,0,4.9971209,-184.92802,-96.512292)"
       cx="31.857779"
       cy="22.970091"
       fx="31.857779"
       fy="22.970091"
       r="5.8577785" />
    <radialGradient
       gradientUnits="userSpaceOnUse"
       gradientTransform="matrix(1.2493214,0,0,0.91226922,6.8387491,2.3908618)"
       r="5.8577785"
       fy="22.970091"
       fx="31.857779"
       cy="22.970091"
       cx="31.857779"
       id="radialGradient9798-2-5"
       xlink:href="#linearGradient9792"
       inkscape:collect="always" />
    <radialGradient
       inkscape:collect="always"
       xlink:href="#linearGradient9792"
       id="radialGradient9850"
       gradientUnits="userSpaceOnUse"
       gradientTransform="matrix(1.1880845,0,0,0.86755331,-502.22447,-33.095814)"
       cx="31.857779"
       cy="22.970091"
       fx="31.857779"
       fy="22.970091"
       r="5.8577785" />
    <radialGradient
       inkscape:collect="always"
       xlink:href="#linearGradient9792"
       id="radialGradient9850-2"
       gradientUnits="userSpaceOnUse"
       gradientTransform="matrix(1.1880845,0,0,0.86755331,-502.22447,-33.095814)"
       cx="31.857779"
       cy="22.970091"
       fx="31.857779"
       fy="22.970091"
       r="5.8577785" />
    <radialGradient
       inkscape:collect="always"
       xlink:href="#linearGradient9792"
       id="radialGradient9884"
       gradientUnits="userSpaceOnUse"
       gradientTransform="matrix(1.1880845,0,0,0.86755331,-502.22447,-33.095814)"
       cx="449.63135"
       cy="65.651215"
       fx="449.63135"
       fy="65.651215"
       r="5.8577785" />
    <linearGradient
       inkscape:collect="always"
       xlink:href="#linearGradient39155"
       id="linearGradient6786"
       gradientUnits="userSpaceOnUse"
       x1="31.1875"
       y1="18.875"
       x2="29.875"
       y2="34.375" />
    <linearGradient
       inkscape:collect="always"
       xlink:href="#linearGradient39155"
       id="linearGradient6788"
       gradientUnits="userSpaceOnUse"
       x1="31.1875"
       y1="18.875"
       x2="29.875"
       y2="34.375" />
  </defs>
  <sodipodi:namedview
     id="base"
     pagecolor="#ffffff"
     bordercolor="#666666"
     borderopacity="1.0"
     inkscape:pageopacity="0.0"
     inkscape:pageshadow="2"
     inkscape:zoom="1"
     inkscape:cx="90.00436"
     inkscape:cy="-109.42339"
     inkscape:document-units="px"
     inkscape:current-layer="layer1"
     showgrid="false"
     units="px"
     borderlayer="true"
     inkscape:showpageshadow="false"
     inkscape:pagecheckerboard="true"
     inkscape:window-width="3440"
     inkscape:window-height="1376"
     inkscape:window-x="0"
     inkscape:window-y="27"
     inkscape:window-maximized="1">
    <inkscape:grid
       type="xygrid"
       id="grid3919" />
  </sodipodi:namedview>
  <metadata
     id="metadata5">
    <rdf:RDF>
      <cc:Work
         rdf:about="">
        <dc:format>image/svg+xml</dc:format>
        <dc:type
           rdf:resource="http://purl.org/dc/dcmitype/StillImage" />
        <dc:title />
      </cc:Work>
    </rdf:RDF>
  </metadata>
  <g
     inkscape:label="Layer 1"
     inkscape:groupmode="layer"
     id="layer1"
     transform="translate(0,-635.33333)">
    <g
       id="layer3"
       inkscape:label="baseplate"
       style="display:none"
       transform="translate(-8.823082,716.03786)">
      <rect
         style="display:inline;overflow:visible;visibility:visible;fill:#eeeeec;fill-opacity:1;fill-rule:nonzero;stroke:none;stroke-width:2;marker:none;enable-background:accumulate"
         id="rect6282"
         width="512"
         height="512"
         x="27"
         y="-250.24483"
         inkscape:label="256x256" />
      <rect
         inkscape:label="48x48"
         y="-213.00366"
         x="556.0625"
         height="48"
         width="48"
         id="rect6284"
         style="display:inline;overflow:visible;visibility:visible;fill:#eeeeec;fill-opacity:1;fill-rule:nonzero;stroke:none;stroke-width:2;marker:none;enable-background:accumulate" />
      <rect
         style="display:inline;overflow:visible;visibility:visible;fill:#eeeeec;fill-opacity:1;fill-rule:nonzero;stroke:none;stroke-width:2;marker:none;enable-background:accumulate"
         id="rect6592"
         width="32"
         height="32"
         x="563"
         y="-137.00366"
         inkscape:label="32x32" />
      <rect
         inkscape:label="22x22"
         y="-85.941162"
         x="563"
         height="22"
         width="22"
         id="rect6749"
         style="display:inline;overflow:visible;visibility:visible;fill:#eeeeec;fill-opacity:1;fill-rule:nonzero;stroke:none;stroke-width:2;marker:none;enable-background:accumulate" />
      <rect
         style="display:inline;overflow:visible;visibility:visible;fill:#eeeeec;fill-opacity:1;fill-rule:nonzero;stroke:none;stroke-width:2;marker:none;enable-background:accumulate"
         id="rect6833"
         width="16"
         height="16"
         x="563"
         y="-44"
         inkscape:label="16x16" />
      <rect
         style="display:inline;overflow:visible;visibility:visible;fill:#eeeeec;fill-opacity:1;fill-rule:nonzero;stroke:none;stroke-width:2;marker:none;enable-background:accumulate"
         id="rect5028"
         width="24"
         height="24"
         x="561.95709"
         y="-87.04657"
         inkscape:label="24x24" />
      <text
         inkscape:label="context"
         id="context"
         y="-272"
         x="33"
         style="font-style:normal;font-variant:normal;font-weight:normal;font-stretch:normal;line-height:0%;font-family:'Trebuchet MS';-inkscape-font-specification:'Trebuchet MS';text-align:start;writing-mode:lr-tb;text-anchor:start;display:inline;fill:#000000;fill-opacity:1;stroke:none;enable-background:new"
         xml:space="preserve"><tspan
           y="-272"
           x="33"
           id="tspan16843"
           sodipodi:role="line"
           style="font-size:20px;line-height:1.25">apps</tspan></text>
      <text
         inkscape:label="icon-name"
         id="icon-name"
         y="-272"
         x="101"
         style="font-style:normal;font-variant:normal;font-weight:normal;font-stretch:normal;line-height:0%;font-family:'Trebuchet MS';-inkscape-font-specification:'Trebuchet MS';text-align:start;writing-mode:lr-tb;text-anchor:start;display:inline;fill:#000000;fill-opacity:1;stroke:none;enable-background:new"
         xml:space="preserve"><tspan
           y="-272"
           x="101"
           id="tspan16847"
           sodipodi:role="line"
           style="font-size:20px;line-height:1.25">blender</tspan></text>
      <path
         style="display:inline;overflow:visible;visibility:visible;opacity:0.29455285;fill:#729fcf;fill-opacity:1;fill-rule:nonzero;stroke:none;stroke-width:2;marker:none;enable-background:accumulate"
         d="m 27.125,-250.24483 v 476 36 H 503 h 36 0.125 v -36 H 539 v -476 h -36 v 476 H 63.125 v -476 z"
         id="rect3068-1"
         inkscape:connector-curvature="0" />
    </g>
    <g
       id="g5323"
       inkscape:label="Layer 1"
       transform="matrix(4.5556592,0,0,4.5556592,490.10186,634.30819)">
      <g
         id="g4390">
        <ellipse
           style="display:inline;overflow:visible;visibility:visible;opacity:0.54857142;fill:url(#radialGradient35494);fill-opacity:1;fill-rule:nonzero;stroke:none;stroke-width:1;marker:none;enable-background:accumulate"
           id="path35486"
           transform="matrix(1.274286,0,0,1.377124,-7.569123,-16.70193)"
           cx="28.019106"
           cy="38.98439"
           rx="15.467961"
           ry="5.3033009" />
        <path
           inkscape:connector-curvature="0"
           style="fill:#f57900;fill-rule:evenodd;stroke:#ce5c00;stroke-width:1;stroke-linecap:round;stroke-linejoin:round;stroke-miterlimit:4;stroke-dasharray:none"
           id="path2482"
           d="m 16.048489,28.093447 c 0.0098,0.576682 0.196474,1.697902 0.471116,2.577425 0.581566,1.854137 1.56684,3.572658 2.939126,5.086496 1.407488,1.553118 3.138519,2.803227 5.139315,3.68976 2.105357,0.931573 4.384795,1.407488 6.750134,1.403741 2.365339,-0.005 4.644601,-0.488686 6.74896,-1.427017 2.00002,-0.895288 3.731043,-2.148391 5.13754,-3.705517 1.369207,-1.519844 2.352576,-3.241114 2.934089,-5.096258 0.294262,-0.938353 0.476921,-1.889392 0.553238,-2.845308 0.07331,-0.939306 0.04204,-1.883511 -0.09183,-2.823792 -0.259981,-1.835599 -0.896294,-3.556847 -1.872652,-5.12758 -0.895541,-1.441699 -2.047808,-2.70454 -3.417268,-3.766975 0,0 0.002,-0.002 0.002,-0.002 0,0 -13.828458,-10.6197195 -13.828458,-10.6197195 -0.01176,-0.00978 -0.02252,-0.019551 -0.03529,-0.028344 -0.909003,-0.6959264 -2.434775,-0.6939758 -3.431728,0.00488 -1.01067,0.7057021 -1.091821,1.8092613 -0.195527,2.5482146 1.899775,1.4997633 3.792068,3.0680399 5.702368,4.5676189 0,0 -17.551681,-0.01171 -17.551681,-0.01171 -1.994685,0 -3.1682604,0.947915 -3.4153942,2.333683 -0.2180771,1.222836 0.7479213,2.738129 2.4800212,2.738129 2.956573,0.0039 5.942111,-0.0069 8.909215,-0.01272 0,0 -15.901723,11.764162 -15.901723,11.764162 -0.020527,0.01564 -0.041053,0.02933 -0.06158,0.04497 -1.4974197,1.148389 -1.9831951,3.059322 -1.0399808,4.268393 0.9598323,1.22959 2.9977653,1.230588 4.5147288,0.006 0,0 8.677593,-7.102098 8.677593,-7.102098 0,0 -0.12511,0.959824 -0.116333,1.535532 z"
           sodipodi:nodetypes="csssssssssscccsscccscccssccc" />
        <ellipse
           style="display:inline;overflow:visible;visibility:visible;fill:url(#linearGradient6786);fill-opacity:1;fill-rule:nonzero;stroke:none;stroke-width:1;marker:none;enable-background:accumulate"
           id="path39153"
           transform="matrix(0.821621,0,0,0.839506,5.875686,3.882724)"
           cx="31.1875"
           cy="25.75"
           rx="11.5625"
           ry="10.125" />
        <path
           inkscape:connector-curvature="0"
           style="opacity:0.4857143;fill:none;stroke:url(#linearGradient34576);stroke-width:1;stroke-linecap:butt;stroke-linejoin:miter;stroke-miterlimit:4;stroke-dasharray:none;stroke-opacity:1"
           d="m 25.796988,6.0267804 c -0.404852,5.53e-4 -0.818619,0.1256944 -1.095272,0.3196267 -7.14e-4,7.142e-4 -0.0014,0.00143 -0.0021,0.00213 -0.280209,0.1956525 -0.336859,0.3680061 -0.345206,0.4602725 -0.0083,0.092266 -0.01324,0.1672776 0.189655,0.3345475 0.01899,0.015735 0.03747,0.032076 0.0554,0.049009 0.124258,0.1010285 5.704394,4.6389489 5.704394,4.6389489 0.373658,0.304091 0.51584,0.810232 0.355197,1.264415 -0.160635,0.454191 -0.589422,0.382732 -1.071174,0.384283 -5.634142,0.05114 -17.60967,0.01918 -17.60967,0.01918 -0.952967,6.38e-4 -2.3472795,0.516793 -2.4135719,1.585761 -0.063562,1.024947 0.9093059,1.457499 1.5782589,1.457499 0,0 8.830403,-0.01705 8.830403,-0.01705 0.488364,-5.91e-4 0.922857,0.221532 1.080466,0.683755 0.15761,0.462231 0.0033,0.53156 -0.383664,0.829439 0,0 -15.9006939,12.205735 -15.9006939,12.205735 -0.00142,0.0014 -0.00284,0.0028 -0.00426,0.0043 -0.064038,0.04879 -0.084772,0.06226 -0.061795,0.04476 -0.5536756,0.424618 -0.8961097,0.98072 -1.0185711,1.476701 -0.1224537,0.495981 -0.04659,0.882548 0.1875202,1.182646 0.4788333,0.613413 1.8577618,0.820499 2.9863998,-0.09061 0,0 8.672724,-7.09799 8.672724,-7.09799 0.361955,-0.295752 0.77937,-0.340606 1.187723,-0.113169 0.408345,0.227437 0.548124,0.592694 0.487243,1.05613 0,0 -0.112502,0.980045 -0.10655,1.370159 0.192357,2.636407 1.448328,5.003383 3.115366,7.003128 2.877746,3.172809 6.937778,4.644674 11.130659,4.808308 4.20342,-0.04394 8.318367,-1.795011 11.174847,-4.89086 C 47.739634,28.611968 46.32987,21.589741 40.640807,16.960414 36.14442,13.301596 31.42752,9.8792042 26.81986,6.3400569 c -0.0043,-0.00352 -0.0086,-0.00707 -0.01279,-0.010651 -0.0072,-0.00489 -0.01427,-0.00987 -0.02131,-0.014921 -0.210578,-0.1612268 -0.584681,-0.288265 -0.988772,-0.2877045 z"
           id="path3562"
           sodipodi:nodetypes="cssssscscczccsccssssccscccccscssc" />
        <path
           inkscape:connector-curvature="0"
           style="fill:#0d528b;fill-rule:evenodd;stroke:none"
           id="path2478"
           d="m 25.653978,25.09146 c 0.07926,-1.448773 0.78688,-2.727609 1.850623,-3.632978 1.046825,-0.890007 2.452533,-1.433435 3.988056,-1.433435 1.534545,0 2.940254,0.543428 3.986835,1.433435 1.064917,0.905369 1.771683,2.183246 1.851868,3.632019 0.08215,1.491022 -0.513877,2.875471 -1.558501,3.900856 -1.064918,1.044581 -2.583328,1.700332 -4.280202,1.700332 -1.697851,0 -3.216262,-0.655751 -4.281129,-1.700332 -1.045701,-1.025385 -1.639667,-2.409834 -1.55755,-3.899897 z" />
        <path
           inkscape:connector-curvature="0"
           style="opacity:0.51999996;fill:url(#radialGradient39177);fill-opacity:1;fill-rule:evenodd;stroke:none"
           d="m 24.59375,7.1875 c 0,0 5.71875,4.65625 5.71875,4.65625 0.495581,0.404913 0.140487,1.262555 -0.78125,1.25 -5.634142,0.05114 -17.375,-0.03125 -17.375,-0.03125 -0.83333,0 -2.34375,0.577974 -2.34375,1.6875 0,1.109526 0.674797,1.256826 1.34375,1.25092 10e-7,0 8.8125,0 8.8125,0 1.45524,0.03051 1.617186,1.227393 0.6875,2.03033 0,0 -15.875,12.21875 -15.875,12.21875 -0.00142,0.0014 -0.029829,-0.0014 -0.03125,0 -0.064037,0.04879 -0.054226,0.04875 -0.03125,0.03125 -0.5536758,0.424619 -0.9087886,1.004019 -1.03125,1.5 -0.1224536,0.495981 -0.04661,0.856152 0.1875,1.15625 0.4788333,0.613413 1.7334178,0.312915 2.8620558,-0.598192 10e-8,10e-7 8.5678612,-7.049556 8.5678612,-7.049556 0.825495,-0.683682 2.569434,-0.118316 2.418275,1.384804 -0.225591,2.243266 0.09704,3.321215 0.922097,5.052178 2.275388,4.773775 9.8328,-12.333881 26.249318,-10.695484 -0.847848,-1.48757 -2.036218,-3.155316 -3.53125,-4.371859 C 36.866972,13.000573 27.607995,6.1227791 27.607995,6.1227791 26.244584,5.10849 23.323901,5.9514388 24.59375,7.1875 Z"
           id="path39166"
           sodipodi:nodetypes="cccczscccssssscsscsss" />
      </g>
    </g>
    <g
       transform="matrix(4.7878474,0,0,4.7878474,61.28744,628.43715)"
       inkscape:label="Layer 1"
       id="g5332">
      <g
         id="g5334">
        <ellipse
           style="display:inline;overflow:visible;visibility:visible;fill:url(#radialGradient5482);fill-opacity:1;fill-rule:nonzero;stroke:none;stroke-width:1;marker:none;enable-background:accumulate"
           id="path5480"
           transform="matrix(0.6403051,0,0,0.91864405,12.73379,1.6532985)"
           cx="28.019106"
           cy="38.98439"
           rx="15.467961"
           ry="5.3033009" />
        <ellipse
           transform="matrix(1.274286,0,0,1.3228793,-7.569123,-15.04957)"
           id="path5336"
           style="display:inline;overflow:visible;visibility:visible;opacity:0.7837838;fill:url(#radialGradient5348);fill-opacity:1;fill-rule:nonzero;stroke:none;stroke-width:1;marker:none;filter:url(#filter6077);enable-background:accumulate"
           cx="28.019106"
           cy="38.98439"
           rx="15.467961"
           ry="5.3033009" />
        <path
           inkscape:connector-curvature="0"
           sodipodi:nodetypes="csssssssssscccsscccscccssccc"
           d="m 16.048489,28.093447 c 0.0098,0.576682 0.196474,1.697902 0.471116,2.577425 0.581566,1.854137 1.56684,3.572658 2.939126,5.086496 1.407488,1.553118 3.138519,2.803227 5.139315,3.68976 2.105357,0.931573 4.384795,1.407488 6.750134,1.403741 2.365339,-0.005 4.644601,-0.488686 6.74896,-1.427017 2.00002,-0.895288 3.731043,-2.148391 5.13754,-3.705517 1.369207,-1.519844 2.352576,-3.241114 2.934089,-5.096258 0.294262,-0.938353 0.476921,-1.889392 0.553238,-2.845308 0.07331,-0.939306 0.04204,-1.883511 -0.09183,-2.823792 -0.259981,-1.835599 -0.896294,-3.556847 -1.872652,-5.12758 -0.895541,-1.441699 -2.047808,-2.70454 -3.417268,-3.766975 0,0 0.002,-0.002 0.002,-0.002 0,0 -13.828458,-10.6197195 -13.828458,-10.6197195 -0.01176,-0.00978 -0.02252,-0.019551 -0.03529,-0.028344 -0.909003,-0.6959264 -2.434775,-0.6939758 -3.431728,0.00488 -1.01067,0.7057021 -1.091821,1.8092613 -0.195527,2.5482146 1.899775,1.4997633 3.792068,3.0680399 5.702368,4.5676189 0,0 -17.551681,-0.01171 -17.551681,-0.01171 -1.994685,0 -3.1682604,0.947915 -3.4153942,2.333683 -0.2180771,1.222836 0.7479213,2.738129 2.4800212,2.738129 2.956573,0.0039 5.942111,-0.0069 8.909215,-0.01272 0,0 -15.901723,11.764162 -15.901723,11.764162 -0.020527,0.01564 -0.041053,0.02933 -0.06158,0.04497 -1.4974197,1.148389 -1.9831951,3.059322 -1.0399808,4.268393 0.9598323,1.22959 2.9977653,1.230588 4.5147288,0.006 0,0 8.677593,-7.102098 8.677593,-7.102098 0,0 -0.12511,0.959824 -0.116333,1.535532 z"
           id="path5338"
           style="fill:url(#radialGradient5453);fill-opacity:1;fill-rule:evenodd;stroke:none" />
        <ellipse
           transform="matrix(0.821621,0,0,0.839506,5.875686,3.882724)"
           id="path5340"
           style="display:inline;overflow:visible;visibility:visible;fill:url(#linearGradient6788);fill-opacity:1;fill-rule:nonzero;stroke:none;stroke-width:1;marker:none;enable-background:accumulate"
           cx="31.1875"
           cy="25.75"
           rx="11.5625"
           ry="10.125" />
        <path
           id="path9800"
           style="color:#000000;display:inline;overflow:visible;visibility:visible;fill:url(#radialGradient9884);fill-opacity:1;fill-rule:evenodd;stroke:none;marker:none;enable-background:accumulate"
           d="m 25.624292,25.10088 c 0.08255,-1.485699 0.811228,-2.796241 1.90872,-3.725185 v 0 c 1.078387,-0.912619 2.527782,-1.469521 4.110514,-1.46962 v 0 c 1.58198,9.9e-5 3.031385,0.557001 4.10981,1.46962 v 0 c 1.097825,0.928944 1.826442,2.239308 1.909862,3.724682 0.08397,1.528417 -0.529509,2.948514 -1.607183,3.999945 v 0 c -1.098082,1.071015 -2.662413,1.743422 -4.412232,1.743422 v 0 c -1.750334,0 -3.315672,-0.672407 -4.413802,-1.743422 v 0 C 26.152364,28.049294 25.539436,26.628995 25.624292,25.10088"
           inkscape:connector-curvature="0" />
        <path
           inkscape:connector-curvature="0"
           sodipodi:nodetypes="cssssscscczccsccssssccscccccscssc"
           id="path5342"
           d="m 25.796988,6.0267804 c -0.404852,5.53e-4 -0.818619,0.1256944 -1.095272,0.3196267 -7.14e-4,7.142e-4 -0.0014,0.00143 -0.0021,0.00213 -0.280209,0.1956525 -0.336859,0.3680061 -0.345206,0.4602725 -0.0083,0.092266 -0.01324,0.1672776 0.189655,0.3345475 0.01899,0.015735 0.03747,0.032076 0.0554,0.049009 0.124258,0.1010285 5.704394,4.6389489 5.704394,4.6389489 0.373658,0.304091 0.51584,0.810232 0.355197,1.264415 -0.160635,0.454191 -0.589422,0.382732 -1.071174,0.384283 -5.634142,0.05114 -17.60967,0.01918 -17.60967,0.01918 -0.952967,6.38e-4 -2.3472795,0.516793 -2.4135719,1.585761 -0.063562,1.024947 0.9093059,1.457499 1.5782589,1.457499 0,0 8.830403,-0.01705 8.830403,-0.01705 0.488364,-5.91e-4 0.922857,0.221532 1.080466,0.683755 0.15761,0.462231 0.0033,0.53156 -0.383664,0.829439 0,0 -15.9006939,12.205735 -15.9006939,12.205735 -0.00142,0.0014 -0.00284,0.0028 -0.00426,0.0043 -0.064038,0.04879 -0.084772,0.06226 -0.061795,0.04476 -0.5536756,0.424618 -0.8961097,0.98072 -1.0185711,1.476701 -0.1224537,0.495981 -0.04659,0.882548 0.1875202,1.182646 0.4788333,0.613413 1.8577618,0.820499 2.9863998,-0.09061 0,0 8.672724,-7.09799 8.672724,-7.09799 0.361955,-0.295752 0.77937,-0.340606 1.187723,-0.113169 0.408345,0.227437 0.548124,0.592694 0.487243,1.05613 0,0 -0.112502,0.980045 -0.10655,1.370159 0.192357,2.636407 1.448328,5.003383 3.115366,7.003128 2.877746,3.172809 6.937778,4.644674 11.130659,4.808308 4.20342,-0.04394 8.318367,-1.795011 11.174847,-4.89086 C 47.739634,28.611968 46.32987,21.589741 40.640807,16.960414 36.14442,13.301596 31.42752,9.8792042 26.81986,6.3400569 c -0.0043,-0.00352 -0.0086,-0.00707 -0.01279,-0.010651 -0.0072,-0.00489 -0.01427,-0.00987 -0.02131,-0.014921 -0.210578,-0.1612268 -0.584681,-0.288265 -0.988772,-0.2877045 z"
           style="opacity:0.4857143;fill:none;stroke:url(#radialGradient6101);stroke-width:0.36511794;stroke-linecap:butt;stroke-linejoin:miter;stroke-miterlimit:4;stroke-dasharray:none;stroke-opacity:1;filter:url(#filter6103)" />
        <path
           inkscape:connector-curvature="0"
           sodipodi:nodetypes="cccczscccssssscsscsss"
           id="path5346"
           d="m 24.59375,7.1875 c 0,0 5.71875,4.65625 5.71875,4.65625 0.495581,0.404913 0.140487,1.262555 -0.78125,1.25 -5.634142,0.05114 -17.375,-0.03125 -17.375,-0.03125 -0.83333,0 -2.34375,0.577974 -2.34375,1.6875 0,1.109526 0.674797,1.256826 1.34375,1.25092 10e-7,0 8.8125,0 8.8125,0 1.45524,0.03051 1.617186,1.227393 0.6875,2.03033 0,0 -15.875,12.21875 -15.875,12.21875 -0.00142,0.0014 -0.029829,-0.0014 -0.03125,0 -0.064037,0.04879 -0.054226,0.04875 -0.03125,0.03125 -0.5536758,0.424619 -0.9087886,1.004019 -1.03125,1.5 -0.1224536,0.495981 -0.04661,0.856152 0.1875,1.15625 0.4788333,0.613413 1.7334178,0.312915 2.8620558,-0.598192 10e-8,10e-7 8.5678612,-7.049556 8.5678612,-7.049556 0.825495,-0.683682 2.569434,-0.118316 2.418275,1.384804 -0.225591,2.243266 0.09704,3.321215 0.922097,5.052178 2.275388,4.773775 9.8328,-12.333881 26.249318,-10.695484 -0.847848,-1.48757 -2.036218,-3.155316 -3.53125,-4.371859 C 36.866972,13.000573 27.607995,6.1227791 27.607995,6.1227791 26.244584,5.10849 23.323901,5.9514388 24.59375,7.1875 Z"
           style="opacity:0.51999996;fill:url(#radialGradient6168);fill-opacity:1;fill-rule:evenodd;stroke:none" />
        <path
           inkscape:connector-curvature="0"
           style="opacity:0.69791667;fill:none;stroke:#954900;stroke-width:0.73023587;stroke-linecap:round;stroke-linejoin:round;stroke-miterlimit:4;stroke-dasharray:none;stroke-opacity:1;filter:url(#filter5467)"
           id="path6081"
           d="m 16.048489,28.093447 c 0.0098,0.576682 0.196474,1.697902 0.471116,2.577425 0.581566,1.854137 1.56684,3.572658 2.939126,5.086496 1.407488,1.553118 3.138519,2.803227 5.139315,3.68976 2.105357,0.931573 4.384795,1.407488 6.750134,1.403741 2.365339,-0.005 4.644601,-0.488686 6.74896,-1.427017 2.00002,-0.895288 3.731043,-2.148391 5.13754,-3.705517 1.369207,-1.519844 2.352576,-3.241114 2.934089,-5.096258 0.294262,-0.938353 0.476921,-1.889392 0.553238,-2.845308 0.07331,-0.939306 0.04204,-1.883511 -0.09183,-2.823792 -0.259981,-1.835599 -0.896294,-3.556847 -1.872652,-5.12758 -0.895541,-1.441699 -2.047808,-2.70454 -3.417268,-3.766975 0,0 0.002,-0.002 0.002,-0.002 0,0 -13.828458,-10.6197195 -13.828458,-10.6197195 -0.01176,-0.00978 -0.02252,-0.019551 -0.03529,-0.028344 -0.909003,-0.6959264 -2.434775,-0.6939758 -3.431728,0.00488 -1.01067,0.7057021 -1.091821,1.8092613 -0.195527,2.5482146 1.899775,1.4997633 3.792068,3.0680399 5.702368,4.5676189 0,0 -17.551681,-0.01171 -17.551681,-0.01171 -1.994685,0 -3.1682604,0.947915 -3.4153942,2.333683 -0.2180771,1.222836 0.7479213,2.738129 2.4800212,2.738129 2.956573,0.0039 5.942111,-0.0069 8.909215,-0.01272 0,0 -15.901723,11.764162 -15.901723,11.764162 -0.020527,0.01564 -0.041053,0.02933 -0.06158,0.04497 -1.4974197,1.148389 -1.9831951,3.059322 -1.0399808,4.268393 0.9598323,1.22959 2.9977653,1.230588 4.5147288,0.006 0,0 8.677593,-7.102098 8.677593,-7.102098 0,0 -0.12511,0.959824 -0.116333,1.535532 z"
           sodipodi:nodetypes="csssssssssscccsscccscccssccc"
           clip-path="url(#clipPath6085)" />
        <path
           sodipodi:type="inkscape:offset"
           inkscape:radius="-0.43277135"
           inkscape:original="M 25.794922 4.8886719 C 25.175234 4.8895257 24.545352 5.0646346 24.046875 5.4140625 C 23.036205 6.1197646 22.955269 7.2219842 23.851562 7.9609375 C 25.751338 9.4607008 27.642434 11.029718 29.552734 12.529297 L 12.001953 12.517578 C 10.007268 12.517578 8.8330713 13.465794 8.5859375 14.851562 C 8.3678604 16.074399 9.3343064 17.589844 11.066406 17.589844 C 14.022979 17.593744 17.009459 17.581992 19.976562 17.576172 L 4.0742188 29.339844 C 4.0536917 29.355484 4.0322458 29.369126 4.0117188 29.384766 C 2.514299 30.533155 2.0294419 32.445226 2.9726562 33.654297 C 3.9324885 34.883887 5.9693646 34.884744 7.4863281 33.660156 L 16.164062 26.558594 C 16.164062 26.558594 16.040051 27.518042 16.048828 28.09375 C 16.058628 28.670432 16.244889 29.790399 16.519531 30.669922 C 17.101097 32.524059 18.086698 34.243974 19.458984 35.757812 C 20.866472 37.31093 22.59686 38.560733 24.597656 39.447266 C 26.703013 40.378839 28.982317 40.85531 31.347656 40.851562 C 33.712995 40.846562 35.993297 40.362159 38.097656 39.423828 C 40.097676 38.52854 41.827878 37.275876 43.234375 35.71875 C 44.603582 34.198906 45.586456 32.478191 46.167969 30.623047 C 46.462231 29.684694 46.646339 28.73326 46.722656 27.777344 C 46.795966 26.838038 46.764729 25.893406 46.630859 24.953125 C 46.370878 23.117526 45.73417 21.396905 44.757812 19.826172 C 43.862271 18.384473 42.709304 17.121029 41.339844 16.058594 L 41.341797 16.056641 L 27.513672 5.4375 C 27.501912 5.42772 27.491286 5.4169961 27.478516 5.4082031 C 27.024014 5.0602399 26.414609 4.887818 25.794922 4.8886719 z "
           xlink:href="#path5338"
           style="opacity:0.43678164;fill:none;stroke:url(#radialGradient6121);stroke-width:0.18255897;stroke-linecap:round;stroke-linejoin:round;stroke-miterlimit:4;stroke-dasharray:none;stroke-opacity:1;filter:url(#filter6127)"
           id="path6113"
           inkscape:href="#path5338"
           d="m 25.794922,5.3222656 c -1.358589,0.2819196 -0.192334,-0.3551554 -1.5,0.4472656 -0.313262,1.6727504 -2.361068,-0.3352193 -0.167969,1.8574219 1.90278,1.5023378 3.791816,3.0697949 5.693359,4.5624999 a 0.43281463,0.43281463 0 0 1 -0.267578,0.773438 l -17.550781,-0.01172 c -0.928767,0 -1.626708,0.219882 -2.111328,0.566406 -0.4846204,0.346525 -0.7731426,0.817102 -0.8789062,1.410156 -0.1684281,0.944437 0.5750141,2.228516 2.0546872,2.228516 2.955042,0.0039 5.94248,-0.0079 8.910156,-0.01367 a 0.43281463,0.43281463 0 0 1 0.257813,0.78125 L 4.3320312,29.6875 c -0.033643,0.02531 -0.054583,0.03955 -0.056641,0.04102 -1.3491441,1.034674 -1.7238062,2.682263 -0.9609375,3.660156 0.7767373,0.995037 2.5292018,1.041266 3.8984375,-0.0625 l 0.00195,-0.002 8.6757812,-7.09961 a 0.43281463,0.43281463 0 0 1 0.703125,0.388672 c 0,0 -0.119046,0.968356 -0.111328,1.47461 0.0086,0.493651 0.191293,1.620879 0.451172,2.453125 h -0.002 c 0.56265,1.79383 1.515665,3.456395 2.847656,4.925781 1.366545,1.507938 3.046581,2.72104 4.994141,3.583984 2.049596,0.9069 4.267438,1.370843 6.574218,1.367188 2.306203,-0.0049 4.523988,-0.475634 6.572266,-1.388672 1.946695,-0.871418 3.626972,-2.088766 4.992187,-3.599609 1.329419,-1.475679 2.281022,-3.140331 2.84375,-4.935547 0.284497,-0.907213 0.461329,-1.827054 0.535157,-2.75 v -0.002 c 0.07062,-0.906718 0.04151,-1.819627 -0.08789,-2.728516 -0.251489,-1.77564 -0.866415,-3.436954 -1.8125,-4.958984 -0.86749,-1.39654 -1.985287,-2.621607 -3.316406,-3.654297 a 0.43281463,0.43281463 0 0 1 -0.0332,-0.02734 0.43281463,0.43281463 0 0 1 -0.0039,-0.0039 L 27.25,5.78125 a 0.43281463,0.43281463 0 0 1 -0.01367,-0.011719 c -0.0328,-0.027279 -0.03415,-0.026682 -0.0039,-0.00586 a 0.43281463,0.43281463 0 0 1 -0.01758,-0.011719 C 26.853811,5.4755491 26.333942,5.3215229 25.794922,5.3222656 Z"
           transform="translate(-0.1038151,0.1038151)" />
        <path
           inkscape:connector-curvature="0"
           style="fill:url(#radialGradient6166);fill-opacity:1;fill-rule:evenodd;stroke:none;filter:url(#filter6156)"
           d="m 153.40625,38.03125 c -5.56523,0.01098 -10.69216,2.532873 -9.5,6.0625 1.49885,-4.120535 12.31419,-5.870121 18.0625,-1.59375 0,0 50.71398,37.676904 75.34375,57.71875 7.49621,6.09984 13.55477,14.25472 18.09375,21.84375 0.41707,0.0374 0.83082,0.0519 1.25,0.0937 C 252.012,114.00782 245.50181,104.88259 237.3125,98.21875 212.68273,78.176911 161.96875,40.5 161.96875,40.5 c -2.33385,-1.736235 -5.52342,-2.474747 -8.5625,-2.46875 z m 24.4375,37.34375 c -0.52291,1.766542 -2.397,3.352638 -5.34375,3.3125 -30.86204,0.280116 -95.1875,-0.15625 -95.1875,-0.15625 -4.564714,-10e-7 -12.84375,3.141119 -12.84375,9.21875 0,0.379852 0.03453,0.753994 0.0625,1.09375 0.781053,-5.477136 8.452586,-8.3125 12.78125,-8.3125 0,0 64.32546,0.436359 95.1875,0.15625 4.0631,0.05534 6.11164,-2.970588 5.34375,-5.3125 z m -50.90625,25.46875 c -0.30408,1.66026 -1.32885,3.40896 -3.0625,4.90625 0,0 -86.96875,66.90625 -86.96875,66.90625 -0.0078,0.008 -0.148468,-0.008 -0.15625,0 -0.350777,0.26728 -0.313357,0.28336 -0.1875,0.1875 -3.032861,2.32594 -4.954195,5.50192 -5.625,8.21875 -0.306372,1.24091 -0.375948,2.3112 -0.25,3.28125 0.05246,-0.4134 0.138206,-0.82845 0.25,-1.28125 0.670805,-2.71683 2.592139,-5.89281 5.625,-8.21875 -0.125857,0.0959 -0.163277,0.0798 0.1875,-0.1875 0.0078,-0.008 0.148469,0.008 0.15625,0 0,0 86.96875,-66.90625 86.96875,-66.90625 2.45227,-2.11794 3.50673,-4.74191 3.0625,-6.90625 z m -19.125,52.34375 c -0.30179,3.03149 -0.43687,5.65829 -0.375,8.0625 0.026,-1.8868 0.1482,-3.90098 0.375,-6.15625 0.067,-0.66645 0.0608,-1.30801 0,-1.90625 z"
           transform="matrix(0.1857898,0,0,0.1857898,-2.4225986,-1.6310883)"
           id="path6151" />
        <path
           inkscape:connector-curvature="0"
           style="opacity:0.54819282;fill:url(#radialGradient5463);fill-opacity:1;fill-rule:evenodd;stroke:none;filter:url(#filter5489)"
           d="m 29.75,176 c -2.614996,11.18132 0.641128,17.71466 14,16.25 -9.13081,-1.29592 -13.534207,-6.9556 -14,-16.25 z"
           id="path5455"
           transform="matrix(0.182559,0,0,0.182559,-1.95853,-1.2718719)"
           sodipodi:nodetypes="ccc" />
      </g>
    </g>
    <text
       xml:space="preserve"
       style="font-style:normal;font-variant:normal;font-weight:300;font-stretch:normal;font-size:27.68665123px;line-height:1.25;font-family:Cantarell;-inkscape-font-specification:'Cantarell Light';font-variant-ligatures:normal;font-variant-caps:normal;font-variant-numeric:normal;font-feature-settings:normal;text-align:start;letter-spacing:0px;word-spacing:0px;writing-mode:lr-tb;text-anchor:start;fill:#000000;fill-opacity:1;stroke:none;stroke-width:0.33215478"
       x="51.729752"
       y="869.24829"
       id="text6865"><tspan
         sodipodi:role="line"
         id="tspan6863"
         x="51.729752"
         y="869.24829"
         style="font-style:normal;font-variant:normal;font-weight:300;font-stretch:normal;font-family:Cantarell;-inkscape-font-specification:'Cantarell Light';stroke-width:0.33215478">Intended Design: Highres</tspan></text>
    <text
       id="text6869"
       y="869.24829"
       x="461.72974"
       style="font-style:normal;font-variant:normal;font-weight:300;font-stretch:normal;font-size:27.68665123px;line-height:1.25;font-family:Cantarell;-inkscape-font-specification:'Cantarell Light';font-variant-ligatures:normal;font-variant-caps:normal;font-variant-numeric:normal;font-feature-settings:normal;text-align:start;letter-spacing:0px;word-spacing:0px;writing-mode:lr-tb;text-anchor:start;fill:#000000;fill-opacity:1;stroke:none;stroke-width:0.33215478"
       xml:space="preserve"><tspan
         style="font-style:normal;font-variant:normal;font-weight:300;font-stretch:normal;font-family:Cantarell;-inkscape-font-specification:'Cantarell Light';stroke-width:0.33215478"
         y="869.24829"
         x="461.72974"
         id="tspan6867"
         sodipodi:role="line"> 48x48px nominal scaled</tspan></text>
  </g>
</svg>
