<?xml version="1.0" encoding="UTF-8"?>
<svg height="128px" viewBox="0 0 128 128" width="128px" xmlns="http://www.w3.org/2000/svg" xmlns:xlink="http://www.w3.org/1999/xlink">
    <linearGradient id="a" gradientUnits="userSpaceOnUse">
        <stop offset="0" stop-color="#9a9996"/>
        <stop offset="1" stop-color="#9a9996" stop-opacity="0"/>
    </linearGradient>
    <linearGradient id="b" gradientTransform="matrix(0 -1.333333 -1.333333 0 414.666656 134.666656)" x1="38" x2="50" xlink:href="#a" y1="248" y2="248"/>
    <linearGradient id="c" gradientTransform="matrix(0 -1.333333 -1.333333 0 374.782776 134.666656)" x1="38" x2="50" xlink:href="#a" y1="248" y2="248"/>
    <clipPath id="d">
        <rect height="128" width="128"/>
    </clipPath>
    <clipPath id="e">
        <rect height="128" width="128"/>
    </clipPath>
    <filter id="f" height="100%" width="100%" x="0%" y="0%">
        <feColorMatrix in="SourceGraphic" type="matrix" values="0 0 0 0 1 0 0 0 0 1 0 0 0 0 1 0 0 0 1 0"/>
    </filter>
    <mask id="g">
        <g clip-path="url(#e)" filter="url(#f)">
            <g clip-path="url(#d)">
                <path d="m 89.179688 41.96875 l 6.082031 7.5625 l 22.648437 -4.667969 l 9.875 47.90625 c 1.488282 7.234375 -2.171875 14.546875 -8.851562 17.695313 c -6.679688 3.148437 -14.648438 1.316406 -19.28125 -4.433594 l -35.40625 -44 z m 0 0" fill="#deddda"/>
                <path d="m 39.183594 41.96875 l -6.085938 7.5625 l -22.648437 -4.667969 l -9.875 47.90625 c -1.484375 7.234375 2.171875 14.546875 8.851562 17.695313 c 6.683594 3.148437 14.648438 1.316406 19.285157 -4.433594 l 35.402343 -44 z m 0 0" fill="#deddda"/>
                <path d="m 41.117188 28 h 46 v 32 h -46 z m 0 0" fill="#deddda"/>
                <path d="m 60.449219 59.28125 l -31.984375 39.75 c -3.859375 4.78125 -10.117188 6.929688 -16.101563 5.527344 c -5.980469 -1.402344 -10.632812 -6.105469 -11.96875 -12.105469 l -0.0625 0.316406 c -1.488281 7.234375 2.167969 14.546875 8.851563 17.695313 c 6.679687 3.148437 14.648437 1.316406 19.28125 -4.433594 l 35.40625 -44 z m 7.101562 0 l -3.417969 2.75 l 35.402344 44 c 4.632813 5.75 12.601563 7.582031 19.28125 4.433594 c 6.683594 -3.148438 10.339844 -10.460938 8.855469 -17.695313 l -0.066406 -0.316406 c -1.335938 6 -5.988281 10.703125 -11.96875 12.105469 c -5.984375 1.402344 -12.242188 -0.746094 -16.101563 -5.527344 z m 0 0" fill="#5e5c64" fill-opacity="0.235294"/>
                <path d="m 54.117188 49 c 0 12.148438 -9.851563 22 -22 22 c -12.152344 0 -22 -9.851562 -22 -22 s 9.847656 -22 22 -22 c 12.148437 0 22 9.851562 22 22 z m 0 0" fill="#c0bfbc"/>
                <path d="m 46.117188 32 h 36 v 52 h -36 z m 0 0" fill="#c0bfbc"/>
                <path d="m 118.117188 49 c 0 12.148438 -9.851563 22 -22 22 c -12.152344 0 -22 -9.851562 -22 -22 s 9.847656 -22 22 -22 c 12.148437 0 22 9.851562 22 22 z m 0 0" fill="#c0bfbc"/>
                <path d="m 58 80 c 0 7.667969 -6.214844 13.882812 -13.882812 13.882812 c -7.667969 0 -13.886719 -6.214843 -13.886719 -13.882812 s 6.21875 -13.882812 13.886719 -13.882812 c 7.667968 0 13.882812 6.214843 13.882812 13.882812 z m 0 0" fill="#c0bfbc"/>
                <path d="m 98 80 c 0 7.667969 -6.214844 13.882812 -13.882812 13.882812 c -7.667969 0 -13.886719 -6.214843 -13.886719 -13.882812 s 6.21875 -13.882812 13.886719 -13.882812 c 7.667968 0 13.882812 6.214843 13.882812 13.882812 z m 0 0" fill="#c0bfbc"/>
                <path d="m 46.117188 32 h 36 v 48 h -36 z m 0 0" fill="#f6f5f4"/>
                <path d="m 58 78 c 0 7.667969 -6.214844 13.882812 -13.882812 13.882812 c -7.667969 0 -13.886719 -6.214843 -13.886719 -13.882812 s 6.21875 -13.882812 13.886719 -13.882812 c 7.667968 0 13.882812 6.214843 13.882812 13.882812 z m 0 0" fill="#f6f5f4"/>
                <path d="m 98 78 c 0 7.667969 -6.214844 13.882812 -13.882812 13.882812 c -7.667969 0 -13.886719 -6.214843 -13.886719 -13.882812 s 6.21875 -13.882812 13.886719 -13.882812 c 7.667968 0 13.882812 6.214843 13.882812 13.882812 z m 0 0" fill="#f6f5f4"/>
                <path d="m 54.117188 47 c 0 12.148438 -9.851563 22 -22 22 c -12.152344 0 -22 -9.851562 -22 -22 s 9.847656 -22 22 -22 c 12.148437 0 22 9.851562 22 22 z m 0 0" fill="#f6f5f4"/>
                <path d="m 118.117188 47 c 0 12.148438 -9.851563 22 -22 22 c -12.152344 0 -22 -9.851562 -22 -22 s 9.847656 -22 22 -22 c 12.148437 0 22 9.851562 22 22 z m 0 0" fill="#f6f5f4"/>
                <path d="m 30 36 c -1.109375 0 -2 0.890625 -2 2 v 6 h -6 c -1.109375 0 -2 0.890625 -2 2 v 4 c 0 1.109375 0.890625 2 2 2 h 6 v 6 c 0 1.109375 0.890625 2 2 2 h 4 c 1.109375 0 2 -0.890625 2 -2 v -6 h 6 c 1.109375 0 2 -0.890625 2 -2 v -4 c 0 -1.109375 -0.890625 -2 -2 -2 h -6 v -6 c 0 -1.109375 -0.890625 -2 -2 -2 z m 0 0" fill="#3d3846"/>
                <path d="m 30 34 c -1.109375 0 -2 0.890625 -2 2 v 6 h -6 c -1.109375 0 -2 0.890625 -2 2 v 4 c 0 1.109375 0.890625 2 2 2 h 6 v 6 c 0 1.109375 0.890625 2 2 2 h 4 c 1.109375 0 2 -0.890625 2 -2 v -6 h 6 c 1.109375 0 2 -0.890625 2 -2 v -4 c 0 -1.109375 -0.890625 -2 -2 -2 h -6 v -6 c 0 -1.109375 -0.890625 -2 -2 -2 z m 0 0" fill="#5e5c64"/>
                <path d="m 110 50 v 2 c 0 3.324219 -2.675781 6 -6 6 s -6 -2.675781 -6 -6 v -2 z m 0 0" fill="#c01c28"/>
                <path d="m 98 50 c 0 3.3125 2.6875 6 6 6 s 6 -2.6875 6 -6 s -2.6875 -6 -6 -6 s -6 2.6875 -6 6 z m 0 0" fill="#ed333b"/>
                <path d="m 94 42 v 2 c 0 3.324219 -2.675781 6 -6 6 s -6 -2.675781 -6 -6 v -2 z m 0 0" fill="#1a5fb4"/>
                <path d="m 82 42 c 0 3.3125 2.6875 6 6 6 s 6 -2.6875 6 -6 s -2.6875 -6 -6 -6 s -6 2.6875 -6 6 z m 0 0" fill="#3584e4"/>
                <path d="m 54.117188 78 c 0 5.523438 -4.476563 10 -10 10 c -5.523438 0 -10 -4.476562 -10 -10 s 4.476562 -10 10 -10 c 5.523437 0 10 4.476562 10 10 z m 0 0" fill="#241f31"/>
                <path d="m 94.117188 78 c 0 5.523438 -4.476563 10 -10 10 c -5.523438 0 -10 -4.476562 -10 -10 s 4.476562 -10 10 -10 c 5.523437 0 10 4.476562 10 10 z m 0 0" fill="#241f31"/>
                <path d="m 54.117188 76 c 0 5.523438 -4.476563 10 -10 10 c -5.523438 0 -10 -4.476562 -10 -10 s 4.476562 -10 10 -10 c 5.523437 0 10 4.476562 10 10 z m 0 0" fill="#3d3846"/>
                <path d="m 94.117188 76 c 0 5.523438 -4.476563 10 -10 10 c -5.523438 0 -10 -4.476562 -10 -10 s 4.476562 -10 10 -10 c 5.523437 0 10 4.476562 10 10 z m 0 0" fill="#3d3846"/>
                <path d="m 84 68 c -4.417969 0 -8 3.582031 -8 8 s 3.582031 8 8 8 s 8 -3.582031 8 -8 s -3.582031 -8 -8 -8 z m 0 0" fill="url(#b)"/>
                <path d="m 44.117188 68 c -4.417969 0 -8 3.582031 -8 8 s 3.582031 8 8 8 c 4.417968 0 8 -3.582031 8 -8 s -3.582032 -8 -8 -8 z m 0 0" fill="url(#c)"/>
            </g>
        </g>
    </mask>
    <mask id="h">
        <g filter="url(#f)">
            <rect fill-opacity="0.8" height="128" width="128"/>
        </g>
    </mask>
    <linearGradient id="i" gradientTransform="matrix(0 0.37 -0.98462 0 295.38501 -30.360001)" gradientUnits="userSpaceOnUse" x1="300" x2="428" y1="235" y2="235">
        <stop offset="0" stop-color="#f9f06b"/>
        <stop offset="1" stop-color="#f5c211"/>
    </linearGradient>
    <clipPath id="j">
        <rect height="128" width="128"/>
    </clipPath>
    <clipPath id="k">
        <rect height="128" width="128"/>
    </clipPath>
    <path d="m 89.179688 41.96875 l 6.082031 7.5625 l 22.648437 -4.667969 l 9.875 47.90625 c 1.488282 7.234375 -2.171875 14.546875 -8.851562 17.695313 c -6.679688 3.148437 -14.648438 1.316406 -19.28125 -4.433594 l -35.40625 -44 z m 0 0" fill="#deddda"/>
    <path d="m 39.183594 41.96875 l -6.085938 7.5625 l -22.648437 -4.667969 l -9.875 47.90625 c -1.484375 7.234375 2.171875 14.546875 8.851562 17.695313 c 6.683594 3.148437 14.648438 1.316406 19.285157 -4.433594 l 35.402343 -44 z m 0 0" fill="#deddda"/>
    <path d="m 41.117188 28 h 46 v 32 h -46 z m 0 0" fill="#deddda"/>
    <path d="m 60.449219 59.28125 l -31.984375 39.75 c -3.859375 4.78125 -10.117188 6.929688 -16.101563 5.527344 c -5.980469 -1.402344 -10.632812 -6.105469 -11.96875 -12.105469 l -0.0625 0.316406 c -1.488281 7.234375 2.167969 14.546875 8.851563 17.695313 c 6.679687 3.148437 14.648437 1.316406 19.28125 -4.433594 l 35.40625 -44 z m 7.101562 0 l -3.417969 2.75 l 35.402344 44 c 4.632813 5.75 12.601563 7.582031 19.28125 4.433594 c 6.683594 -3.148438 10.339844 -10.460938 8.855469 -17.695313 l -0.066406 -0.316406 c -1.335938 6 -5.988281 10.703125 -11.96875 12.105469 c -5.984375 1.402344 -12.242188 -0.746094 -16.101563 -5.527344 z m 0 0" fill="#5e5c64" fill-opacity="0.235294"/>
    <g fill="#c0bfbc">
        <path d="m 54.117188 49 c 0 12.148438 -9.851563 22 -22 22 c -12.152344 0 -22 -9.851562 -22 -22 s 9.847656 -22 22 -22 c 12.148437 0 22 9.851562 22 22 z m 0 0"/>
        <path d="m 46.117188 32 h 36 v 52 h -36 z m 0 0"/>
        <path d="m 118.117188 49 c 0 12.148438 -9.851563 22 -22 22 c -12.152344 0 -22 -9.851562 -22 -22 s 9.847656 -22 22 -22 c 12.148437 0 22 9.851562 22 22 z m 0 0"/>
        <path d="m 58 80 c 0 7.667969 -6.214844 13.882812 -13.882812 13.882812 c -7.667969 0 -13.886719 -6.214843 -13.886719 -13.882812 s 6.21875 -13.882812 13.886719 -13.882812 c 7.667968 0 13.882812 6.214843 13.882812 13.882812 z m 0 0"/>
        <path d="m 98 80 c 0 7.667969 -6.214844 13.882812 -13.882812 13.882812 c -7.667969 0 -13.886719 -6.214843 -13.886719 -13.882812 s 6.21875 -13.882812 13.886719 -13.882812 c 7.667968 0 13.882812 6.214843 13.882812 13.882812 z m 0 0"/>
    </g>
    <path d="m 46.117188 32 h 36 v 48 h -36 z m 0 0" fill="#f6f5f4"/>
    <path d="m 58 78 c 0 7.667969 -6.214844 13.882812 -13.882812 13.882812 c -7.667969 0 -13.886719 -6.214843 -13.886719 -13.882812 s 6.21875 -13.882812 13.886719 -13.882812 c 7.667968 0 13.882812 6.214843 13.882812 13.882812 z m 0 0" fill="#f6f5f4"/>
    <path d="m 98 78 c 0 7.667969 -6.214844 13.882812 -13.882812 13.882812 c -7.667969 0 -13.886719 -6.214843 -13.886719 -13.882812 s 6.21875 -13.882812 13.886719 -13.882812 c 7.667968 0 13.882812 6.214843 13.882812 13.882812 z m 0 0" fill="#f6f5f4"/>
    <path d="m 54.117188 47 c 0 12.148438 -9.851563 22 -22 22 c -12.152344 0 -22 -9.851562 -22 -22 s 9.847656 -22 22 -22 c 12.148437 0 22 9.851562 22 22 z m 0 0" fill="#f6f5f4"/>
    <path d="m 118.117188 47 c 0 12.148438 -9.851563 22 -22 22 c -12.152344 0 -22 -9.851562 -22 -22 s 9.847656 -22 22 -22 c 12.148437 0 22 9.851562 22 22 z m 0 0" fill="#f6f5f4"/>
    <path d="m 30 36 c -1.109375 0 -2 0.890625 -2 2 v 6 h -6 c -1.109375 0 -2 0.890625 -2 2 v 4 c 0 1.109375 0.890625 2 2 2 h 6 v 6 c 0 1.109375 0.890625 2 2 2 h 4 c 1.109375 0 2 -0.890625 2 -2 v -6 h 6 c 1.109375 0 2 -0.890625 2 -2 v -4 c 0 -1.109375 -0.890625 -2 -2 -2 h -6 v -6 c 0 -1.109375 -0.890625 -2 -2 -2 z m 0 0" fill="#3d3846"/>
    <path d="m 30 34 c -1.109375 0 -2 0.890625 -2 2 v 6 h -6 c -1.109375 0 -2 0.890625 -2 2 v 4 c 0 1.109375 0.890625 2 2 2 h 6 v 6 c 0 1.109375 0.890625 2 2 2 h 4 c 1.109375 0 2 -0.890625 2 -2 v -6 h 6 c 1.109375 0 2 -0.890625 2 -2 v -4 c 0 -1.109375 -0.890625 -2 -2 -2 h -6 v -6 c 0 -1.109375 -0.890625 -2 -2 -2 z m 0 0" fill="#5e5c64"/>
    <path d="m 110 50 v 2 c 0 3.324219 -2.675781 6 -6 6 s -6 -2.675781 -6 -6 v -2 z m 0 0" fill="#c01c28"/>
    <path d="m 98 50 c 0 3.3125 2.6875 6 6 6 s 6 -2.6875 6 -6 s -2.6875 -6 -6 -6 s -6 2.6875 -6 6 z m 0 0" fill="#ed333b"/>
    <path d="m 94 42 v 2 c 0 3.324219 -2.675781 6 -6 6 s -6 -2.675781 -6 -6 v -2 z m 0 0" fill="#1a5fb4"/>
    <path d="m 82 42 c 0 3.3125 2.6875 6 6 6 s 6 -2.6875 6 -6 s -2.6875 -6 -6 -6 s -6 2.6875 -6 6 z m 0 0" fill="#3584e4"/>
    <path d="m 54.117188 78 c 0 5.523438 -4.476563 10 -10 10 c -5.523438 0 -10 -4.476562 -10 -10 s 4.476562 -10 10 -10 c 5.523437 0 10 4.476562 10 10 z m 0 0" fill="#241f31"/>
    <path d="m 94.117188 78 c 0 5.523438 -4.476563 10 -10 10 c -5.523438 0 -10 -4.476562 -10 -10 s 4.476562 -10 10 -10 c 5.523437 0 10 4.476562 10 10 z m 0 0" fill="#241f31"/>
    <path d="m 54.117188 76 c 0 5.523438 -4.476563 10 -10 10 c -5.523438 0 -10 -4.476562 -10 -10 s 4.476562 -10 10 -10 c 5.523437 0 10 4.476562 10 10 z m 0 0" fill="#3d3846"/>
    <path d="m 94.117188 76 c 0 5.523438 -4.476563 10 -10 10 c -5.523438 0 -10 -4.476562 -10 -10 s 4.476562 -10 10 -10 c 5.523437 0 10 4.476562 10 10 z m 0 0" fill="#3d3846"/>
    <path d="m 84 68 c -4.417969 0 -8 3.582031 -8 8 s 3.582031 8 8 8 s 8 -3.582031 8 -8 s -3.582031 -8 -8 -8 z m 0 0" fill="url(#b)"/>
    <path d="m 44.117188 68 c -4.417969 0 -8 3.582031 -8 8 s 3.582031 8 8 8 c 4.417968 0 8 -3.582031 8 -8 s -3.582032 -8 -8 -8 z m 0 0" fill="url(#c)"/>
    <g clip-path="url(#k)" mask="url(#g)">
        <g clip-path="url(#j)" mask="url(#h)">
            <path d="m 128 80.640625 v 47.359375 h -128 v -47.359375 z m 0 0" fill="url(#i)"/>
            <path d="m 13.308594 80.640625 l 47.355468 47.359375 h 21.214844 l -47.359375 -47.359375 z m 42.421875 0 l 47.363281 47.359375 h 21.214844 l -47.363282 -47.359375 z m 42.429687 0 l 29.839844 29.839844 v -21.210938 l -8.628906 -8.628906 z m -98.160156 7.90625 v 21.214844 l 18.238281 18.238281 h 21.214844 z m 0 0"/>
        </g>
    </g>
</svg>
